<svg xmlns="http://www.w3.org/2000/svg" width="1280" height="820" viewBox="0 0 1280 820" role="img" aria-labelledby="title desc"><title id="title">Inversion por marca, barras stackeadas</title><desc id="desc">Barras horizontales stackeadas con inversion total por marca y desglose por medio.</desc><rect width="100%" height="100%" fill="#f6f2e9"/><text x="48" y="54" font-family="Georgia, serif" font-size="34" font-weight="700" fill="#1f2937">Inversion total por marca</text><text x="48" y="84" font-family="Georgia, serif" font-size="18" fill="#5f6b7a">Barras stackeadas por tipo de medio. Montos en CLP.</text><rect x="48" y="98" width="14" height="14" rx="7" fill="#b91c1c"/><text x="72" y="110" font-family="Georgia, serif" font-size="16" fill="#334155">TV abierta</text><rect x="178" y="98" width="14" height="14" rx="7" fill="#f97316"/><text x="202" y="110" font-family="Georgia, serif" font-size="16" fill="#334155">TV cable</text><rect x="308" y="98" width="14" height="14" rx="7" fill="#0f766e"/><text x="332" y="110" font-family="Georgia, serif" font-size="16" fill="#334155">Radio</text><rect x="438" y="98" width="14" height="14" rx="7" fill="#7c3aed"/><text x="462" y="110" font-family="Georgia, serif" font-size="16" fill="#334155">Via publica</text><rect x="568" y="98" width="14" height="14" rx="7" fill="#2563eb"/><text x="592" y="110" font-family="Georgia, serif" font-size="16" fill="#334155">Digital</text><rect x="698" y="98" width="14" height="14" rx="7" fill="#475569"/><text x="722" y="110" font-family="Georgia, serif" font-size="16" fill="#334155">Prensa</text><line x1="200.0" y1="110" x2="200.0" y2="740" stroke="#e8e3d8" stroke-width="1"/><text x="200.0" y="786" text-anchor="middle" font-family="Georgia, serif" font-size="14" fill="#64748b">$0</text><line x1="382.0" y1="110" x2="382.0" y2="740" stroke="#e8e3d8" stroke-width="1"/><text x="382.0" y="786" text-anchor="middle" font-family="Georgia, serif" font-size="14" fill="#64748b">$112.1 M</text><line x1="564.0" y1="110" x2="564.0" y2="740" stroke="#e8e3d8" stroke-width="1"/><text x="564.0" y="786" text-anchor="middle" font-family="Georgia, serif" font-size="14" fill="#64748b">$224.3 M</text><line x1="746.0" y1="110" x2="746.0" y2="740" stroke="#e8e3d8" stroke-width="1"/><text x="746.0" y="786" text-anchor="middle" font-family="Georgia, serif" font-size="14" fill="#64748b">$336.4 M</text><line x1="928.0" y1="110" x2="928.0" y2="740" stroke="#e8e3d8" stroke-width="1"/><text x="928.0" y="786" text-anchor="middle" font-family="Georgia, serif" font-size="14" fill="#64748b">$448.6 M</text><line x1="1110.0" y1="110" x2="1110.0" y2="740" stroke="#e8e3d8" stroke-width="1"/><text x="1110.0" y="786" text-anchor="middle" font-family="Georgia, serif" font-size="14" fill="#64748b">$560.7 M</text><text x="186" y="132" text-anchor="end" font-family="Georgia, serif" font-size="16" fill="#1f2937">BETANO</text><rect x="200" y="116" width="645.549371428576" height="24" rx="4" fill="#b91c1c"/><rect x="845.549371428576" y="116" width="30.369855334955876" height="24" rx="4" fill="#f97316"/><rect x="875.9192267635319" y="116" width="56.65075439659905" height="24" rx="4" fill="#0f766e"/><rect x="932.569981160131" y="116" width="140.85182280098496" height="24" rx="4" fill="#7c3aed"/><rect x="1073.421803961116" y="116" width="36.57819603888399" height="24" rx="4" fill="#2563eb"/><text x="1124" y="133" font-family="Georgia, serif" font-size="15" fill="#334155">$560.705.089</text><text x="186" y="180" text-anchor="end" font-family="Georgia, serif" font-size="16" fill="#1f2937">EPICBET</text><rect x="200" y="164" width="4.16060818232554" height="24" rx="4" fill="#f97316"/><rect x="204.16060818232555" y="164" width="605.7229020434348" height="24" rx="4" fill="#7c3aed"/><text x="1124" y="181" font-family="Georgia, serif" font-size="15" fill="#334155">$375.785.481</text><text x="186" y="228" text-anchor="end" font-family="Georgia, serif" font-size="16" fill="#1f2937">JUGABET</text><rect x="200" y="212" width="77.97331668561425" height="24" rx="4" fill="#b91c1c"/><rect x="277.97331668561424" y="212" width="9.532573285899177" height="24" rx="4" fill="#f97316"/><rect x="287.5058899715134" y="212" width="36.9436230145295" height="24" rx="4" fill="#0f766e"/><rect x="324.4495129860429" y="212" width="329.96832704400714" height="24" rx="4" fill="#7c3aed"/><rect x="654.41784003005" y="212" width="47.43053627087831" height="24" rx="4" fill="#2563eb"/><text x="1124" y="229" font-family="Georgia, serif" font-size="15" fill="#334155">$309.218.614</text><text x="186" y="276" text-anchor="end" font-family="Georgia, serif" font-size="16" fill="#1f2937">COOLBET</text><rect x="200" y="260" width="2.031821509950501" height="24" rx="4" fill="#b91c1c"/><rect x="202.0318215099505" y="260" width="0.026028977253117303" height="24" rx="4" fill="#f97316"/><rect x="202.0578504872036" y="260" width="0.30716400379595254" height="24" rx="4" fill="#0f766e"/><rect x="202.36501449099956" y="260" width="154.14652592935718" height="24" rx="4" fill="#2563eb"/><rect x="356.5115404203567" y="260" width="7.408407170840488" height="24" rx="4" fill="#475569"/><text x="1124" y="277" font-family="Georgia, serif" font-size="15" fill="#334155">$101.000.823</text><text x="186" y="324" text-anchor="end" font-family="Georgia, serif" font-size="16" fill="#1f2937">LATAMWIN</text><rect x="200" y="308" width="26.762480583609424" height="24" rx="4" fill="#0f766e"/><rect x="226.76248058360943" y="308" width="64.05596617696415" height="24" rx="4" fill="#2563eb"/><text x="1124" y="325" font-family="Georgia, serif" font-size="15" fill="#334155">$55.958.643</text><text x="186" y="372" text-anchor="end" font-family="Georgia, serif" font-size="16" fill="#1f2937">ROJABET</text><rect x="200" y="356" width="1.2715296585368219" height="24" rx="4" fill="#b91c1c"/><rect x="201.27152965853682" y="356" width="15.150838276486972" height="24" rx="4" fill="#f97316"/><rect x="216.4223679350238" y="356" width="9.957809002136926" height="24" rx="4" fill="#0f766e"/><text x="1124" y="373" font-family="Georgia, serif" font-size="15" fill="#334155">$16.254.395</text><text x="186" y="420" text-anchor="end" font-family="Georgia, serif" font-size="16" fill="#1f2937">TONYBET</text><rect x="200" y="404" width="25.50306475395813" height="24" rx="4" fill="#2563eb"/><text x="1124" y="421" font-family="Georgia, serif" font-size="15" fill="#334155">$15.713.954</text><text x="186" y="468" text-anchor="end" font-family="Georgia, serif" font-size="16" fill="#1f2937">BETSSON</text><rect x="200" y="452" width="3.838233829682087" height="24" rx="4" fill="#f97316"/><rect x="203.83823382968208" y="452" width="3.4736544755573338" height="24" rx="4" fill="#2563eb"/><text x="1124" y="469" font-family="Georgia, serif" font-size="15" fill="#334155">$4.505.289</text><text x="186" y="516" text-anchor="end" font-family="Georgia, serif" font-size="16" fill="#1f2937">APUESTAS ROYAL</text><rect x="200" y="500" width="2.895786203236725" height="24" rx="4" fill="#f97316"/><text x="1124" y="517" font-family="Georgia, serif" font-size="15" fill="#334155">$1.784.266</text><text x="186" y="564" text-anchor="end" font-family="Georgia, serif" font-size="16" fill="#1f2937">JUEGA EN LINEA</text><rect x="200" y="548" width="0.8245722917469013" height="24" rx="4" fill="#f97316"/><rect x="200.8245722917469" y="548" width="0.15533432432159291" height="24" rx="4" fill="#2563eb"/><text x="1124" y="565" font-family="Georgia, serif" font-size="15" fill="#334155">$603.779</text></svg>