<svg xmlns="http://www.w3.org/2000/svg" width="1280" height="820" viewBox="0 0 1280 820" role="img" aria-labelledby="title desc"><title id="title">Inversion por marca, barras stackeadas</title><desc id="desc">Barras horizontales stackeadas con inversion total por marca y desglose por medio.</desc><rect width="100%" height="100%" fill="#f6f2e9"/><text x="48" y="54" font-family="Helvetica Neue, Arial, sans-serif" font-size="34" font-weight="700" fill="#1f2937">Inversion total por marca</text><text x="48" y="84" font-family="Helvetica Neue, Arial, sans-serif" font-size="18" fill="#5f6b7a">Barras stackeadas por tipo de medio. Montos en CLP.</text><rect x="48" y="98" width="14" height="14" rx="7" fill="#b91c1c"/><text x="72" y="110" font-family="Helvetica Neue, Arial, sans-serif" font-size="16" fill="#334155">TV abierta</text><rect x="178" y="98" width="14" height="14" rx="7" fill="#f97316"/><text x="202" y="110" font-family="Helvetica Neue, Arial, sans-serif" font-size="16" fill="#334155">TV cable</text><rect x="308" y="98" width="14" height="14" rx="7" fill="#0f766e"/><text x="332" y="110" font-family="Helvetica Neue, Arial, sans-serif" font-size="16" fill="#334155">Radio</text><rect x="438" y="98" width="14" height="14" rx="7" fill="#7c3aed"/><text x="462" y="110" font-family="Helvetica Neue, Arial, sans-serif" font-size="16" fill="#334155">Via publica</text><rect x="568" y="98" width="14" height="14" rx="7" fill="#2563eb"/><text x="592" y="110" font-family="Helvetica Neue, Arial, sans-serif" font-size="16" fill="#334155">Digital</text><rect x="698" y="98" width="14" height="14" rx="7" fill="#475569"/><text x="722" y="110" font-family="Helvetica Neue, Arial, sans-serif" font-size="16" fill="#334155">Prensa</text><line x1="200.0" y1="110" x2="200.0" y2="740" stroke="#e8e3d8" stroke-width="1"/><text x="200.0" y="786" text-anchor="middle" font-family="Helvetica Neue, Arial, sans-serif" font-size="14" fill="#64748b">$0</text><line x1="382.0" y1="110" x2="382.0" y2="740" stroke="#e8e3d8" stroke-width="1"/><text x="382.0" y="786" text-anchor="middle" font-family="Helvetica Neue, Arial, sans-serif" font-size="14" fill="#64748b">$167.3 M</text><line x1="564.0" y1="110" x2="564.0" y2="740" stroke="#e8e3d8" stroke-width="1"/><text x="564.0" y="786" text-anchor="middle" font-family="Helvetica Neue, Arial, sans-serif" font-size="14" fill="#64748b">$334.5 M</text><line x1="746.0" y1="110" x2="746.0" y2="740" stroke="#e8e3d8" stroke-width="1"/><text x="746.0" y="786" text-anchor="middle" font-family="Helvetica Neue, Arial, sans-serif" font-size="14" fill="#64748b">$501.8 M</text><line x1="928.0" y1="110" x2="928.0" y2="740" stroke="#e8e3d8" stroke-width="1"/><text x="928.0" y="786" text-anchor="middle" font-family="Helvetica Neue, Arial, sans-serif" font-size="14" fill="#64748b">$669 M</text><line x1="1110.0" y1="110" x2="1110.0" y2="740" stroke="#e8e3d8" stroke-width="1"/><text x="1110.0" y="786" text-anchor="middle" font-family="Helvetica Neue, Arial, sans-serif" font-size="14" fill="#64748b">$836.3 M</text><text x="186" y="132" text-anchor="end" font-family="Helvetica Neue, Arial, sans-serif" font-size="16" fill="#1f2937">BETANO</text><rect x="200" y="116" width="646.7926353092602" height="24" rx="4" fill="#b91c1c"/><rect x="846.7926353092602" y="116" width="28.29759475920953" height="24" rx="4" fill="#f97316"/><rect x="875.0902300684697" y="116" width="49.42398729052769" height="24" rx="4" fill="#0f766e"/><rect x="924.5142173589975" y="116" width="134.75154350910154" height="24" rx="4" fill="#7c3aed"/><rect x="1059.265760868099" y="116" width="50.734239131901035" height="24" rx="4" fill="#2563eb"/><text x="1124" y="133" font-family="Helvetica Neue, Arial, sans-serif" font-size="15" fill="#334155">$836.297.506</text><text x="186" y="180" text-anchor="end" font-family="Helvetica Neue, Arial, sans-serif" font-size="16" fill="#1f2937">EPICBET</text><rect x="200" y="164" width="6.1073064451697325" height="24" rx="4" fill="#f97316"/><rect x="206.10730644516974" y="164" width="428.68075840325395" height="24" rx="4" fill="#7c3aed"/><text x="1124" y="181" font-family="Helvetica Neue, Arial, sans-serif" font-size="15" fill="#334155">$399.573.818</text><text x="186" y="228" text-anchor="end" font-family="Helvetica Neue, Arial, sans-serif" font-size="16" fill="#1f2937">JUGABET</text><rect x="200" y="212" width="71.17241667609002" height="24" rx="4" fill="#b91c1c"/><rect x="271.17241667609005" y="212" width="7.995893411167278" height="24" rx="4" fill="#f97316"/><rect x="279.16831008725734" y="212" width="34.96950875907266" height="24" rx="4" fill="#0f766e"/><rect x="314.13781884633" y="212" width="228.65607497439552" height="24" rx="4" fill="#7c3aed"/><rect x="542.7938938207255" y="212" width="32.009105221817705" height="24" rx="4" fill="#2563eb"/><text x="1124" y="229" font-family="Helvetica Neue, Arial, sans-serif" font-size="15" fill="#334155">$344.447.048</text><text x="186" y="276" text-anchor="end" font-family="Helvetica Neue, Arial, sans-serif" font-size="16" fill="#1f2937">COOLBET</text><rect x="200" y="260" width="1.3622576313882198" height="24" rx="4" fill="#b91c1c"/><rect x="201.36225763138822" y="260" width="0.01745142116403387" height="24" rx="4" fill="#f97316"/><rect x="201.37970905255224" y="260" width="0.2059415682970058" height="24" rx="4" fill="#0f766e"/><rect x="201.58565062084924" y="260" width="172.20238620985367" height="24" rx="4" fill="#2563eb"/><rect x="373.78803683070294" y="260" width="13.321273251136159" height="24" rx="4" fill="#475569"/><text x="1124" y="277" font-family="Helvetica Neue, Arial, sans-serif" font-size="15" fill="#334155">$171.954.999</text><text x="186" y="324" text-anchor="end" font-family="Helvetica Neue, Arial, sans-serif" font-size="16" fill="#1f2937">LATAMWIN</text><rect x="200" y="308" width="23.68650121752052" height="24" rx="4" fill="#0f766e"/><rect x="223.68650121752052" y="308" width="72.0831799703815" height="24" rx="4" fill="#2563eb"/><text x="1124" y="325" font-family="Helvetica Neue, Arial, sans-serif" font-size="15" fill="#334155">$88.013.127</text><text x="186" y="372" text-anchor="end" font-family="Helvetica Neue, Arial, sans-serif" font-size="16" fill="#1f2937">ROJABET</text><rect x="200" y="356" width="10.028027510933404" height="24" rx="4" fill="#b91c1c"/><rect x="210.0280275109334" y="356" width="14.09141432555838" height="24" rx="4" fill="#f97316"/><rect x="224.1194418364918" y="356" width="8.35473023389755" height="24" rx="4" fill="#0f766e"/><text x="1124" y="373" font-family="Helvetica Neue, Arial, sans-serif" font-size="15" fill="#334155">$29.844.032</text><text x="186" y="420" text-anchor="end" font-family="Helvetica Neue, Arial, sans-serif" font-size="16" fill="#1f2937">TONYBET</text><rect x="200" y="404" width="21.433258699735596" height="24" rx="4" fill="#2563eb"/><text x="1124" y="421" font-family="Helvetica Neue, Arial, sans-serif" font-size="15" fill="#334155">$19.697.342</text><text x="186" y="468" text-anchor="end" font-family="Helvetica Neue, Arial, sans-serif" font-size="16" fill="#1f2937">BETSSON</text><rect x="200" y="452" width="4.074667453308575" height="24" rx="4" fill="#f97316"/><rect x="204.07466745330856" y="452" width="2.328950793639892" height="24" rx="4" fill="#2563eb"/><text x="1124" y="469" font-family="Helvetica Neue, Arial, sans-serif" font-size="15" fill="#334155">$5.884.978</text><text x="186" y="516" text-anchor="end" font-family="Helvetica Neue, Arial, sans-serif" font-size="16" fill="#1f2937">APUESTAS ROYAL</text><rect x="200" y="500" width="4.614115277352592" height="24" rx="4" fill="#f97316"/><text x="1124" y="517" font-family="Helvetica Neue, Arial, sans-serif" font-size="15" fill="#334155">$4.240.410</text><text x="186" y="564" text-anchor="end" font-family="Helvetica Neue, Arial, sans-serif" font-size="16" fill="#1f2937">JUEGA EN LINEA</text><rect x="200" y="548" width="0.7472870902154505" height="24" rx="4" fill="#f97316"/><rect x="200.74728709021545" y="548" width="0.16756900738396768" height="24" rx="4" fill="#2563eb"/><text x="1124" y="565" font-family="Helvetica Neue, Arial, sans-serif" font-size="15" fill="#334155">$840.760</text></svg>