<svg xmlns="http://www.w3.org/2000/svg" width="1280" height="760" viewBox="0 0 1280 760" role="img" aria-labelledby="title desc"><title id="title">Inversion mensual por marca, lineas</title><desc id="desc">Lineas con la evolucion mensual de la inversion total por marca.</desc><rect width="100%" height="100%" fill="#f6f2e9"/><text x="48" y="52" font-family="Georgia, serif" font-size="34" font-weight="700" fill="#1f2937">Evolucion mensual por marca</text><text x="48" y="82" font-family="Georgia, serif" font-size="18" fill="#5f6b7a">Serie mensual de inversion neta total, en CLP.</text><line x1="82" y1="690.0" x2="1060" y2="690.0" stroke="#e8e3d8" stroke-width="1"/><text x="70" y="694.0" text-anchor="end" font-family="Georgia, serif" font-size="14" fill="#64748b">$0</text><line x1="82" y1="537.5" x2="1060" y2="537.5" stroke="#e8e3d8" stroke-width="1"/><text x="70" y="541.5" text-anchor="end" font-family="Georgia, serif" font-size="14" fill="#64748b">$71.1 M</text><line x1="82" y1="385.0" x2="1060" y2="385.0" stroke="#e8e3d8" stroke-width="1"/><text x="70" y="389.0" text-anchor="end" font-family="Georgia, serif" font-size="14" fill="#64748b">$142.3 M</text><line x1="82" y1="232.5" x2="1060" y2="232.5" stroke="#e8e3d8" stroke-width="1"/><text x="70" y="236.5" text-anchor="end" font-family="Georgia, serif" font-size="14" fill="#64748b">$213.4 M</text><line x1="82" y1="80.0" x2="1060" y2="80.0" stroke="#e8e3d8" stroke-width="1"/><text x="70" y="84.0" text-anchor="end" font-family="Georgia, serif" font-size="14" fill="#64748b">$284.6 M</text><line x1="82.0" y1="80" x2="82.0" y2="690" stroke="#efeadd" stroke-width="1"/><text x="82.0" y="734" text-anchor="middle" font-family="Georgia, serif" font-size="15" fill="#64748b">2026-01</text><line x1="1060.0" y1="80" x2="1060.0" y2="690" stroke="#efeadd" stroke-width="1"/><text x="1060.0" y="734" text-anchor="middle" font-family="Georgia, serif" font-size="15" fill="#64748b">2026-02</text><polyline fill="none" stroke="#8b1e3f" stroke-width="3" points="82.0,98.20730065510907 1060.0,80.0"/><circle cx="82.0" cy="98.20730065510907" r="4.5" fill="#8b1e3f"/><circle cx="1060.0" cy="80.0" r="4.5" fill="#8b1e3f"/><text x="1072.0" y="85.0" font-family="Georgia, serif" font-size="14" font-weight="700" fill="#8b1e3f">BETANO</text><rect x="1080" y="104" width="14" height="14" rx="7" fill="#8b1e3f"/><text x="1102" y="116" font-family="Georgia, serif" font-size="15" fill="#334155">BETANO</text><polyline fill="none" stroke="#0b6e4f" stroke-width="3" points="82.0,305.28921132189464 1060.0,269.26732709551857"/><circle cx="82.0" cy="305.28921132189464" r="4.5" fill="#0b6e4f"/><circle cx="1060.0" cy="269.26732709551857" r="4.5" fill="#0b6e4f"/><text x="1072.0" y="274.26732709551857" font-family="Georgia, serif" font-size="14" font-weight="700" fill="#0b6e4f">EPICBET</text><rect x="1080" y="132" width="14" height="14" rx="7" fill="#0b6e4f"/><text x="1102" y="144" font-family="Georgia, serif" font-size="15" fill="#334155">EPICBET</text><polyline fill="none" stroke="#2563eb" stroke-width="3" points="82.0,371.7755751094798 1060.0,345.4577053119011"/><circle cx="82.0" cy="371.7755751094798" r="4.5" fill="#2563eb"/><circle cx="1060.0" cy="345.4577053119011" r="4.5" fill="#2563eb"/><text x="1072.0" y="350.4577053119011" font-family="Georgia, serif" font-size="14" font-weight="700" fill="#2563eb">JUGABET</text><rect x="1080" y="160" width="14" height="14" rx="7" fill="#2563eb"/><text x="1102" y="172" font-family="Georgia, serif" font-size="15" fill="#334155">JUGABET</text><polyline fill="none" stroke="#f97316" stroke-width="3" points="82.0,594.6940269670428 1060.0,568.8248782064759"/><circle cx="82.0" cy="594.6940269670428" r="4.5" fill="#f97316"/><circle cx="1060.0" cy="568.8248782064759" r="4.5" fill="#f97316"/><text x="1072.0" y="573.8248782064759" font-family="Georgia, serif" font-size="14" font-weight="700" fill="#f97316">COOLBET</text><rect x="1080" y="188" width="14" height="14" rx="7" fill="#f97316"/><text x="1102" y="200" font-family="Georgia, serif" font-size="15" fill="#334155">COOLBET</text><polyline fill="none" stroke="#7c3aed" stroke-width="3" points="82.0,624.6042126366406 1060.0,635.456285953799"/><circle cx="82.0" cy="624.6042126366406" r="4.5" fill="#7c3aed"/><circle cx="1060.0" cy="635.456285953799" r="4.5" fill="#7c3aed"/><text x="1072.0" y="640.456285953799" font-family="Georgia, serif" font-size="14" font-weight="700" fill="#7c3aed">LATAMWIN</text><rect x="1080" y="216" width="14" height="14" rx="7" fill="#7c3aed"/><text x="1102" y="228" font-family="Georgia, serif" font-size="15" fill="#334155">LATAMWIN</text><polyline fill="none" stroke="#b91c1c" stroke-width="3" points="82.0,672.385674813656 1060.0,672.7753097462273"/><circle cx="82.0" cy="672.385674813656" r="4.5" fill="#b91c1c"/><circle cx="1060.0" cy="672.7753097462273" r="4.5" fill="#b91c1c"/><text x="1072.0" y="677.7753097462273" font-family="Georgia, serif" font-size="14" font-weight="700" fill="#b91c1c">ROJABET</text><rect x="1080" y="244" width="14" height="14" rx="7" fill="#b91c1c"/><text x="1102" y="256" font-family="Georgia, serif" font-size="15" fill="#334155">ROJABET</text><polyline fill="none" stroke="#0f766e" stroke-width="3" points="82.0,674.5615335421771 1060.0,671.7578103784527"/><circle cx="82.0" cy="674.5615335421771" r="4.5" fill="#0f766e"/><circle cx="1060.0" cy="671.7578103784527" r="4.5" fill="#0f766e"/><text x="1072.0" y="676.7578103784527" font-family="Georgia, serif" font-size="14" font-weight="700" fill="#0f766e">TONYBET</text><rect x="1080" y="272" width="14" height="14" rx="7" fill="#0f766e"/><text x="1102" y="284" font-family="Georgia, serif" font-size="15" fill="#334155">TONYBET</text><polyline fill="none" stroke="#475569" stroke-width="3" points="82.0,683.2894324211147 1060.0,687.0541126517841"/><circle cx="82.0" cy="683.2894324211147" r="4.5" fill="#475569"/><circle cx="1060.0" cy="687.0541126517841" r="4.5" fill="#475569"/><text x="1072.0" y="692.0541126517841" font-family="Georgia, serif" font-size="14" font-weight="700" fill="#475569">BETSSON</text><rect x="1080" y="300" width="14" height="14" rx="7" fill="#475569"/><text x="1102" y="312" font-family="Georgia, serif" font-size="15" fill="#334155">BETSSON</text><polyline fill="none" stroke="#d97706" stroke-width="3" points="82.0,689.5454919989247 1060.0,686.6301841352363"/><circle cx="82.0" cy="689.5454919989247" r="4.5" fill="#d97706"/><circle cx="1060.0" cy="686.6301841352363" r="4.5" fill="#d97706"/><text x="1072.0" y="691.6301841352363" font-family="Georgia, serif" font-size="14" font-weight="700" fill="#d97706">APUESTAS ROYAL</text><rect x="1080" y="328" width="14" height="14" rx="7" fill="#d97706"/><text x="1102" y="340" font-family="Georgia, serif" font-size="15" fill="#334155">APUESTAS ROYAL</text><polyline fill="none" stroke="#4f46e5" stroke-width="3" points="82.0,689.4837353754468 1060.0,689.2221496605632"/><circle cx="82.0" cy="689.4837353754468" r="4.5" fill="#4f46e5"/><circle cx="1060.0" cy="689.2221496605632" r="4.5" fill="#4f46e5"/><text x="1072.0" y="694.2221496605632" font-family="Georgia, serif" font-size="14" font-weight="700" fill="#4f46e5">JUEGA EN LINEA</text><rect x="1080" y="356" width="14" height="14" rx="7" fill="#4f46e5"/><text x="1102" y="368" font-family="Georgia, serif" font-size="15" fill="#334155">JUEGA EN LINEA</text></svg>