<svg xmlns="http://www.w3.org/2000/svg" width="1280" height="900" viewBox="0 0 1280 900" role="img" aria-labelledby="title desc"><title id="title">Evolucion semanal estimada de la inversion por marca</title><desc id="desc">Lineas con la evolucion semanal de la inversion estimada total por marca.</desc><rect width="100%" height="100%" fill="#f6f2e9"/><text x="48" y="52" font-family="Helvetica Neue, Arial, sans-serif" font-size="34" font-weight="700" fill="#1f2937">Evolucion semanal estimada de la inversion por marca</text><text x="48" y="82" font-family="Helvetica Neue, Arial, sans-serif" font-size="18" fill="#5f6b7a">Serie semanal en CLP valorizada con tarifas estandar a partir de observacion de pauta.</text><line x1="82" y1="710.0" x2="1232" y2="710.0" stroke="#e8e3d8" stroke-width="1"/><text x="70" y="714.0" text-anchor="end" font-family="Helvetica Neue, Arial, sans-serif" font-size="14" fill="#64748b">$0</text><line x1="82" y1="552.5" x2="1232" y2="552.5" stroke="#e8e3d8" stroke-width="1"/><text x="70" y="556.5" text-anchor="end" font-family="Helvetica Neue, Arial, sans-serif" font-size="14" fill="#64748b">$28.5 M</text><line x1="82" y1="395.0" x2="1232" y2="395.0" stroke="#e8e3d8" stroke-width="1"/><text x="70" y="399.0" text-anchor="end" font-family="Helvetica Neue, Arial, sans-serif" font-size="14" fill="#64748b">$56.9 M</text><line x1="82" y1="237.5" x2="1232" y2="237.5" stroke="#e8e3d8" stroke-width="1"/><text x="70" y="241.5" text-anchor="end" font-family="Helvetica Neue, Arial, sans-serif" font-size="14" fill="#64748b">$85.4 M</text><line x1="82" y1="80.0" x2="1232" y2="80.0" stroke="#e8e3d8" stroke-width="1"/><text x="70" y="84.0" text-anchor="end" font-family="Helvetica Neue, Arial, sans-serif" font-size="14" fill="#64748b">$113.9 M</text><line x1="82.0" y1="80" x2="82.0" y2="710" stroke="#efeadd" stroke-width="1"/><text x="82.0" y="874" text-anchor="middle" font-family="Helvetica Neue, Arial, sans-serif" font-size="15" fill="#64748b">2026-01-04</text><line x1="177.83333333333331" y1="80" x2="177.83333333333331" y2="710" stroke="#efeadd" stroke-width="1"/><text x="177.83333333333331" y="874" text-anchor="middle" font-family="Helvetica Neue, Arial, sans-serif" font-size="15" fill="#64748b">2026-01-11</text><line x1="273.66666666666663" y1="80" x2="273.66666666666663" y2="710" stroke="#efeadd" stroke-width="1"/><text x="273.66666666666663" y="874" text-anchor="middle" font-family="Helvetica Neue, Arial, sans-serif" font-size="15" fill="#64748b">2026-01-18</text><line x1="369.5" y1="80" x2="369.5" y2="710" stroke="#efeadd" stroke-width="1"/><text x="369.5" y="874" text-anchor="middle" font-family="Helvetica Neue, Arial, sans-serif" font-size="15" fill="#64748b">2026-01-25</text><line x1="465.3333333333333" y1="80" x2="465.3333333333333" y2="710" stroke="#efeadd" stroke-width="1"/><text x="465.3333333333333" y="874" text-anchor="middle" font-family="Helvetica Neue, Arial, sans-serif" font-size="15" fill="#64748b">2026-02-01</text><line x1="561.1666666666667" y1="80" x2="561.1666666666667" y2="710" stroke="#efeadd" stroke-width="1"/><text x="561.1666666666667" y="874" text-anchor="middle" font-family="Helvetica Neue, Arial, sans-serif" font-size="15" fill="#64748b">2026-02-08</text><line x1="657.0" y1="80" x2="657.0" y2="710" stroke="#efeadd" stroke-width="1"/><text x="657.0" y="874" text-anchor="middle" font-family="Helvetica Neue, Arial, sans-serif" font-size="15" fill="#64748b">2026-02-15</text><line x1="752.8333333333334" y1="80" x2="752.8333333333334" y2="710" stroke="#efeadd" stroke-width="1"/><text x="752.8333333333334" y="874" text-anchor="middle" font-family="Helvetica Neue, Arial, sans-serif" font-size="15" fill="#64748b">2026-02-22</text><line x1="848.6666666666666" y1="80" x2="848.6666666666666" y2="710" stroke="#efeadd" stroke-width="1"/><text x="848.6666666666666" y="874" text-anchor="middle" font-family="Helvetica Neue, Arial, sans-serif" font-size="15" fill="#64748b">2026-03-01</text><line x1="944.5" y1="80" x2="944.5" y2="710" stroke="#efeadd" stroke-width="1"/><text x="944.5" y="874" text-anchor="middle" font-family="Helvetica Neue, Arial, sans-serif" font-size="15" fill="#64748b">2026-03-08</text><line x1="1040.3333333333335" y1="80" x2="1040.3333333333335" y2="710" stroke="#efeadd" stroke-width="1"/><text x="1040.3333333333335" y="874" text-anchor="middle" font-family="Helvetica Neue, Arial, sans-serif" font-size="15" fill="#64748b">2026-03-15</text><line x1="1136.1666666666667" y1="80" x2="1136.1666666666667" y2="710" stroke="#efeadd" stroke-width="1"/><text x="1136.1666666666667" y="874" text-anchor="middle" font-family="Helvetica Neue, Arial, sans-serif" font-size="15" fill="#64748b">2026-03-22</text><line x1="1232.0" y1="80" x2="1232.0" y2="710" stroke="#efeadd" stroke-width="1"/><text x="1232.0" y="874" text-anchor="middle" font-family="Helvetica Neue, Arial, sans-serif" font-size="15" fill="#64748b">2026-03-29</text><polyline fill="none" stroke="#8b1e3f" stroke-width="3" points="82.0,606.5042240694754 177.83333333333331,346.6377038298767 273.66666666666663,392.0942666302173 369.5,317.75321675064197 465.3333333333333,314.87386202421436 561.1666666666667,180.066375225304 657.0,419.3922566391612 752.8333333333334,259.01479391306634 848.6666666666666,388.634561227447 944.5,213.37907179682702 1040.3333333333335,300.7064868082352 1136.1666666666667,154.81342609994942 1232.0,226.86188369912577"/><circle cx="82.0" cy="606.5042240694754" r="4.5" fill="#8b1e3f"/><circle cx="177.83333333333331" cy="346.6377038298767" r="4.5" fill="#8b1e3f"/><circle cx="273.66666666666663" cy="392.0942666302173" r="4.5" fill="#8b1e3f"/><circle cx="369.5" cy="317.75321675064197" r="4.5" fill="#8b1e3f"/><circle cx="465.3333333333333" cy="314.87386202421436" r="4.5" fill="#8b1e3f"/><circle cx="561.1666666666667" cy="180.066375225304" r="4.5" fill="#8b1e3f"/><circle cx="657.0" cy="419.3922566391612" r="4.5" fill="#8b1e3f"/><circle cx="752.8333333333334" cy="259.01479391306634" r="4.5" fill="#8b1e3f"/><circle cx="848.6666666666666" cy="388.634561227447" r="4.5" fill="#8b1e3f"/><circle cx="944.5" cy="213.37907179682702" r="4.5" fill="#8b1e3f"/><circle cx="1040.3333333333335" cy="300.7064868082352" r="4.5" fill="#8b1e3f"/><circle cx="1136.1666666666667" cy="154.81342609994942" r="4.5" fill="#8b1e3f"/><circle cx="1232.0" cy="226.86188369912577" r="4.5" fill="#8b1e3f"/><rect x="70" y="778" width="14" height="14" rx="7" fill="#8b1e3f"/><text x="92" y="790" font-family="Helvetica Neue, Arial, sans-serif" font-size="15" fill="#334155">BETANO</text><polyline fill="none" stroke="#0b6e4f" stroke-width="3" points="82.0,710.0 177.83333333333331,452.3614971506319 273.66666666666663,408.0618883773461 369.5,454.79125417240095 465.3333333333333,531.906395343232 561.1666666666667,80.0 657.0,588.2324229435732 752.8333333333334,466.8981091507834 848.6666666666666,618.0083915050893 944.5,649.7828562927095 1040.3333333333335,655.0454029715233 1136.1666666666667,694.5974920840349 1232.0,670.1431374748263"/><circle cx="82.0" cy="710.0" r="4.5" fill="#0b6e4f"/><circle cx="177.83333333333331" cy="452.3614971506319" r="4.5" fill="#0b6e4f"/><circle cx="273.66666666666663" cy="408.0618883773461" r="4.5" fill="#0b6e4f"/><circle cx="369.5" cy="454.79125417240095" r="4.5" fill="#0b6e4f"/><circle cx="465.3333333333333" cy="531.906395343232" r="4.5" fill="#0b6e4f"/><circle cx="561.1666666666667" cy="80.0" r="4.5" fill="#0b6e4f"/><circle cx="657.0" cy="588.2324229435732" r="4.5" fill="#0b6e4f"/><circle cx="752.8333333333334" cy="466.8981091507834" r="4.5" fill="#0b6e4f"/><circle cx="848.6666666666666" cy="618.0083915050893" r="4.5" fill="#0b6e4f"/><circle cx="944.5" cy="649.7828562927095" r="4.5" fill="#0b6e4f"/><circle cx="1040.3333333333335" cy="655.0454029715233" r="4.5" fill="#0b6e4f"/><circle cx="1136.1666666666667" cy="694.5974920840349" r="4.5" fill="#0b6e4f"/><circle cx="1232.0" cy="670.1431374748263" r="4.5" fill="#0b6e4f"/><rect x="430" y="778" width="14" height="14" rx="7" fill="#0b6e4f"/><text x="452" y="790" font-family="Helvetica Neue, Arial, sans-serif" font-size="15" fill="#334155">EPICBET</text><polyline fill="none" stroke="#2563eb" stroke-width="3" points="82.0,667.9081638870152 177.83333333333331,659.9835737910502 273.66666666666663,553.4584092723171 369.5,328.32609767881775 465.3333333333333,503.26512216029255 561.1666666666667,401.916898980522 657.0,643.7495952048663 752.8333333333334,328.2518441750124 848.6666666666666,583.2935077812555 944.5,641.7706425130009 1040.3333333333335,659.3291754446957 1136.1666666666667,643.3763029805164 1232.0,662.5179942267179"/><circle cx="82.0" cy="667.9081638870152" r="4.5" fill="#2563eb"/><circle cx="177.83333333333331" cy="659.9835737910502" r="4.5" fill="#2563eb"/><circle cx="273.66666666666663" cy="553.4584092723171" r="4.5" fill="#2563eb"/><circle cx="369.5" cy="328.32609767881775" r="4.5" fill="#2563eb"/><circle cx="465.3333333333333" cy="503.26512216029255" r="4.5" fill="#2563eb"/><circle cx="561.1666666666667" cy="401.916898980522" r="4.5" fill="#2563eb"/><circle cx="657.0" cy="643.7495952048663" r="4.5" fill="#2563eb"/><circle cx="752.8333333333334" cy="328.2518441750124" r="4.5" fill="#2563eb"/><circle cx="848.6666666666666" cy="583.2935077812555" r="4.5" fill="#2563eb"/><circle cx="944.5" cy="641.7706425130009" r="4.5" fill="#2563eb"/><circle cx="1040.3333333333335" cy="659.3291754446957" r="4.5" fill="#2563eb"/><circle cx="1136.1666666666667" cy="643.3763029805164" r="4.5" fill="#2563eb"/><circle cx="1232.0" cy="662.5179942267179" r="4.5" fill="#2563eb"/><rect x="790" y="778" width="14" height="14" rx="7" fill="#2563eb"/><text x="812" y="790" font-family="Helvetica Neue, Arial, sans-serif" font-size="15" fill="#334155">JUGABET</text><polyline fill="none" stroke="#f97316" stroke-width="3" points="82.0,684.1757902412429 177.83333333333331,661.6004180421891 273.66666666666663,646.8576154552385 369.5,643.4441512973342 465.3333333333333,661.1524546169162 561.1666666666667,648.2684429802645 657.0,660.2997826787521 752.8333333333334,665.8821091103231 848.6666666666666,545.9511180683248 944.5,593.9228100699958 1040.3333333333335,595.1201974656794 1136.1666666666667,562.1251684857375 1232.0,490.1549323193747"/><circle cx="82.0" cy="684.1757902412429" r="4.5" fill="#f97316"/><circle cx="177.83333333333331" cy="661.6004180421891" r="4.5" fill="#f97316"/><circle cx="273.66666666666663" cy="646.8576154552385" r="4.5" fill="#f97316"/><circle cx="369.5" cy="643.4441512973342" r="4.5" fill="#f97316"/><circle cx="465.3333333333333" cy="661.1524546169162" r="4.5" fill="#f97316"/><circle cx="561.1666666666667" cy="648.2684429802645" r="4.5" fill="#f97316"/><circle cx="657.0" cy="660.2997826787521" r="4.5" fill="#f97316"/><circle cx="752.8333333333334" cy="665.8821091103231" r="4.5" fill="#f97316"/><circle cx="848.6666666666666" cy="545.9511180683248" r="4.5" fill="#f97316"/><circle cx="944.5" cy="593.9228100699958" r="4.5" fill="#f97316"/><circle cx="1040.3333333333335" cy="595.1201974656794" r="4.5" fill="#f97316"/><circle cx="1136.1666666666667" cy="562.1251684857375" r="4.5" fill="#f97316"/><circle cx="1232.0" cy="490.1549323193747" r="4.5" fill="#f97316"/><rect x="70" y="810" width="14" height="14" rx="7" fill="#f97316"/><text x="92" y="822" font-family="Helvetica Neue, Arial, sans-serif" font-size="15" fill="#334155">COOLBET</text><polyline fill="none" stroke="#7c3aed" stroke-width="3" points="82.0,709.6202225452606 177.83333333333331,706.9133699244272 273.66666666666663,669.7960592157333 369.5,669.818256185985 465.3333333333333,618.9030211767969 561.1666666666667,669.7842945504475 657.0,670.1834524101976 752.8333333333334,673.2639537168066 848.6666666666666,691.8623183152802 944.5,627.4752137849242 1040.3333333333335,685.1994086660976 1136.1666666666667,640.3200210261771 1232.0,671.109209174243"/><circle cx="82.0" cy="709.6202225452606" r="4.5" fill="#7c3aed"/><circle cx="177.83333333333331" cy="706.9133699244272" r="4.5" fill="#7c3aed"/><circle cx="273.66666666666663" cy="669.7960592157333" r="4.5" fill="#7c3aed"/><circle cx="369.5" cy="669.818256185985" r="4.5" fill="#7c3aed"/><circle cx="465.3333333333333" cy="618.9030211767969" r="4.5" fill="#7c3aed"/><circle cx="561.1666666666667" cy="669.7842945504475" r="4.5" fill="#7c3aed"/><circle cx="657.0" cy="670.1834524101976" r="4.5" fill="#7c3aed"/><circle cx="752.8333333333334" cy="673.2639537168066" r="4.5" fill="#7c3aed"/><circle cx="848.6666666666666" cy="691.8623183152802" r="4.5" fill="#7c3aed"/><circle cx="944.5" cy="627.4752137849242" r="4.5" fill="#7c3aed"/><circle cx="1040.3333333333335" cy="685.1994086660976" r="4.5" fill="#7c3aed"/><circle cx="1136.1666666666667" cy="640.3200210261771" r="4.5" fill="#7c3aed"/><circle cx="1232.0" cy="671.109209174243" r="4.5" fill="#7c3aed"/><rect x="430" y="810" width="14" height="14" rx="7" fill="#7c3aed"/><text x="452" y="822" font-family="Helvetica Neue, Arial, sans-serif" font-size="15" fill="#334155">LATAMWIN</text><polyline fill="none" stroke="#b91c1c" stroke-width="3" points="82.0,706.9409093354045 177.83333333333331,706.1735934796145 273.66666666666663,698.3270831501513 369.5,695.4311383084766 465.3333333333333,696.5271078372466 561.1666666666667,698.9790468937329 657.0,698.466204889088 752.8333333333334,700.1896383530199 848.6666666666666,697.6327024883127 944.5,687.4084661142749 1040.3333333333335,682.3105698752006 1136.1666666666667,686.5259198432249 1232.0,687.2553381628934"/><circle cx="82.0" cy="706.9409093354045" r="4.5" fill="#b91c1c"/><circle cx="177.83333333333331" cy="706.1735934796145" r="4.5" fill="#b91c1c"/><circle cx="273.66666666666663" cy="698.3270831501513" r="4.5" fill="#b91c1c"/><circle cx="369.5" cy="695.4311383084766" r="4.5" fill="#b91c1c"/><circle cx="465.3333333333333" cy="696.5271078372466" r="4.5" fill="#b91c1c"/><circle cx="561.1666666666667" cy="698.9790468937329" r="4.5" fill="#b91c1c"/><circle cx="657.0" cy="698.466204889088" r="4.5" fill="#b91c1c"/><circle cx="752.8333333333334" cy="700.1896383530199" r="4.5" fill="#b91c1c"/><circle cx="848.6666666666666" cy="697.6327024883127" r="4.5" fill="#b91c1c"/><circle cx="944.5" cy="687.4084661142749" r="4.5" fill="#b91c1c"/><circle cx="1040.3333333333335" cy="682.3105698752006" r="4.5" fill="#b91c1c"/><circle cx="1136.1666666666667" cy="686.5259198432249" r="4.5" fill="#b91c1c"/><circle cx="1232.0" cy="687.2553381628934" r="4.5" fill="#b91c1c"/><rect x="790" y="810" width="14" height="14" rx="7" fill="#b91c1c"/><text x="812" y="822" font-family="Helvetica Neue, Arial, sans-serif" font-size="15" fill="#334155">ROJABET</text><polyline fill="none" stroke="#0f766e" stroke-width="3" points="82.0,704.1369505705453 177.83333333333331,701.1794565014277 273.66666666666663,701.6675818005006 369.5,702.1127117889098 465.3333333333333,695.9691094607155 561.1666666666667,689.5804993125703 657.0,693.9959146940215 752.8333333333334,706.3050577699629 848.6666666666666,706.6088565560175 944.5,704.2779912490938 1040.3333333333335,703.5083192297458 1136.1666666666667,701.6981711029595 1232.0,700.3136945628912"/><circle cx="82.0" cy="704.1369505705453" r="4.5" fill="#0f766e"/><circle cx="177.83333333333331" cy="701.1794565014277" r="4.5" fill="#0f766e"/><circle cx="273.66666666666663" cy="701.6675818005006" r="4.5" fill="#0f766e"/><circle cx="369.5" cy="702.1127117889098" r="4.5" fill="#0f766e"/><circle cx="465.3333333333333" cy="695.9691094607155" r="4.5" fill="#0f766e"/><circle cx="561.1666666666667" cy="689.5804993125703" r="4.5" fill="#0f766e"/><circle cx="657.0" cy="693.9959146940215" r="4.5" fill="#0f766e"/><circle cx="752.8333333333334" cy="706.3050577699629" r="4.5" fill="#0f766e"/><circle cx="848.6666666666666" cy="706.6088565560175" r="4.5" fill="#0f766e"/><circle cx="944.5" cy="704.2779912490938" r="4.5" fill="#0f766e"/><circle cx="1040.3333333333335" cy="703.5083192297458" r="4.5" fill="#0f766e"/><circle cx="1136.1666666666667" cy="701.6981711029595" r="4.5" fill="#0f766e"/><circle cx="1232.0" cy="700.3136945628912" r="4.5" fill="#0f766e"/><rect x="70" y="842" width="14" height="14" rx="7" fill="#0f766e"/><text x="92" y="854" font-family="Helvetica Neue, Arial, sans-serif" font-size="15" fill="#334155">TONYBET</text><polyline fill="none" stroke="#475569" stroke-width="3" points="82.0,708.5925194729606 177.83333333333331,706.6593523815224 273.66666666666663,706.0267845869708 369.5,706.009165136806 465.3333333333333,705.301350514765 561.1666666666667,704.7374824178202 657.0,709.1156429889887 752.8333333333334,709.1783353933132 848.6666666666666,709.217571595869 944.5,707.9938147394181 1040.3333333333335,706.1762210273678 1136.1666666666667,708.4379477532347 1232.0,709.1536917612273"/><circle cx="82.0" cy="708.5925194729606" r="4.5" fill="#475569"/><circle cx="177.83333333333331" cy="706.6593523815224" r="4.5" fill="#475569"/><circle cx="273.66666666666663" cy="706.0267845869708" r="4.5" fill="#475569"/><circle cx="369.5" cy="706.009165136806" r="4.5" fill="#475569"/><circle cx="465.3333333333333" cy="705.301350514765" r="4.5" fill="#475569"/><circle cx="561.1666666666667" cy="704.7374824178202" r="4.5" fill="#475569"/><circle cx="657.0" cy="709.1156429889887" r="4.5" fill="#475569"/><circle cx="752.8333333333334" cy="709.1783353933132" r="4.5" fill="#475569"/><circle cx="848.6666666666666" cy="709.217571595869" r="4.5" fill="#475569"/><circle cx="944.5" cy="707.9938147394181" r="4.5" fill="#475569"/><circle cx="1040.3333333333335" cy="706.1762210273678" r="4.5" fill="#475569"/><circle cx="1136.1666666666667" cy="708.4379477532347" r="4.5" fill="#475569"/><circle cx="1232.0" cy="709.1536917612273" r="4.5" fill="#475569"/><rect x="430" y="842" width="14" height="14" rx="7" fill="#475569"/><text x="452" y="854" font-family="Helvetica Neue, Arial, sans-serif" font-size="15" fill="#334155">BETSSON</text><polyline fill="none" stroke="#d97706" stroke-width="3" points="82.0,709.707706056246 177.83333333333331,709.7433853888957 273.66666666666663,709.98349346843 369.5,709.5830994442664 465.3333333333333,709.6632977333759 561.1666666666667,709.2132292274767 657.0,708.4118548211247 752.8333333333334,706.6792277058961 848.6666666666666,706.3145683311772 944.5,705.5247938566959 1040.3333333333335,705.1037943264672 1136.1666666666667,706.6149606536907 1232.0,706.6683911457936"/><circle cx="82.0" cy="709.707706056246" r="4.5" fill="#d97706"/><circle cx="177.83333333333331" cy="709.7433853888957" r="4.5" fill="#d97706"/><circle cx="273.66666666666663" cy="709.98349346843" r="4.5" fill="#d97706"/><circle cx="369.5" cy="709.5830994442664" r="4.5" fill="#d97706"/><circle cx="465.3333333333333" cy="709.6632977333759" r="4.5" fill="#d97706"/><circle cx="561.1666666666667" cy="709.2132292274767" r="4.5" fill="#d97706"/><circle cx="657.0" cy="708.4118548211247" r="4.5" fill="#d97706"/><circle cx="752.8333333333334" cy="706.6792277058961" r="4.5" fill="#d97706"/><circle cx="848.6666666666666" cy="706.3145683311772" r="4.5" fill="#d97706"/><circle cx="944.5" cy="705.5247938566959" r="4.5" fill="#d97706"/><circle cx="1040.3333333333335" cy="705.1037943264672" r="4.5" fill="#d97706"/><circle cx="1136.1666666666667" cy="706.6149606536907" r="4.5" fill="#d97706"/><circle cx="1232.0" cy="706.6683911457936" r="4.5" fill="#d97706"/><rect x="790" y="842" width="14" height="14" rx="7" fill="#d97706"/><text x="812" y="854" font-family="Helvetica Neue, Arial, sans-serif" font-size="15" fill="#334155">APUESTAS ROYAL</text><polyline fill="none" stroke="#4f46e5" stroke-width="3" points="82.0,709.7688974946602 177.83333333333331,709.7798502200318 273.66666666666663,709.6544415145274 369.5,709.6670371487048 465.3333333333333,709.7376822273513 561.1666666666667,709.5580575312578 657.0,709.1742878081204 752.8333333333334,709.6555367870646 848.6666666666666,709.5706531654351 944.5,709.4459979299928 1040.3333333333335,709.5026755179509 1136.1666666666667,709.834066210621 1232.0,710.0"/><circle cx="82.0" cy="709.7688974946602" r="4.5" fill="#4f46e5"/><circle cx="177.83333333333331" cy="709.7798502200318" r="4.5" fill="#4f46e5"/><circle cx="273.66666666666663" cy="709.6544415145274" r="4.5" fill="#4f46e5"/><circle cx="369.5" cy="709.6670371487048" r="4.5" fill="#4f46e5"/><circle cx="465.3333333333333" cy="709.7376822273513" r="4.5" fill="#4f46e5"/><circle cx="561.1666666666667" cy="709.5580575312578" r="4.5" fill="#4f46e5"/><circle cx="657.0" cy="709.1742878081204" r="4.5" fill="#4f46e5"/><circle cx="752.8333333333334" cy="709.6555367870646" r="4.5" fill="#4f46e5"/><circle cx="848.6666666666666" cy="709.5706531654351" r="4.5" fill="#4f46e5"/><circle cx="944.5" cy="709.4459979299928" r="4.5" fill="#4f46e5"/><circle cx="1040.3333333333335" cy="709.5026755179509" r="4.5" fill="#4f46e5"/><circle cx="1136.1666666666667" cy="709.834066210621" r="4.5" fill="#4f46e5"/><circle cx="1232.0" cy="710.0" r="4.5" fill="#4f46e5"/><rect x="70" y="874" width="14" height="14" rx="7" fill="#4f46e5"/><text x="92" y="886" font-family="Helvetica Neue, Arial, sans-serif" font-size="15" fill="#334155">JUEGA EN LINEA</text></svg>