<svg xmlns="http://www.w3.org/2000/svg" width="1280" height="900" viewBox="0 0 1280 900" role="img" aria-labelledby="title desc"><title id="title">Inversion mensual por marca, lineas</title><desc id="desc">Lineas con la evolucion semanal de la inversion estimada total por marca.</desc><rect width="100%" height="100%" fill="#f6f2e9"/><text x="48" y="52" font-family="Helvetica Neue, Arial, sans-serif" font-size="34" font-weight="700" fill="#1f2937">Evolucion semanal por marca</text><text x="48" y="82" font-family="Helvetica Neue, Arial, sans-serif" font-size="18" fill="#5f6b7a">Serie semanal de inversion estimada total, en CLP, valorizada con tarifas estandar.</text><line x1="82" y1="710.0" x2="1232" y2="710.0" stroke="#e8e3d8" stroke-width="1"/><text x="70" y="714.0" text-anchor="end" font-family="Helvetica Neue, Arial, sans-serif" font-size="14" fill="#64748b">$0</text><line x1="82" y1="552.5" x2="1232" y2="552.5" stroke="#e8e3d8" stroke-width="1"/><text x="70" y="556.5" text-anchor="end" font-family="Helvetica Neue, Arial, sans-serif" font-size="14" fill="#64748b">$28.5 M</text><line x1="82" y1="395.0" x2="1232" y2="395.0" stroke="#e8e3d8" stroke-width="1"/><text x="70" y="399.0" text-anchor="end" font-family="Helvetica Neue, Arial, sans-serif" font-size="14" fill="#64748b">$56.9 M</text><line x1="82" y1="237.5" x2="1232" y2="237.5" stroke="#e8e3d8" stroke-width="1"/><text x="70" y="241.5" text-anchor="end" font-family="Helvetica Neue, Arial, sans-serif" font-size="14" fill="#64748b">$85.4 M</text><line x1="82" y1="80.0" x2="1232" y2="80.0" stroke="#e8e3d8" stroke-width="1"/><text x="70" y="84.0" text-anchor="end" font-family="Helvetica Neue, Arial, sans-serif" font-size="14" fill="#64748b">$113.9 M</text><line x1="82.0" y1="80" x2="82.0" y2="710" stroke="#efeadd" stroke-width="1"/><text x="82.0" y="874" text-anchor="middle" font-family="Helvetica Neue, Arial, sans-serif" font-size="15" fill="#64748b">2026-01-04</text><line x1="186.54545454545456" y1="80" x2="186.54545454545456" y2="710" stroke="#efeadd" stroke-width="1"/><text x="186.54545454545456" y="874" text-anchor="middle" font-family="Helvetica Neue, Arial, sans-serif" font-size="15" fill="#64748b">2026-01-11</text><line x1="291.0909090909091" y1="80" x2="291.0909090909091" y2="710" stroke="#efeadd" stroke-width="1"/><text x="291.0909090909091" y="874" text-anchor="middle" font-family="Helvetica Neue, Arial, sans-serif" font-size="15" fill="#64748b">2026-01-18</text><line x1="395.6363636363636" y1="80" x2="395.6363636363636" y2="710" stroke="#efeadd" stroke-width="1"/><text x="395.6363636363636" y="874" text-anchor="middle" font-family="Helvetica Neue, Arial, sans-serif" font-size="15" fill="#64748b">2026-01-25</text><line x1="500.1818181818182" y1="80" x2="500.1818181818182" y2="710" stroke="#efeadd" stroke-width="1"/><text x="500.1818181818182" y="874" text-anchor="middle" font-family="Helvetica Neue, Arial, sans-serif" font-size="15" fill="#64748b">2026-02-01</text><line x1="604.7272727272727" y1="80" x2="604.7272727272727" y2="710" stroke="#efeadd" stroke-width="1"/><text x="604.7272727272727" y="874" text-anchor="middle" font-family="Helvetica Neue, Arial, sans-serif" font-size="15" fill="#64748b">2026-02-08</text><line x1="709.2727272727273" y1="80" x2="709.2727272727273" y2="710" stroke="#efeadd" stroke-width="1"/><text x="709.2727272727273" y="874" text-anchor="middle" font-family="Helvetica Neue, Arial, sans-serif" font-size="15" fill="#64748b">2026-02-15</text><line x1="813.8181818181819" y1="80" x2="813.8181818181819" y2="710" stroke="#efeadd" stroke-width="1"/><text x="813.8181818181819" y="874" text-anchor="middle" font-family="Helvetica Neue, Arial, sans-serif" font-size="15" fill="#64748b">2026-02-22</text><line x1="918.3636363636364" y1="80" x2="918.3636363636364" y2="710" stroke="#efeadd" stroke-width="1"/><text x="918.3636363636364" y="874" text-anchor="middle" font-family="Helvetica Neue, Arial, sans-serif" font-size="15" fill="#64748b">2026-03-01</text><line x1="1022.9090909090909" y1="80" x2="1022.9090909090909" y2="710" stroke="#efeadd" stroke-width="1"/><text x="1022.9090909090909" y="874" text-anchor="middle" font-family="Helvetica Neue, Arial, sans-serif" font-size="15" fill="#64748b">2026-03-08</text><line x1="1127.4545454545455" y1="80" x2="1127.4545454545455" y2="710" stroke="#efeadd" stroke-width="1"/><text x="1127.4545454545455" y="874" text-anchor="middle" font-family="Helvetica Neue, Arial, sans-serif" font-size="15" fill="#64748b">2026-03-15</text><line x1="1232.0" y1="80" x2="1232.0" y2="710" stroke="#efeadd" stroke-width="1"/><text x="1232.0" y="874" text-anchor="middle" font-family="Helvetica Neue, Arial, sans-serif" font-size="15" fill="#64748b">2026-03-22</text><polyline fill="none" stroke="#8b1e3f" stroke-width="3" points="82.0,606.5042240694754 186.54545454545456,346.6377038298767 291.0909090909091,392.0942666302173 395.6363636363636,317.75321675064197 500.1818181818182,314.87386202421436 604.7272727272727,180.066375225304 709.2727272727273,419.3922566391612 813.8181818181819,259.01479391306634 918.3636363636364,388.634561227447 1022.9090909090909,213.37907179682702 1127.4545454545455,300.7064868082352 1232.0,154.81342609994942"/><circle cx="82.0" cy="606.5042240694754" r="4.5" fill="#8b1e3f"/><circle cx="186.54545454545456" cy="346.6377038298767" r="4.5" fill="#8b1e3f"/><circle cx="291.0909090909091" cy="392.0942666302173" r="4.5" fill="#8b1e3f"/><circle cx="395.6363636363636" cy="317.75321675064197" r="4.5" fill="#8b1e3f"/><circle cx="500.1818181818182" cy="314.87386202421436" r="4.5" fill="#8b1e3f"/><circle cx="604.7272727272727" cy="180.066375225304" r="4.5" fill="#8b1e3f"/><circle cx="709.2727272727273" cy="419.3922566391612" r="4.5" fill="#8b1e3f"/><circle cx="813.8181818181819" cy="259.01479391306634" r="4.5" fill="#8b1e3f"/><circle cx="918.3636363636364" cy="388.634561227447" r="4.5" fill="#8b1e3f"/><circle cx="1022.9090909090909" cy="213.37907179682702" r="4.5" fill="#8b1e3f"/><circle cx="1127.4545454545455" cy="300.7064868082352" r="4.5" fill="#8b1e3f"/><circle cx="1232.0" cy="154.81342609994942" r="4.5" fill="#8b1e3f"/><rect x="70" y="778" width="14" height="14" rx="7" fill="#8b1e3f"/><text x="92" y="790" font-family="Helvetica Neue, Arial, sans-serif" font-size="15" fill="#334155">BETANO</text><polyline fill="none" stroke="#0b6e4f" stroke-width="3" points="82.0,710.0 186.54545454545456,452.3614971506319 291.0909090909091,408.0618883773461 395.6363636363636,454.79125417240095 500.1818181818182,531.906395343232 604.7272727272727,80.0 709.2727272727273,588.2324229435732 813.8181818181819,466.8981091507834 918.3636363636364,618.0083915050893 1022.9090909090909,649.7828562927095 1127.4545454545455,655.0454029715233 1232.0,694.5974920840349"/><circle cx="82.0" cy="710.0" r="4.5" fill="#0b6e4f"/><circle cx="186.54545454545456" cy="452.3614971506319" r="4.5" fill="#0b6e4f"/><circle cx="291.0909090909091" cy="408.0618883773461" r="4.5" fill="#0b6e4f"/><circle cx="395.6363636363636" cy="454.79125417240095" r="4.5" fill="#0b6e4f"/><circle cx="500.1818181818182" cy="531.906395343232" r="4.5" fill="#0b6e4f"/><circle cx="604.7272727272727" cy="80.0" r="4.5" fill="#0b6e4f"/><circle cx="709.2727272727273" cy="588.2324229435732" r="4.5" fill="#0b6e4f"/><circle cx="813.8181818181819" cy="466.8981091507834" r="4.5" fill="#0b6e4f"/><circle cx="918.3636363636364" cy="618.0083915050893" r="4.5" fill="#0b6e4f"/><circle cx="1022.9090909090909" cy="649.7828562927095" r="4.5" fill="#0b6e4f"/><circle cx="1127.4545454545455" cy="655.0454029715233" r="4.5" fill="#0b6e4f"/><circle cx="1232.0" cy="694.5974920840349" r="4.5" fill="#0b6e4f"/><rect x="430" y="778" width="14" height="14" rx="7" fill="#0b6e4f"/><text x="452" y="790" font-family="Helvetica Neue, Arial, sans-serif" font-size="15" fill="#334155">EPICBET</text><polyline fill="none" stroke="#2563eb" stroke-width="3" points="82.0,667.9081638870152 186.54545454545456,659.9835737910502 291.0909090909091,553.4584092723171 395.6363636363636,328.32609767881775 500.1818181818182,503.26512216029255 604.7272727272727,401.916898980522 709.2727272727273,643.7495952048663 813.8181818181819,328.2518441750124 918.3636363636364,583.2935077812555 1022.9090909090909,641.7706425130009 1127.4545454545455,659.3291754446957 1232.0,643.3763029805164"/><circle cx="82.0" cy="667.9081638870152" r="4.5" fill="#2563eb"/><circle cx="186.54545454545456" cy="659.9835737910502" r="4.5" fill="#2563eb"/><circle cx="291.0909090909091" cy="553.4584092723171" r="4.5" fill="#2563eb"/><circle cx="395.6363636363636" cy="328.32609767881775" r="4.5" fill="#2563eb"/><circle cx="500.1818181818182" cy="503.26512216029255" r="4.5" fill="#2563eb"/><circle cx="604.7272727272727" cy="401.916898980522" r="4.5" fill="#2563eb"/><circle cx="709.2727272727273" cy="643.7495952048663" r="4.5" fill="#2563eb"/><circle cx="813.8181818181819" cy="328.2518441750124" r="4.5" fill="#2563eb"/><circle cx="918.3636363636364" cy="583.2935077812555" r="4.5" fill="#2563eb"/><circle cx="1022.9090909090909" cy="641.7706425130009" r="4.5" fill="#2563eb"/><circle cx="1127.4545454545455" cy="659.3291754446957" r="4.5" fill="#2563eb"/><circle cx="1232.0" cy="643.3763029805164" r="4.5" fill="#2563eb"/><rect x="790" y="778" width="14" height="14" rx="7" fill="#2563eb"/><text x="812" y="790" font-family="Helvetica Neue, Arial, sans-serif" font-size="15" fill="#334155">JUGABET</text><polyline fill="none" stroke="#f97316" stroke-width="3" points="82.0,684.1757902412429 186.54545454545456,661.6004180421891 291.0909090909091,646.8576154552385 395.6363636363636,643.4441512973342 500.1818181818182,661.1524546169162 604.7272727272727,648.2684429802645 709.2727272727273,660.2997826787521 813.8181818181819,665.8821091103231 918.3636363636364,545.9511180683248 1022.9090909090909,593.9228100699958 1127.4545454545455,595.1201974656794 1232.0,562.1251684857375"/><circle cx="82.0" cy="684.1757902412429" r="4.5" fill="#f97316"/><circle cx="186.54545454545456" cy="661.6004180421891" r="4.5" fill="#f97316"/><circle cx="291.0909090909091" cy="646.8576154552385" r="4.5" fill="#f97316"/><circle cx="395.6363636363636" cy="643.4441512973342" r="4.5" fill="#f97316"/><circle cx="500.1818181818182" cy="661.1524546169162" r="4.5" fill="#f97316"/><circle cx="604.7272727272727" cy="648.2684429802645" r="4.5" fill="#f97316"/><circle cx="709.2727272727273" cy="660.2997826787521" r="4.5" fill="#f97316"/><circle cx="813.8181818181819" cy="665.8821091103231" r="4.5" fill="#f97316"/><circle cx="918.3636363636364" cy="545.9511180683248" r="4.5" fill="#f97316"/><circle cx="1022.9090909090909" cy="593.9228100699958" r="4.5" fill="#f97316"/><circle cx="1127.4545454545455" cy="595.1201974656794" r="4.5" fill="#f97316"/><circle cx="1232.0" cy="562.1251684857375" r="4.5" fill="#f97316"/><rect x="70" y="810" width="14" height="14" rx="7" fill="#f97316"/><text x="92" y="822" font-family="Helvetica Neue, Arial, sans-serif" font-size="15" fill="#334155">COOLBET</text><polyline fill="none" stroke="#7c3aed" stroke-width="3" points="82.0,709.6202225452606 186.54545454545456,706.9133699244272 291.0909090909091,669.7960592157333 395.6363636363636,669.818256185985 500.1818181818182,618.9030211767969 604.7272727272727,669.7842945504475 709.2727272727273,670.1834524101976 813.8181818181819,673.2639537168066 918.3636363636364,691.8623183152802 1022.9090909090909,627.4752137849242 1127.4545454545455,685.1994086660976 1232.0,640.3200210261771"/><circle cx="82.0" cy="709.6202225452606" r="4.5" fill="#7c3aed"/><circle cx="186.54545454545456" cy="706.9133699244272" r="4.5" fill="#7c3aed"/><circle cx="291.0909090909091" cy="669.7960592157333" r="4.5" fill="#7c3aed"/><circle cx="395.6363636363636" cy="669.818256185985" r="4.5" fill="#7c3aed"/><circle cx="500.1818181818182" cy="618.9030211767969" r="4.5" fill="#7c3aed"/><circle cx="604.7272727272727" cy="669.7842945504475" r="4.5" fill="#7c3aed"/><circle cx="709.2727272727273" cy="670.1834524101976" r="4.5" fill="#7c3aed"/><circle cx="813.8181818181819" cy="673.2639537168066" r="4.5" fill="#7c3aed"/><circle cx="918.3636363636364" cy="691.8623183152802" r="4.5" fill="#7c3aed"/><circle cx="1022.9090909090909" cy="627.4752137849242" r="4.5" fill="#7c3aed"/><circle cx="1127.4545454545455" cy="685.1994086660976" r="4.5" fill="#7c3aed"/><circle cx="1232.0" cy="640.3200210261771" r="4.5" fill="#7c3aed"/><rect x="430" y="810" width="14" height="14" rx="7" fill="#7c3aed"/><text x="452" y="822" font-family="Helvetica Neue, Arial, sans-serif" font-size="15" fill="#334155">LATAMWIN</text><polyline fill="none" stroke="#b91c1c" stroke-width="3" points="82.0,706.9409093354045 186.54545454545456,706.1735934796145 291.0909090909091,698.3270831501513 395.6363636363636,695.4311383084766 500.1818181818182,696.5271078372466 604.7272727272727,698.9790468937329 709.2727272727273,698.466204889088 813.8181818181819,700.1896383530199 918.3636363636364,697.6327024883127 1022.9090909090909,687.4084661142749 1127.4545454545455,682.3105698752006 1232.0,686.5259198432249"/><circle cx="82.0" cy="706.9409093354045" r="4.5" fill="#b91c1c"/><circle cx="186.54545454545456" cy="706.1735934796145" r="4.5" fill="#b91c1c"/><circle cx="291.0909090909091" cy="698.3270831501513" r="4.5" fill="#b91c1c"/><circle cx="395.6363636363636" cy="695.4311383084766" r="4.5" fill="#b91c1c"/><circle cx="500.1818181818182" cy="696.5271078372466" r="4.5" fill="#b91c1c"/><circle cx="604.7272727272727" cy="698.9790468937329" r="4.5" fill="#b91c1c"/><circle cx="709.2727272727273" cy="698.466204889088" r="4.5" fill="#b91c1c"/><circle cx="813.8181818181819" cy="700.1896383530199" r="4.5" fill="#b91c1c"/><circle cx="918.3636363636364" cy="697.6327024883127" r="4.5" fill="#b91c1c"/><circle cx="1022.9090909090909" cy="687.4084661142749" r="4.5" fill="#b91c1c"/><circle cx="1127.4545454545455" cy="682.3105698752006" r="4.5" fill="#b91c1c"/><circle cx="1232.0" cy="686.5259198432249" r="4.5" fill="#b91c1c"/><rect x="790" y="810" width="14" height="14" rx="7" fill="#b91c1c"/><text x="812" y="822" font-family="Helvetica Neue, Arial, sans-serif" font-size="15" fill="#334155">ROJABET</text><polyline fill="none" stroke="#0f766e" stroke-width="3" points="82.0,704.1369505705453 186.54545454545456,701.1794565014277 291.0909090909091,701.6675818005006 395.6363636363636,702.1127117889098 500.1818181818182,695.9691094607155 604.7272727272727,689.5804993125703 709.2727272727273,693.9959146940215 813.8181818181819,706.3050577699629 918.3636363636364,706.6088565560175 1022.9090909090909,704.2779912490938 1127.4545454545455,703.5083192297458 1232.0,701.6981711029595"/><circle cx="82.0" cy="704.1369505705453" r="4.5" fill="#0f766e"/><circle cx="186.54545454545456" cy="701.1794565014277" r="4.5" fill="#0f766e"/><circle cx="291.0909090909091" cy="701.6675818005006" r="4.5" fill="#0f766e"/><circle cx="395.6363636363636" cy="702.1127117889098" r="4.5" fill="#0f766e"/><circle cx="500.1818181818182" cy="695.9691094607155" r="4.5" fill="#0f766e"/><circle cx="604.7272727272727" cy="689.5804993125703" r="4.5" fill="#0f766e"/><circle cx="709.2727272727273" cy="693.9959146940215" r="4.5" fill="#0f766e"/><circle cx="813.8181818181819" cy="706.3050577699629" r="4.5" fill="#0f766e"/><circle cx="918.3636363636364" cy="706.6088565560175" r="4.5" fill="#0f766e"/><circle cx="1022.9090909090909" cy="704.2779912490938" r="4.5" fill="#0f766e"/><circle cx="1127.4545454545455" cy="703.5083192297458" r="4.5" fill="#0f766e"/><circle cx="1232.0" cy="701.6981711029595" r="4.5" fill="#0f766e"/><rect x="70" y="842" width="14" height="14" rx="7" fill="#0f766e"/><text x="92" y="854" font-family="Helvetica Neue, Arial, sans-serif" font-size="15" fill="#334155">TONYBET</text><polyline fill="none" stroke="#475569" stroke-width="3" points="82.0,708.5925194729606 186.54545454545456,706.6593523815224 291.0909090909091,706.0267845869708 395.6363636363636,706.009165136806 500.1818181818182,705.301350514765 604.7272727272727,704.7374824178202 709.2727272727273,709.1156429889887 813.8181818181819,709.1783353933132 918.3636363636364,709.217571595869 1022.9090909090909,707.9938147394181 1127.4545454545455,706.1762210273678 1232.0,708.4379477532347"/><circle cx="82.0" cy="708.5925194729606" r="4.5" fill="#475569"/><circle cx="186.54545454545456" cy="706.6593523815224" r="4.5" fill="#475569"/><circle cx="291.0909090909091" cy="706.0267845869708" r="4.5" fill="#475569"/><circle cx="395.6363636363636" cy="706.009165136806" r="4.5" fill="#475569"/><circle cx="500.1818181818182" cy="705.301350514765" r="4.5" fill="#475569"/><circle cx="604.7272727272727" cy="704.7374824178202" r="4.5" fill="#475569"/><circle cx="709.2727272727273" cy="709.1156429889887" r="4.5" fill="#475569"/><circle cx="813.8181818181819" cy="709.1783353933132" r="4.5" fill="#475569"/><circle cx="918.3636363636364" cy="709.217571595869" r="4.5" fill="#475569"/><circle cx="1022.9090909090909" cy="707.9938147394181" r="4.5" fill="#475569"/><circle cx="1127.4545454545455" cy="706.1762210273678" r="4.5" fill="#475569"/><circle cx="1232.0" cy="708.4379477532347" r="4.5" fill="#475569"/><rect x="430" y="842" width="14" height="14" rx="7" fill="#475569"/><text x="452" y="854" font-family="Helvetica Neue, Arial, sans-serif" font-size="15" fill="#334155">BETSSON</text><polyline fill="none" stroke="#d97706" stroke-width="3" points="82.0,709.707706056246 186.54545454545456,709.7433853888957 291.0909090909091,709.98349346843 395.6363636363636,709.5830994442664 500.1818181818182,709.6632977333759 604.7272727272727,709.2132292274767 709.2727272727273,708.4118548211247 813.8181818181819,706.6792277058961 918.3636363636364,706.3145683311772 1022.9090909090909,705.5247938566959 1127.4545454545455,705.1037943264672 1232.0,706.6149606536907"/><circle cx="82.0" cy="709.707706056246" r="4.5" fill="#d97706"/><circle cx="186.54545454545456" cy="709.7433853888957" r="4.5" fill="#d97706"/><circle cx="291.0909090909091" cy="709.98349346843" r="4.5" fill="#d97706"/><circle cx="395.6363636363636" cy="709.5830994442664" r="4.5" fill="#d97706"/><circle cx="500.1818181818182" cy="709.6632977333759" r="4.5" fill="#d97706"/><circle cx="604.7272727272727" cy="709.2132292274767" r="4.5" fill="#d97706"/><circle cx="709.2727272727273" cy="708.4118548211247" r="4.5" fill="#d97706"/><circle cx="813.8181818181819" cy="706.6792277058961" r="4.5" fill="#d97706"/><circle cx="918.3636363636364" cy="706.3145683311772" r="4.5" fill="#d97706"/><circle cx="1022.9090909090909" cy="705.5247938566959" r="4.5" fill="#d97706"/><circle cx="1127.4545454545455" cy="705.1037943264672" r="4.5" fill="#d97706"/><circle cx="1232.0" cy="706.6149606536907" r="4.5" fill="#d97706"/><rect x="790" y="842" width="14" height="14" rx="7" fill="#d97706"/><text x="812" y="854" font-family="Helvetica Neue, Arial, sans-serif" font-size="15" fill="#334155">APUESTAS ROYAL</text><polyline fill="none" stroke="#4f46e5" stroke-width="3" points="82.0,709.7688974946602 186.54545454545456,709.7798502200318 291.0909090909091,709.6544415145274 395.6363636363636,709.6670371487048 500.1818181818182,709.7376822273513 604.7272727272727,709.5580575312578 709.2727272727273,709.1742878081204 813.8181818181819,709.6555367870646 918.3636363636364,709.5706531654351 1022.9090909090909,709.4459979299928 1127.4545454545455,709.5026755179509 1232.0,709.834066210621"/><circle cx="82.0" cy="709.7688974946602" r="4.5" fill="#4f46e5"/><circle cx="186.54545454545456" cy="709.7798502200318" r="4.5" fill="#4f46e5"/><circle cx="291.0909090909091" cy="709.6544415145274" r="4.5" fill="#4f46e5"/><circle cx="395.6363636363636" cy="709.6670371487048" r="4.5" fill="#4f46e5"/><circle cx="500.1818181818182" cy="709.7376822273513" r="4.5" fill="#4f46e5"/><circle cx="604.7272727272727" cy="709.5580575312578" r="4.5" fill="#4f46e5"/><circle cx="709.2727272727273" cy="709.1742878081204" r="4.5" fill="#4f46e5"/><circle cx="813.8181818181819" cy="709.6555367870646" r="4.5" fill="#4f46e5"/><circle cx="918.3636363636364" cy="709.5706531654351" r="4.5" fill="#4f46e5"/><circle cx="1022.9090909090909" cy="709.4459979299928" r="4.5" fill="#4f46e5"/><circle cx="1127.4545454545455" cy="709.5026755179509" r="4.5" fill="#4f46e5"/><circle cx="1232.0" cy="709.834066210621" r="4.5" fill="#4f46e5"/><rect x="70" y="874" width="14" height="14" rx="7" fill="#4f46e5"/><text x="92" y="886" font-family="Helvetica Neue, Arial, sans-serif" font-size="15" fill="#334155">JUEGA EN LINEA</text></svg>