<svg xmlns="http://www.w3.org/2000/svg" width="1280" height="820" viewBox="0 0 1280 820" role="img" aria-labelledby="title desc"><title id="title">Distribucion estimada de inversion por marca y medio</title><desc id="desc">Barras horizontales stackeadas con la distribucion estimada de inversion por marca y desglose por medio.</desc><rect width="100%" height="100%" fill="#f6f2e9"/><text x="48" y="54" font-family="Helvetica Neue, Arial, sans-serif" font-size="34" font-weight="700" fill="#1f2937">Distribucion estimada de inversion por marca y medio</text><text x="48" y="84" font-family="Helvetica Neue, Arial, sans-serif" font-size="18" fill="#5f6b7a">Composicion por tipo de medio. Montos estimados en CLP segun observacion y tarifas estandar.</text><rect x="48" y="98" width="14" height="14" rx="7" fill="#b91c1c"/><text x="72" y="110" font-family="Helvetica Neue, Arial, sans-serif" font-size="16" fill="#334155">TV abierta</text><rect x="178" y="98" width="14" height="14" rx="7" fill="#f97316"/><text x="202" y="110" font-family="Helvetica Neue, Arial, sans-serif" font-size="16" fill="#334155">TV cable</text><rect x="308" y="98" width="14" height="14" rx="7" fill="#0f766e"/><text x="332" y="110" font-family="Helvetica Neue, Arial, sans-serif" font-size="16" fill="#334155">Radio</text><rect x="438" y="98" width="14" height="14" rx="7" fill="#7c3aed"/><text x="462" y="110" font-family="Helvetica Neue, Arial, sans-serif" font-size="16" fill="#334155">Via publica</text><rect x="568" y="98" width="14" height="14" rx="7" fill="#2563eb"/><text x="592" y="110" font-family="Helvetica Neue, Arial, sans-serif" font-size="16" fill="#334155">Digital</text><rect x="698" y="98" width="14" height="14" rx="7" fill="#475569"/><text x="722" y="110" font-family="Helvetica Neue, Arial, sans-serif" font-size="16" fill="#334155">Prensa</text><line x1="200.0" y1="110" x2="200.0" y2="740" stroke="#e8e3d8" stroke-width="1"/><text x="200.0" y="786" text-anchor="middle" font-family="Helvetica Neue, Arial, sans-serif" font-size="14" fill="#64748b">$0</text><line x1="382.0" y1="110" x2="382.0" y2="740" stroke="#e8e3d8" stroke-width="1"/><text x="382.0" y="786" text-anchor="middle" font-family="Helvetica Neue, Arial, sans-serif" font-size="14" fill="#64748b">$217.5 M</text><line x1="564.0" y1="110" x2="564.0" y2="740" stroke="#e8e3d8" stroke-width="1"/><text x="564.0" y="786" text-anchor="middle" font-family="Helvetica Neue, Arial, sans-serif" font-size="14" fill="#64748b">$435 M</text><line x1="746.0" y1="110" x2="746.0" y2="740" stroke="#e8e3d8" stroke-width="1"/><text x="746.0" y="786" text-anchor="middle" font-family="Helvetica Neue, Arial, sans-serif" font-size="14" fill="#64748b">$652.5 M</text><line x1="928.0" y1="110" x2="928.0" y2="740" stroke="#e8e3d8" stroke-width="1"/><text x="928.0" y="786" text-anchor="middle" font-family="Helvetica Neue, Arial, sans-serif" font-size="14" fill="#64748b">$870 M</text><line x1="1110.0" y1="110" x2="1110.0" y2="740" stroke="#e8e3d8" stroke-width="1"/><text x="1110.0" y="786" text-anchor="middle" font-family="Helvetica Neue, Arial, sans-serif" font-size="14" fill="#64748b">$1.1 MM</text><text x="186" y="132" text-anchor="end" font-family="Helvetica Neue, Arial, sans-serif" font-size="16" fill="#1f2937">BETANO</text><rect x="200" y="116" width="648.0792186888211" height="24" rx="4" fill="#b91c1c"/><rect x="848.0792186888211" y="116" width="26.595471544134618" height="24" rx="4" fill="#f97316"/><rect x="874.6746902329558" y="116" width="45.21082177140848" height="24" rx="4" fill="#0f766e"/><rect x="919.8855120043643" y="116" width="128.96462814818975" height="24" rx="4" fill="#7c3aed"/><rect x="1048.850140152554" y="116" width="61.149859847446024" height="24" rx="4" fill="#2563eb"/><text x="1124" y="133" font-family="Helvetica Neue, Arial, sans-serif" font-size="15" fill="#334155">$1.087.496.072</text><text x="186" y="180" text-anchor="end" font-family="Helvetica Neue, Arial, sans-serif" font-size="16" fill="#1f2937">EPICBET</text><rect x="200" y="164" width="6.908885530837793" height="24" rx="4" fill="#f97316"/><rect x="206.90888553083778" y="164" width="334.9286910980532" height="24" rx="4" fill="#7c3aed"/><text x="1124" y="181" font-family="Helvetica Neue, Arial, sans-serif" font-size="15" fill="#334155">$408.513.211</text><text x="186" y="228" text-anchor="end" font-family="Helvetica Neue, Arial, sans-serif" font-size="16" fill="#1f2937">JUGABET</text><rect x="200" y="212" width="66.89461940225802" height="24" rx="4" fill="#b91c1c"/><rect x="266.894619402258" y="212" width="7.327992460539723" height="24" rx="4" fill="#f97316"/><rect x="274.22261186279775" y="212" width="34.77287487922901" height="24" rx="4" fill="#0f766e"/><rect x="308.99548674202674" y="212" width="178.69425261172506" height="24" rx="4" fill="#7c3aed"/><rect x="487.6897393537518" y="212" width="25.513429069519944" height="24" rx="4" fill="#2563eb"/><text x="1124" y="229" font-family="Helvetica Neue, Arial, sans-serif" font-size="15" fill="#334155">$374.293.643</text><text x="186" y="276" text-anchor="end" font-family="Helvetica Neue, Arial, sans-serif" font-size="16" fill="#1f2937">COOLBET</text><rect x="200" y="260" width="1.602322071863893" height="24" rx="4" fill="#b91c1c"/><rect x="201.60232207186388" y="260" width="0.01342035191604649" height="24" rx="4" fill="#f97316"/><rect x="201.61574242377992" y="260" width="0.15837153288033362" height="24" rx="4" fill="#0f766e"/><rect x="201.77411395666024" y="260" width="1.1702684103472065" height="24" rx="4" fill="#7c3aed"/><rect x="202.94438236700745" y="260" width="228.32667527713443" height="24" rx="4" fill="#2563eb"/><rect x="431.2710576441419" y="260" width="10.724867790466892" height="24" rx="4" fill="#475569"/><text x="1124" y="277" font-family="Helvetica Neue, Arial, sans-serif" font-size="15" fill="#334155">$289.197.383</text><text x="186" y="324" text-anchor="end" font-family="Helvetica Neue, Arial, sans-serif" font-size="16" fill="#1f2937">LATAMWIN</text><rect x="200" y="308" width="22.808116523525342" height="24" rx="4" fill="#0f766e"/><rect x="222.80811652352534" y="308" width="70.72875787173437" height="24" rx="4" fill="#2563eb"/><text x="1124" y="325" font-family="Helvetica Neue, Arial, sans-serif" font-size="15" fill="#334155">$111.781.301</text><text x="186" y="372" text-anchor="end" font-family="Helvetica Neue, Arial, sans-serif" font-size="16" fill="#1f2937">ROJABET</text><rect x="200" y="356" width="12.817371605042139" height="24" rx="4" fill="#b91c1c"/><rect x="212.81737160504213" y="356" width="13.63055639934057" height="24" rx="4" fill="#f97316"/><rect x="226.4479280043827" y="356" width="9.367419025954549" height="24" rx="4" fill="#0f766e"/><text x="1124" y="373" font-family="Helvetica Neue, Arial, sans-serif" font-size="15" fill="#334155">$42.801.153</text><text x="186" y="420" text-anchor="end" font-family="Helvetica Neue, Arial, sans-serif" font-size="16" fill="#1f2937">TONYBET</text><rect x="200" y="404" width="4.886125204923646" height="24" rx="4" fill="#b91c1c"/><rect x="204.88612520492364" y="404" width="19.147238772012155" height="24" rx="4" fill="#2563eb"/><text x="1124" y="421" font-family="Helvetica Neue, Arial, sans-serif" font-size="15" fill="#334155">$28.721.087</text><text x="186" y="468" text-anchor="end" font-family="Helvetica Neue, Arial, sans-serif" font-size="16" fill="#1f2937">BETSSON</text><rect x="200" y="452" width="3.700201390910314" height="24" rx="4" fill="#f97316"/><rect x="203.7002013909103" y="452" width="1.7909910575201824" height="24" rx="4" fill="#2563eb"/><text x="1124" y="469" font-family="Helvetica Neue, Arial, sans-serif" font-size="15" fill="#334155">$6.562.253</text><text x="186" y="516" text-anchor="end" font-family="Helvetica Neue, Arial, sans-serif" font-size="16" fill="#1f2937">APUESTAS ROYAL</text><rect x="200" y="500" width="5.104415538109531" height="24" rx="4" fill="#f97316"/><text x="1124" y="517" font-family="Helvetica Neue, Arial, sans-serif" font-size="15" fill="#334155">$6.100.035</text><text x="186" y="564" text-anchor="end" font-family="Helvetica Neue, Arial, sans-serif" font-size="16" fill="#1f2937">JUEGA EN LINEA</text><rect x="200" y="548" width="0.5746727237136697" height="24" rx="4" fill="#f97316"/><rect x="200.57467272371366" y="548" width="0.18416549444934507" height="24" rx="4" fill="#2563eb"/><text x="1124" y="565" font-family="Helvetica Neue, Arial, sans-serif" font-size="15" fill="#334155">$906.850</text></svg>