<svg xmlns="http://www.w3.org/2000/svg" width="1280" height="860" viewBox="0 0 1280 860" role="img" aria-labelledby="title desc"><title id="title">Mapa de calor semanal de la inversion estimada por marca</title><desc id="desc">Mapa de calor con la evolucion semanal estimada de la inversion por marca.</desc><rect width="100%" height="100%" fill="#f6f2e9"/><text x="48" y="52" font-family="Helvetica Neue, Arial, sans-serif" font-size="34" font-weight="700" fill="#1f2937">Mapa de calor semanal de la inversion estimada por marca</text><text x="48" y="82" font-family="Helvetica Neue, Arial, sans-serif" font-size="18" fill="#5f6b7a">Cada celda representa un corte semanal de 2026. Cuanto mas intenso el color, mayor la inversion estimada observada.</text><text x="245.71428571428572" y="92" text-anchor="middle" font-family="Helvetica Neue, Arial, sans-serif" font-size="14" fill="#64748b">2026-01-04</text><line x1="210.0" y1="110" x2="210.0" y2="760" stroke="#efeadd" stroke-width="1"/><text x="317.14285714285717" y="92" text-anchor="middle" font-family="Helvetica Neue, Arial, sans-serif" font-size="14" fill="#64748b">2026-01-11</text><line x1="281.42857142857144" y1="110" x2="281.42857142857144" y2="760" stroke="#efeadd" stroke-width="1"/><text x="388.5714285714286" y="92" text-anchor="middle" font-family="Helvetica Neue, Arial, sans-serif" font-size="14" fill="#64748b">2026-01-18</text><line x1="352.8571428571429" y1="110" x2="352.8571428571429" y2="760" stroke="#efeadd" stroke-width="1"/><text x="460.0" y="92" text-anchor="middle" font-family="Helvetica Neue, Arial, sans-serif" font-size="14" fill="#64748b">2026-01-25</text><line x1="424.2857142857143" y1="110" x2="424.2857142857143" y2="760" stroke="#efeadd" stroke-width="1"/><text x="531.4285714285714" y="92" text-anchor="middle" font-family="Helvetica Neue, Arial, sans-serif" font-size="14" fill="#64748b">2026-02-01</text><line x1="495.7142857142857" y1="110" x2="495.7142857142857" y2="760" stroke="#efeadd" stroke-width="1"/><text x="602.8571428571428" y="92" text-anchor="middle" font-family="Helvetica Neue, Arial, sans-serif" font-size="14" fill="#64748b">2026-02-08</text><line x1="567.1428571428571" y1="110" x2="567.1428571428571" y2="760" stroke="#efeadd" stroke-width="1"/><text x="674.2857142857142" y="92" text-anchor="middle" font-family="Helvetica Neue, Arial, sans-serif" font-size="14" fill="#64748b">2026-02-15</text><line x1="638.5714285714286" y1="110" x2="638.5714285714286" y2="760" stroke="#efeadd" stroke-width="1"/><text x="745.7142857142857" y="92" text-anchor="middle" font-family="Helvetica Neue, Arial, sans-serif" font-size="14" fill="#64748b">2026-02-22</text><line x1="710.0" y1="110" x2="710.0" y2="760" stroke="#efeadd" stroke-width="1"/><text x="817.1428571428571" y="92" text-anchor="middle" font-family="Helvetica Neue, Arial, sans-serif" font-size="14" fill="#64748b">2026-03-01</text><line x1="781.4285714285714" y1="110" x2="781.4285714285714" y2="760" stroke="#efeadd" stroke-width="1"/><text x="888.5714285714286" y="92" text-anchor="middle" font-family="Helvetica Neue, Arial, sans-serif" font-size="14" fill="#64748b">2026-03-08</text><line x1="852.8571428571429" y1="110" x2="852.8571428571429" y2="760" stroke="#efeadd" stroke-width="1"/><text x="960.0" y="92" text-anchor="middle" font-family="Helvetica Neue, Arial, sans-serif" font-size="14" fill="#64748b">2026-03-15</text><line x1="924.2857142857143" y1="110" x2="924.2857142857143" y2="760" stroke="#efeadd" stroke-width="1"/><text x="1031.4285714285716" y="92" text-anchor="middle" font-family="Helvetica Neue, Arial, sans-serif" font-size="14" fill="#64748b">2026-03-22</text><line x1="995.7142857142858" y1="110" x2="995.7142857142858" y2="760" stroke="#efeadd" stroke-width="1"/><text x="1102.857142857143" y="92" text-anchor="middle" font-family="Helvetica Neue, Arial, sans-serif" font-size="14" fill="#64748b">2026-03-29</text><line x1="1067.142857142857" y1="110" x2="1067.142857142857" y2="760" stroke="#efeadd" stroke-width="1"/><text x="1174.2857142857142" y="92" text-anchor="middle" font-family="Helvetica Neue, Arial, sans-serif" font-size="14" fill="#64748b">2026-04-05</text><line x1="1138.5714285714284" y1="110" x2="1138.5714285714284" y2="760" stroke="#efeadd" stroke-width="1"/><text x="196" y="147.5" text-anchor="end" font-family="Helvetica Neue, Arial, sans-serif" font-size="16" fill="#1f2937">BETANO</text><rect x="212.0" y="112.0" width="67.42857142857143" height="61.0" rx="6" fill="#cda3a9"/><text x="245.71428571428572" y="146.5" text-anchor="middle" font-family="Helvetica Neue, Arial, sans-serif" font-size="12" fill="#1f2937">$18.7 M</text><rect x="283.42857142857144" y="112.0" width="67.42857142857143" height="61.0" rx="6" fill="#a6556b"/><text x="317.14285714285717" y="146.5" text-anchor="middle" font-family="Helvetica Neue, Arial, sans-serif" font-size="12" fill="#ffffff">$65.7 M</text><rect x="354.8571428571429" y="112.0" width="67.42857142857143" height="61.0" rx="6" fill="#ac6074"/><text x="388.5714285714286" y="146.5" text-anchor="middle" font-family="Helvetica Neue, Arial, sans-serif" font-size="12" fill="#ffffff">$57.5 M</text><rect x="426.2857142857143" y="112.0" width="67.42857142857143" height="61.0" rx="6" fill="#a34e66"/><text x="460.0" y="146.5" text-anchor="middle" font-family="Helvetica Neue, Arial, sans-serif" font-size="12" fill="#ffffff">$70.9 M</text><rect x="497.7142857142857" y="112.0" width="67.42857142857143" height="61.0" rx="6" fill="#a34e65"/><text x="531.4285714285714" y="146.5" text-anchor="middle" font-family="Helvetica Neue, Arial, sans-serif" font-size="12" fill="#ffffff">$71.4 M</text><rect x="569.1428571428571" y="112.0" width="67.42857142857143" height="61.0" rx="6" fill="#95314e"/><text x="602.8571428571428" y="146.5" text-anchor="middle" font-family="Helvetica Neue, Arial, sans-serif" font-size="12" fill="#ffffff">$95.8 M</text><rect x="640.5714285714286" y="112.0" width="67.42857142857143" height="61.0" rx="6" fill="#af677a"/><text x="674.2857142857142" y="146.5" text-anchor="middle" font-family="Helvetica Neue, Arial, sans-serif" font-size="12" fill="#ffffff">$52.5 M</text><rect x="712.0" y="112.0" width="67.42857142857143" height="61.0" rx="6" fill="#9d415b"/><text x="745.7142857142857" y="146.5" text-anchor="middle" font-family="Helvetica Neue, Arial, sans-serif" font-size="12" fill="#ffffff">$81.5 M</text><rect x="783.4285714285714" y="112.0" width="67.42857142857143" height="61.0" rx="6" fill="#ab5f73"/><text x="817.1428571428571" y="146.5" text-anchor="middle" font-family="Helvetica Neue, Arial, sans-serif" font-size="12" fill="#ffffff">$58.1 M</text><rect x="854.8571428571429" y="112.0" width="67.42857142857143" height="61.0" rx="6" fill="#983854"/><text x="888.5714285714286" y="146.5" text-anchor="middle" font-family="Helvetica Neue, Arial, sans-serif" font-size="12" fill="#ffffff">$89.8 M</text><rect x="926.2857142857143" y="112.0" width="67.42857142857143" height="61.0" rx="6" fill="#a14b63"/><text x="960.0" y="146.5" text-anchor="middle" font-family="Helvetica Neue, Arial, sans-serif" font-size="12" fill="#ffffff">$74 M</text><rect x="997.7142857142858" y="112.0" width="67.42857142857143" height="61.0" rx="6" fill="#922c4a"/><text x="1031.4285714285716" y="146.5" text-anchor="middle" font-family="Helvetica Neue, Arial, sans-serif" font-size="12" fill="#ffffff">$100.4 M</text><rect x="1069.142857142857" y="112.0" width="67.42857142857143" height="61.0" rx="6" fill="#993b56"/><text x="1102.857142857143" y="146.5" text-anchor="middle" font-family="Helvetica Neue, Arial, sans-serif" font-size="12" fill="#ffffff">$87.3 M</text><rect x="1140.5714285714284" y="112.0" width="67.42857142857143" height="61.0" rx="6" fill="#973753"/><text x="1174.2857142857142" y="146.5" text-anchor="middle" font-family="Helvetica Neue, Arial, sans-serif" font-size="12" fill="#ffffff">$90.6 M</text><text x="196" y="212.5" text-anchor="end" font-family="Helvetica Neue, Arial, sans-serif" font-size="16" fill="#1f2937">EPICBET</text><rect x="212.0" y="177.0" width="67.42857142857143" height="61.0" rx="6" fill="#f4f1e8"/><rect x="283.42857142857144" y="177.0" width="67.42857142857143" height="61.0" rx="6" fill="#b47081"/><text x="317.14285714285717" y="211.5" text-anchor="middle" font-family="Helvetica Neue, Arial, sans-serif" font-size="12" fill="#1f2937">$46.6 M</text><rect x="354.8571428571429" y="177.0" width="67.42857142857143" height="61.0" rx="6" fill="#ae6477"/><text x="388.5714285714286" y="211.5" text-anchor="middle" font-family="Helvetica Neue, Arial, sans-serif" font-size="12" fill="#ffffff">$54.6 M</text><rect x="426.2857142857143" y="177.0" width="67.42857142857143" height="61.0" rx="6" fill="#b47181"/><text x="460.0" y="211.5" text-anchor="middle" font-family="Helvetica Neue, Arial, sans-serif" font-size="12" fill="#1f2937">$46.1 M</text><rect x="497.7142857142857" y="177.0" width="67.42857142857143" height="61.0" rx="6" fill="#c08894"/><text x="531.4285714285714" y="211.5" text-anchor="middle" font-family="Helvetica Neue, Arial, sans-serif" font-size="12" fill="#1f2937">$32.2 M</text><rect x="569.1428571428571" y="177.0" width="67.42857142857143" height="61.0" rx="6" fill="#8b1e3f"/><text x="602.8571428571428" y="211.5" text-anchor="middle" font-family="Helvetica Neue, Arial, sans-serif" font-size="12" fill="#ffffff">$113.9 M</text><rect x="640.5714285714286" y="177.0" width="67.42857142857143" height="61.0" rx="6" fill="#c99ca4"/><text x="674.2857142857142" y="211.5" text-anchor="middle" font-family="Helvetica Neue, Arial, sans-serif" font-size="12" fill="#1f2937">$22 M</text><rect x="712.0" y="177.0" width="67.42857142857143" height="61.0" rx="6" fill="#b67484"/><text x="745.7142857142857" y="211.5" text-anchor="middle" font-family="Helvetica Neue, Arial, sans-serif" font-size="12" fill="#1f2937">$43.9 M</text><rect x="783.4285714285714" y="177.0" width="67.42857142857143" height="61.0" rx="6" fill="#d0a8ad"/><text x="817.1428571428571" y="211.5" text-anchor="middle" font-family="Helvetica Neue, Arial, sans-serif" font-size="12" fill="#1f2937">$16.6 M</text><rect x="854.8571428571429" y="177.0" width="67.42857142857143" height="61.0" rx="6" fill="#d7b7ba"/><text x="888.5714285714286" y="211.5" text-anchor="middle" font-family="Helvetica Neue, Arial, sans-serif" font-size="12" fill="#1f2937">$10.9 M</text><rect x="926.2857142857143" y="177.0" width="67.42857142857143" height="61.0" rx="6" fill="#d9babc"/><text x="960.0" y="211.5" text-anchor="middle" font-family="Helvetica Neue, Arial, sans-serif" font-size="12" fill="#1f2937">$9.9 M</text><rect x="997.7142857142858" y="177.0" width="67.42857142857143" height="61.0" rx="6" fill="#e6d6d2"/><text x="1031.4285714285716" y="211.5" text-anchor="middle" font-family="Helvetica Neue, Arial, sans-serif" font-size="12" fill="#1f2937">$2.8 M</text><rect x="1069.142857142857" y="177.0" width="67.42857142857143" height="61.0" rx="6" fill="#ddc3c3"/><text x="1102.857142857143" y="211.5" text-anchor="middle" font-family="Helvetica Neue, Arial, sans-serif" font-size="12" fill="#1f2937">$7.2 M</text><rect x="1140.5714285714284" y="177.0" width="67.42857142857143" height="61.0" rx="6" fill="#ede3dc"/><text x="1174.2857142857142" y="211.5" text-anchor="middle" font-family="Helvetica Neue, Arial, sans-serif" font-size="12" fill="#1f2937">$873.3 mil</text><text x="196" y="277.5" text-anchor="end" font-family="Helvetica Neue, Arial, sans-serif" font-size="16" fill="#1f2937">JUGABET</text><rect x="212.0" y="242.0" width="67.42857142857143" height="61.0" rx="6" fill="#dcc1c2"/><text x="245.71428571428572" y="276.5" text-anchor="middle" font-family="Helvetica Neue, Arial, sans-serif" font-size="12" fill="#1f2937">$7.6 M</text><rect x="283.42857142857144" y="242.0" width="67.42857142857143" height="61.0" rx="6" fill="#dabdbe"/><text x="317.14285714285717" y="276.5" text-anchor="middle" font-family="Helvetica Neue, Arial, sans-serif" font-size="12" fill="#1f2937">$9 M</text><rect x="354.8571428571429" y="242.0" width="67.42857142857143" height="61.0" rx="6" fill="#c38f99"/><text x="388.5714285714286" y="276.5" text-anchor="middle" font-family="Helvetica Neue, Arial, sans-serif" font-size="12" fill="#1f2937">$28.3 M</text><rect x="426.2857142857143" y="242.0" width="67.42857142857143" height="61.0" rx="6" fill="#a45168"/><text x="460.0" y="276.5" text-anchor="middle" font-family="Helvetica Neue, Arial, sans-serif" font-size="12" fill="#ffffff">$69 M</text><rect x="497.7142857142857" y="242.0" width="67.42857142857143" height="61.0" rx="6" fill="#bb7f8c"/><text x="531.4285714285714" y="276.5" text-anchor="middle" font-family="Helvetica Neue, Arial, sans-serif" font-size="12" fill="#1f2937">$37.4 M</text><rect x="569.1428571428571" y="242.0" width="67.42857142857143" height="61.0" rx="6" fill="#ad6376"/><text x="602.8571428571428" y="276.5" text-anchor="middle" font-family="Helvetica Neue, Arial, sans-serif" font-size="12" fill="#ffffff">$55.7 M</text><rect x="640.5714285714286" y="242.0" width="67.42857142857143" height="61.0" rx="6" fill="#d6b4b7"/><text x="674.2857142857142" y="276.5" text-anchor="middle" font-family="Helvetica Neue, Arial, sans-serif" font-size="12" fill="#1f2937">$12 M</text><rect x="712.0" y="242.0" width="67.42857142857143" height="61.0" rx="6" fill="#a45168"/><text x="745.7142857142857" y="276.5" text-anchor="middle" font-family="Helvetica Neue, Arial, sans-serif" font-size="12" fill="#ffffff">$69 M</text><rect x="783.4285714285714" y="242.0" width="67.42857142857143" height="61.0" rx="6" fill="#c99aa2"/><text x="817.1428571428571" y="276.5" text-anchor="middle" font-family="Helvetica Neue, Arial, sans-serif" font-size="12" fill="#1f2937">$22.9 M</text><rect x="854.8571428571429" y="242.0" width="67.42857142857143" height="61.0" rx="6" fill="#d5b3b6"/><text x="888.5714285714286" y="276.5" text-anchor="middle" font-family="Helvetica Neue, Arial, sans-serif" font-size="12" fill="#1f2937">$12.3 M</text><rect x="926.2857142857143" y="242.0" width="67.42857142857143" height="61.0" rx="6" fill="#dabcbe"/><text x="960.0" y="276.5" text-anchor="middle" font-family="Helvetica Neue, Arial, sans-serif" font-size="12" fill="#1f2937">$9.2 M</text><rect x="997.7142857142858" y="242.0" width="67.42857142857143" height="61.0" rx="6" fill="#d5b4b7"/><text x="1031.4285714285716" y="276.5" text-anchor="middle" font-family="Helvetica Neue, Arial, sans-serif" font-size="12" fill="#1f2937">$12 M</text><rect x="1069.142857142857" y="242.0" width="67.42857142857143" height="61.0" rx="6" fill="#dbbebf"/><text x="1102.857142857143" y="276.5" text-anchor="middle" font-family="Helvetica Neue, Arial, sans-serif" font-size="12" fill="#1f2937">$8.6 M</text><rect x="1140.5714285714284" y="242.0" width="67.42857142857143" height="61.0" rx="6" fill="#d5b3b6"/><text x="1174.2857142857142" y="276.5" text-anchor="middle" font-family="Helvetica Neue, Arial, sans-serif" font-size="12" fill="#1f2937">$12.4 M</text><text x="196" y="342.5" text-anchor="end" font-family="Helvetica Neue, Arial, sans-serif" font-size="16" fill="#1f2937">COOLBET</text><rect x="212.0" y="307.0" width="67.42857142857143" height="61.0" rx="6" fill="#e2cdcb"/><text x="245.71428571428572" y="341.5" text-anchor="middle" font-family="Helvetica Neue, Arial, sans-serif" font-size="12" fill="#1f2937">$4.7 M</text><rect x="283.42857142857144" y="307.0" width="67.42857142857143" height="61.0" rx="6" fill="#dabebf"/><text x="317.14285714285717" y="341.5" text-anchor="middle" font-family="Helvetica Neue, Arial, sans-serif" font-size="12" fill="#1f2937">$8.7 M</text><rect x="354.8571428571429" y="307.0" width="67.42857142857143" height="61.0" rx="6" fill="#d6b5b8"/><text x="388.5714285714286" y="341.5" text-anchor="middle" font-family="Helvetica Neue, Arial, sans-serif" font-size="12" fill="#1f2937">$11.4 M</text><rect x="426.2857142857143" y="307.0" width="67.42857142857143" height="61.0" rx="6" fill="#d5b4b7"/><text x="460.0" y="341.5" text-anchor="middle" font-family="Helvetica Neue, Arial, sans-serif" font-size="12" fill="#1f2937">$12 M</text><rect x="497.7142857142857" y="307.0" width="67.42857142857143" height="61.0" rx="6" fill="#dabdbf"/><text x="531.4285714285714" y="341.5" text-anchor="middle" font-family="Helvetica Neue, Arial, sans-serif" font-size="12" fill="#1f2937">$8.8 M</text><rect x="569.1428571428571" y="307.0" width="67.42857142857143" height="61.0" rx="6" fill="#d7b6b9"/><text x="602.8571428571428" y="341.5" text-anchor="middle" font-family="Helvetica Neue, Arial, sans-serif" font-size="12" fill="#1f2937">$11.2 M</text><rect x="640.5714285714286" y="307.0" width="67.42857142857143" height="61.0" rx="6" fill="#dabdbe"/><text x="674.2857142857142" y="341.5" text-anchor="middle" font-family="Helvetica Neue, Arial, sans-serif" font-size="12" fill="#1f2937">$9 M</text><rect x="712.0" y="307.0" width="67.42857142857143" height="61.0" rx="6" fill="#dcc0c1"/><text x="745.7142857142857" y="341.5" text-anchor="middle" font-family="Helvetica Neue, Arial, sans-serif" font-size="12" fill="#1f2937">$8 M</text><rect x="783.4285714285714" y="307.0" width="67.42857142857143" height="61.0" rx="6" fill="#c28c97"/><text x="817.1428571428571" y="341.5" text-anchor="middle" font-family="Helvetica Neue, Arial, sans-serif" font-size="12" fill="#1f2937">$29.7 M</text><rect x="854.8571428571429" y="307.0" width="67.42857142857143" height="61.0" rx="6" fill="#cb9ea5"/><text x="888.5714285714286" y="341.5" text-anchor="middle" font-family="Helvetica Neue, Arial, sans-serif" font-size="12" fill="#1f2937">$21 M</text><rect x="926.2857142857143" y="307.0" width="67.42857142857143" height="61.0" rx="6" fill="#cb9ea6"/><text x="960.0" y="341.5" text-anchor="middle" font-family="Helvetica Neue, Arial, sans-serif" font-size="12" fill="#1f2937">$20.8 M</text><rect x="997.7142857142858" y="307.0" width="67.42857142857143" height="61.0" rx="6" fill="#c5929c"/><text x="1031.4285714285716" y="341.5" text-anchor="middle" font-family="Helvetica Neue, Arial, sans-serif" font-size="12" fill="#1f2937">$26.7 M</text><rect x="1069.142857142857" y="307.0" width="67.42857142857143" height="61.0" rx="6" fill="#b97b89"/><text x="1102.857142857143" y="341.5" text-anchor="middle" font-family="Helvetica Neue, Arial, sans-serif" font-size="12" fill="#1f2937">$39.7 M</text><rect x="1140.5714285714284" y="307.0" width="67.42857142857143" height="61.0" rx="6" fill="#b47181"/><text x="1174.2857142857142" y="341.5" text-anchor="middle" font-family="Helvetica Neue, Arial, sans-serif" font-size="12" fill="#1f2937">$45.9 M</text><text x="196" y="407.5" text-anchor="end" font-family="Helvetica Neue, Arial, sans-serif" font-size="16" fill="#1f2937">LATAMWIN</text><rect x="212.0" y="372.0" width="67.42857142857143" height="61.0" rx="6" fill="#f2ede5"/><text x="245.71428571428572" y="406.5" text-anchor="middle" font-family="Helvetica Neue, Arial, sans-serif" font-size="12" fill="#1f2937">$68.7 mil</text><rect x="283.42857142857144" y="372.0" width="67.42857142857143" height="61.0" rx="6" fill="#eee6df"/><text x="317.14285714285717" y="406.5" text-anchor="middle" font-family="Helvetica Neue, Arial, sans-serif" font-size="12" fill="#1f2937">$558 mil</text><rect x="354.8571428571429" y="372.0" width="67.42857142857143" height="61.0" rx="6" fill="#ddc3c3"/><text x="388.5714285714286" y="406.5" text-anchor="middle" font-family="Helvetica Neue, Arial, sans-serif" font-size="12" fill="#1f2937">$7.3 M</text><rect x="426.2857142857143" y="372.0" width="67.42857142857143" height="61.0" rx="6" fill="#ddc3c3"/><text x="460.0" y="406.5" text-anchor="middle" font-family="Helvetica Neue, Arial, sans-serif" font-size="12" fill="#1f2937">$7.3 M</text><rect x="497.7142857142857" y="372.0" width="67.42857142857143" height="61.0" rx="6" fill="#d0a8ae"/><text x="531.4285714285714" y="406.5" text-anchor="middle" font-family="Helvetica Neue, Arial, sans-serif" font-size="12" fill="#1f2937">$16.5 M</text><rect x="569.1428571428571" y="372.0" width="67.42857142857143" height="61.0" rx="6" fill="#ddc3c3"/><text x="602.8571428571428" y="406.5" text-anchor="middle" font-family="Helvetica Neue, Arial, sans-serif" font-size="12" fill="#1f2937">$7.3 M</text><rect x="640.5714285714286" y="372.0" width="67.42857142857143" height="61.0" rx="6" fill="#ddc3c3"/><text x="674.2857142857142" y="406.5" text-anchor="middle" font-family="Helvetica Neue, Arial, sans-serif" font-size="12" fill="#1f2937">$7.2 M</text><rect x="712.0" y="372.0" width="67.42857142857143" height="61.0" rx="6" fill="#dec5c5"/><text x="745.7142857142857" y="406.5" text-anchor="middle" font-family="Helvetica Neue, Arial, sans-serif" font-size="12" fill="#1f2937">$6.6 M</text><rect x="783.4285714285714" y="372.0" width="67.42857142857143" height="61.0" rx="6" fill="#e5d3d0"/><text x="817.1428571428571" y="406.5" text-anchor="middle" font-family="Helvetica Neue, Arial, sans-serif" font-size="12" fill="#1f2937">$3.3 M</text><rect x="854.8571428571429" y="372.0" width="67.42857142857143" height="61.0" rx="6" fill="#d2acb1"/><text x="888.5714285714286" y="406.5" text-anchor="middle" font-family="Helvetica Neue, Arial, sans-serif" font-size="12" fill="#1f2937">$14.9 M</text><rect x="926.2857142857143" y="372.0" width="67.42857142857143" height="61.0" rx="6" fill="#e2cdcb"/><text x="960.0" y="406.5" text-anchor="middle" font-family="Helvetica Neue, Arial, sans-serif" font-size="12" fill="#1f2937">$4.5 M</text><rect x="997.7142857142858" y="372.0" width="67.42857142857143" height="61.0" rx="6" fill="#d5b2b6"/><text x="1031.4285714285716" y="406.5" text-anchor="middle" font-family="Helvetica Neue, Arial, sans-serif" font-size="12" fill="#1f2937">$12.6 M</text><rect x="1069.142857142857" y="372.0" width="67.42857142857143" height="61.0" rx="6" fill="#ddc3c3"/><text x="1102.857142857143" y="406.5" text-anchor="middle" font-family="Helvetica Neue, Arial, sans-serif" font-size="12" fill="#1f2937">$7 M</text><rect x="1140.5714285714284" y="372.0" width="67.42857142857143" height="61.0" rx="6" fill="#d5b3b6"/><text x="1174.2857142857142" y="406.5" text-anchor="middle" font-family="Helvetica Neue, Arial, sans-serif" font-size="12" fill="#1f2937">$12.3 M</text><text x="196" y="472.5" text-anchor="end" font-family="Helvetica Neue, Arial, sans-serif" font-size="16" fill="#1f2937">ROJABET</text><rect x="212.0" y="437.0" width="67.42857142857143" height="61.0" rx="6" fill="#eee6df"/><text x="245.71428571428572" y="471.5" text-anchor="middle" font-family="Helvetica Neue, Arial, sans-serif" font-size="12" fill="#1f2937">$553 mil</text><rect x="283.42857142857144" y="437.0" width="67.42857142857143" height="61.0" rx="6" fill="#eee4de"/><text x="317.14285714285717" y="471.5" text-anchor="middle" font-family="Helvetica Neue, Arial, sans-serif" font-size="12" fill="#1f2937">$691.7 mil</text><rect x="354.8571428571429" y="437.0" width="67.42857142857143" height="61.0" rx="6" fill="#e8d9d5"/><text x="388.5714285714286" y="471.5" text-anchor="middle" font-family="Helvetica Neue, Arial, sans-serif" font-size="12" fill="#1f2937">$2.1 M</text><rect x="426.2857142857143" y="437.0" width="67.42857142857143" height="61.0" rx="6" fill="#e7d6d3"/><text x="460.0" y="471.5" text-anchor="middle" font-family="Helvetica Neue, Arial, sans-serif" font-size="12" fill="#1f2937">$2.6 M</text><rect x="497.7142857142857" y="437.0" width="67.42857142857143" height="61.0" rx="6" fill="#e7d8d4"/><text x="531.4285714285714" y="471.5" text-anchor="middle" font-family="Helvetica Neue, Arial, sans-serif" font-size="12" fill="#1f2937">$2.4 M</text><rect x="569.1428571428571" y="437.0" width="67.42857142857143" height="61.0" rx="6" fill="#e9dad6"/><text x="602.8571428571428" y="471.5" text-anchor="middle" font-family="Helvetica Neue, Arial, sans-serif" font-size="12" fill="#1f2937">$2 M</text><rect x="640.5714285714286" y="437.0" width="67.42857142857143" height="61.0" rx="6" fill="#e8dad5"/><text x="674.2857142857142" y="471.5" text-anchor="middle" font-family="Helvetica Neue, Arial, sans-serif" font-size="12" fill="#1f2937">$2.1 M</text><rect x="712.0" y="437.0" width="67.42857142857143" height="61.0" rx="6" fill="#e9dcd7"/><text x="745.7142857142857" y="471.5" text-anchor="middle" font-family="Helvetica Neue, Arial, sans-serif" font-size="12" fill="#1f2937">$1.8 M</text><rect x="783.4285714285714" y="437.0" width="67.42857142857143" height="61.0" rx="6" fill="#e8d9d5"/><text x="817.1428571428571" y="471.5" text-anchor="middle" font-family="Helvetica Neue, Arial, sans-serif" font-size="12" fill="#1f2937">$2.2 M</text><rect x="854.8571428571429" y="437.0" width="67.42857142857143" height="61.0" rx="6" fill="#e3cfcd"/><text x="888.5714285714286" y="471.5" text-anchor="middle" font-family="Helvetica Neue, Arial, sans-serif" font-size="12" fill="#1f2937">$4.1 M</text><rect x="926.2857142857143" y="437.0" width="67.42857142857143" height="61.0" rx="6" fill="#e1cbca"/><text x="960.0" y="471.5" text-anchor="middle" font-family="Helvetica Neue, Arial, sans-serif" font-size="12" fill="#1f2937">$5 M</text><rect x="997.7142857142858" y="437.0" width="67.42857142857143" height="61.0" rx="6" fill="#e3cecc"/><text x="1031.4285714285716" y="471.5" text-anchor="middle" font-family="Helvetica Neue, Arial, sans-serif" font-size="12" fill="#1f2937">$4.2 M</text><rect x="1069.142857142857" y="437.0" width="67.42857142857143" height="61.0" rx="6" fill="#e3cfcd"/><text x="1102.857142857143" y="471.5" text-anchor="middle" font-family="Helvetica Neue, Arial, sans-serif" font-size="12" fill="#1f2937">$4.1 M</text><rect x="1140.5714285714284" y="437.0" width="67.42857142857143" height="61.0" rx="6" fill="#e2cdcb"/><text x="1174.2857142857142" y="471.5" text-anchor="middle" font-family="Helvetica Neue, Arial, sans-serif" font-size="12" fill="#1f2937">$4.6 M</text><text x="196" y="537.5" text-anchor="end" font-family="Helvetica Neue, Arial, sans-serif" font-size="16" fill="#1f2937">TONYBET</text><rect x="212.0" y="502.0" width="67.42857142857143" height="61.0" rx="6" fill="#ece1db"/><text x="245.71428571428572" y="536.5" text-anchor="middle" font-family="Helvetica Neue, Arial, sans-serif" font-size="12" fill="#1f2937">$1.1 M</text><rect x="283.42857142857144" y="502.0" width="67.42857142857143" height="61.0" rx="6" fill="#eaddd8"/><text x="317.14285714285717" y="536.5" text-anchor="middle" font-family="Helvetica Neue, Arial, sans-serif" font-size="12" fill="#1f2937">$1.6 M</text><rect x="354.8571428571429" y="502.0" width="67.42857142857143" height="61.0" rx="6" fill="#eaddd8"/><text x="388.5714285714286" y="536.5" text-anchor="middle" font-family="Helvetica Neue, Arial, sans-serif" font-size="12" fill="#1f2937">$1.5 M</text><rect x="426.2857142857143" y="502.0" width="67.42857142857143" height="61.0" rx="6" fill="#ebded9"/><text x="460.0" y="536.5" text-anchor="middle" font-family="Helvetica Neue, Arial, sans-serif" font-size="12" fill="#1f2937">$1.4 M</text><rect x="497.7142857142857" y="502.0" width="67.42857142857143" height="61.0" rx="6" fill="#e7d7d3"/><text x="531.4285714285714" y="536.5" text-anchor="middle" font-family="Helvetica Neue, Arial, sans-serif" font-size="12" fill="#1f2937">$2.5 M</text><rect x="569.1428571428571" y="502.0" width="67.42857142857143" height="61.0" rx="6" fill="#e4d1ce"/><text x="602.8571428571428" y="536.5" text-anchor="middle" font-family="Helvetica Neue, Arial, sans-serif" font-size="12" fill="#1f2937">$3.7 M</text><rect x="640.5714285714286" y="502.0" width="67.42857142857143" height="61.0" rx="6" fill="#e6d5d2"/><text x="674.2857142857142" y="536.5" text-anchor="middle" font-family="Helvetica Neue, Arial, sans-serif" font-size="12" fill="#1f2937">$2.9 M</text><rect x="712.0" y="502.0" width="67.42857142857143" height="61.0" rx="6" fill="#eee5de"/><text x="745.7142857142857" y="536.5" text-anchor="middle" font-family="Helvetica Neue, Arial, sans-serif" font-size="12" fill="#1f2937">$668 mil</text><rect x="783.4285714285714" y="502.0" width="67.42857142857143" height="61.0" rx="6" fill="#eee5de"/><text x="817.1428571428571" y="536.5" text-anchor="middle" font-family="Helvetica Neue, Arial, sans-serif" font-size="12" fill="#1f2937">$613 mil</text><rect x="854.8571428571429" y="502.0" width="67.42857142857143" height="61.0" rx="6" fill="#ece1db"/><text x="888.5714285714286" y="536.5" text-anchor="middle" font-family="Helvetica Neue, Arial, sans-serif" font-size="12" fill="#1f2937">$1 M</text><rect x="926.2857142857143" y="502.0" width="67.42857142857143" height="61.0" rx="6" fill="#ece0da"/><text x="960.0" y="536.5" text-anchor="middle" font-family="Helvetica Neue, Arial, sans-serif" font-size="12" fill="#1f2937">$1.2 M</text><rect x="997.7142857142858" y="502.0" width="67.42857142857143" height="61.0" rx="6" fill="#eaddd8"/><text x="1031.4285714285716" y="536.5" text-anchor="middle" font-family="Helvetica Neue, Arial, sans-serif" font-size="12" fill="#1f2937">$1.5 M</text><rect x="1069.142857142857" y="502.0" width="67.42857142857143" height="61.0" rx="6" fill="#e9dcd7"/><text x="1102.857142857143" y="536.5" text-anchor="middle" font-family="Helvetica Neue, Arial, sans-serif" font-size="12" fill="#1f2937">$1.8 M</text><rect x="1140.5714285714284" y="502.0" width="67.42857142857143" height="61.0" rx="6" fill="#e2cdcb"/><text x="1174.2857142857142" y="536.5" text-anchor="middle" font-family="Helvetica Neue, Arial, sans-serif" font-size="12" fill="#1f2937">$4.5 M</text><text x="196" y="602.5" text-anchor="end" font-family="Helvetica Neue, Arial, sans-serif" font-size="16" fill="#1f2937">BETSSON</text><rect x="212.0" y="567.0" width="67.42857142857143" height="61.0" rx="6" fill="#f0eae2"/><text x="245.71428571428572" y="601.5" text-anchor="middle" font-family="Helvetica Neue, Arial, sans-serif" font-size="12" fill="#1f2937">$254.4 mil</text><rect x="283.42857142857144" y="567.0" width="67.42857142857143" height="61.0" rx="6" fill="#eee5df"/><text x="317.14285714285717" y="601.5" text-anchor="middle" font-family="Helvetica Neue, Arial, sans-serif" font-size="12" fill="#1f2937">$603.9 mil</text><rect x="354.8571428571429" y="567.0" width="67.42857142857143" height="61.0" rx="6" fill="#eee4de"/><text x="388.5714285714286" y="601.5" text-anchor="middle" font-family="Helvetica Neue, Arial, sans-serif" font-size="12" fill="#1f2937">$718.3 mil</text><rect x="426.2857142857143" y="567.0" width="67.42857142857143" height="61.0" rx="6" fill="#eee4de"/><text x="460.0" y="601.5" text-anchor="middle" font-family="Helvetica Neue, Arial, sans-serif" font-size="12" fill="#1f2937">$721.5 mil</text><rect x="497.7142857142857" y="567.0" width="67.42857142857143" height="61.0" rx="6" fill="#ede3dd"/><text x="531.4285714285714" y="601.5" text-anchor="middle" font-family="Helvetica Neue, Arial, sans-serif" font-size="12" fill="#1f2937">$849.4 mil</text><rect x="569.1428571428571" y="567.0" width="67.42857142857143" height="61.0" rx="6" fill="#ece2dc"/><text x="602.8571428571428" y="601.5" text-anchor="middle" font-family="Helvetica Neue, Arial, sans-serif" font-size="12" fill="#1f2937">$951.3 mil</text><rect x="640.5714285714286" y="567.0" width="67.42857142857143" height="61.0" rx="6" fill="#f1ebe3"/><text x="674.2857142857142" y="601.5" text-anchor="middle" font-family="Helvetica Neue, Arial, sans-serif" font-size="12" fill="#1f2937">$159.9 mil</text><rect x="712.0" y="567.0" width="67.42857142857143" height="61.0" rx="6" fill="#f1ece4"/><text x="745.7142857142857" y="601.5" text-anchor="middle" font-family="Helvetica Neue, Arial, sans-serif" font-size="12" fill="#1f2937">$148.5 mil</text><rect x="783.4285714285714" y="567.0" width="67.42857142857143" height="61.0" rx="6" fill="#f1ece4"/><text x="817.1428571428571" y="601.5" text-anchor="middle" font-family="Helvetica Neue, Arial, sans-serif" font-size="12" fill="#1f2937">$141.4 mil</text><rect x="854.8571428571429" y="567.0" width="67.42857142857143" height="61.0" rx="6" fill="#f0e8e1"/><text x="888.5714285714286" y="601.5" text-anchor="middle" font-family="Helvetica Neue, Arial, sans-serif" font-size="12" fill="#1f2937">$362.7 mil</text><rect x="926.2857142857143" y="567.0" width="67.42857142857143" height="61.0" rx="6" fill="#eee4de"/><text x="960.0" y="601.5" text-anchor="middle" font-family="Helvetica Neue, Arial, sans-serif" font-size="12" fill="#1f2937">$691.3 mil</text><rect x="997.7142857142858" y="567.0" width="67.42857142857143" height="61.0" rx="6" fill="#f0e9e2"/><text x="1031.4285714285716" y="601.5" text-anchor="middle" font-family="Helvetica Neue, Arial, sans-serif" font-size="12" fill="#1f2937">$282.4 mil</text><rect x="1069.142857142857" y="567.0" width="67.42857142857143" height="61.0" rx="6" fill="#f1ebe4"/><text x="1102.857142857143" y="601.5" text-anchor="middle" font-family="Helvetica Neue, Arial, sans-serif" font-size="12" fill="#1f2937">$153 mil</text><rect x="1140.5714285714284" y="567.0" width="67.42857142857143" height="61.0" rx="6" fill="#f2eee5"/><text x="1174.2857142857142" y="601.5" text-anchor="middle" font-family="Helvetica Neue, Arial, sans-serif" font-size="12" fill="#1f2937">$58.8 mil</text><text x="196" y="667.5" text-anchor="end" font-family="Helvetica Neue, Arial, sans-serif" font-size="16" fill="#1f2937">APUESTAS ROYAL</text><rect x="212.0" y="632.0" width="67.42857142857143" height="61.0" rx="6" fill="#f2eee6"/><text x="245.71428571428572" y="666.5" text-anchor="middle" font-family="Helvetica Neue, Arial, sans-serif" font-size="12" fill="#1f2937">$52.8 mil</text><rect x="283.42857142857144" y="632.0" width="67.42857142857143" height="61.0" rx="6" fill="#f3eee6"/><text x="317.14285714285717" y="666.5" text-anchor="middle" font-family="Helvetica Neue, Arial, sans-serif" font-size="12" fill="#1f2937">$46.4 mil</text><rect x="354.8571428571429" y="632.0" width="67.42857142857143" height="61.0" rx="6" fill="#f4f0e7"/><text x="388.5714285714286" y="666.5" text-anchor="middle" font-family="Helvetica Neue, Arial, sans-serif" font-size="12" fill="#1f2937">$3 mil</text><rect x="426.2857142857143" y="632.0" width="67.42857142857143" height="61.0" rx="6" fill="#f2ede5"/><text x="460.0" y="666.5" text-anchor="middle" font-family="Helvetica Neue, Arial, sans-serif" font-size="12" fill="#1f2937">$75.4 mil</text><rect x="497.7142857142857" y="632.0" width="67.42857142857143" height="61.0" rx="6" fill="#f2eee5"/><text x="531.4285714285714" y="666.5" text-anchor="middle" font-family="Helvetica Neue, Arial, sans-serif" font-size="12" fill="#1f2937">$60.9 mil</text><rect x="569.1428571428571" y="632.0" width="67.42857142857143" height="61.0" rx="6" fill="#f1ece4"/><text x="602.8571428571428" y="666.5" text-anchor="middle" font-family="Helvetica Neue, Arial, sans-serif" font-size="12" fill="#1f2937">$142.2 mil</text><rect x="640.5714285714286" y="632.0" width="67.42857142857143" height="61.0" rx="6" fill="#f0e9e2"/><text x="674.2857142857142" y="666.5" text-anchor="middle" font-family="Helvetica Neue, Arial, sans-serif" font-size="12" fill="#1f2937">$287.1 mil</text><rect x="712.0" y="632.0" width="67.42857142857143" height="61.0" rx="6" fill="#eee5df"/><text x="745.7142857142857" y="666.5" text-anchor="middle" font-family="Helvetica Neue, Arial, sans-serif" font-size="12" fill="#1f2937">$600.3 mil</text><rect x="783.4285714285714" y="632.0" width="67.42857142857143" height="61.0" rx="6" fill="#eee5de"/><text x="817.1428571428571" y="666.5" text-anchor="middle" font-family="Helvetica Neue, Arial, sans-serif" font-size="12" fill="#1f2937">$666.2 mil</text><rect x="854.8571428571429" y="632.0" width="67.42857142857143" height="61.0" rx="6" fill="#ede3dd"/><text x="888.5714285714286" y="666.5" text-anchor="middle" font-family="Helvetica Neue, Arial, sans-serif" font-size="12" fill="#1f2937">$809 mil</text><rect x="926.2857142857143" y="632.0" width="67.42857142857143" height="61.0" rx="6" fill="#ede2dc"/><text x="960.0" y="666.5" text-anchor="middle" font-family="Helvetica Neue, Arial, sans-serif" font-size="12" fill="#1f2937">$885.1 mil</text><rect x="997.7142857142858" y="632.0" width="67.42857142857143" height="61.0" rx="6" fill="#eee5de"/><text x="1031.4285714285716" y="666.5" text-anchor="middle" font-family="Helvetica Neue, Arial, sans-serif" font-size="12" fill="#1f2937">$611.9 mil</text><rect x="1069.142857142857" y="632.0" width="67.42857142857143" height="61.0" rx="6" fill="#eee5df"/><text x="1102.857142857143" y="666.5" text-anchor="middle" font-family="Helvetica Neue, Arial, sans-serif" font-size="12" fill="#1f2937">$602.3 mil</text><rect x="1140.5714285714284" y="632.0" width="67.42857142857143" height="61.0" rx="6" fill="#efe7e0"/><text x="1174.2857142857142" y="666.5" text-anchor="middle" font-family="Helvetica Neue, Arial, sans-serif" font-size="12" fill="#1f2937">$428.6 mil</text><text x="196" y="732.5" text-anchor="end" font-family="Helvetica Neue, Arial, sans-serif" font-size="16" fill="#1f2937">JUEGA EN LINEA</text><rect x="212.0" y="697.0" width="67.42857142857143" height="61.0" rx="6" fill="#f3eee6"/><text x="245.71428571428572" y="731.5" text-anchor="middle" font-family="Helvetica Neue, Arial, sans-serif" font-size="12" fill="#1f2937">$41.8 mil</text><rect x="283.42857142857144" y="697.0" width="67.42857142857143" height="61.0" rx="6" fill="#f3eee6"/><text x="317.14285714285717" y="731.5" text-anchor="middle" font-family="Helvetica Neue, Arial, sans-serif" font-size="12" fill="#1f2937">$39.8 mil</text><rect x="354.8571428571429" y="697.0" width="67.42857142857143" height="61.0" rx="6" fill="#f2eee5"/><text x="388.5714285714286" y="731.5" text-anchor="middle" font-family="Helvetica Neue, Arial, sans-serif" font-size="12" fill="#1f2937">$62.5 mil</text><rect x="426.2857142857143" y="697.0" width="67.42857142857143" height="61.0" rx="6" fill="#f2eee5"/><text x="460.0" y="731.5" text-anchor="middle" font-family="Helvetica Neue, Arial, sans-serif" font-size="12" fill="#1f2937">$60.2 mil</text><rect x="497.7142857142857" y="697.0" width="67.42857142857143" height="61.0" rx="6" fill="#f3eee6"/><text x="531.4285714285714" y="731.5" text-anchor="middle" font-family="Helvetica Neue, Arial, sans-serif" font-size="12" fill="#1f2937">$47.4 mil</text><rect x="569.1428571428571" y="697.0" width="67.42857142857143" height="61.0" rx="6" fill="#f2ede5"/><text x="602.8571428571428" y="731.5" text-anchor="middle" font-family="Helvetica Neue, Arial, sans-serif" font-size="12" fill="#1f2937">$79.9 mil</text><rect x="640.5714285714286" y="697.0" width="67.42857142857143" height="61.0" rx="6" fill="#f1ece4"/><text x="674.2857142857142" y="731.5" text-anchor="middle" font-family="Helvetica Neue, Arial, sans-serif" font-size="12" fill="#1f2937">$149.3 mil</text><rect x="712.0" y="697.0" width="67.42857142857143" height="61.0" rx="6" fill="#f2eee5"/><text x="745.7142857142857" y="731.5" text-anchor="middle" font-family="Helvetica Neue, Arial, sans-serif" font-size="12" fill="#1f2937">$62.3 mil</text><rect x="783.4285714285714" y="697.0" width="67.42857142857143" height="61.0" rx="6" fill="#f2ede5"/><text x="817.1428571428571" y="731.5" text-anchor="middle" font-family="Helvetica Neue, Arial, sans-serif" font-size="12" fill="#1f2937">$77.6 mil</text><rect x="854.8571428571429" y="697.0" width="67.42857142857143" height="61.0" rx="6" fill="#f2ede4"/><text x="888.5714285714286" y="731.5" text-anchor="middle" font-family="Helvetica Neue, Arial, sans-serif" font-size="12" fill="#1f2937">$100.2 mil</text><rect x="926.2857142857143" y="697.0" width="67.42857142857143" height="61.0" rx="6" fill="#f2ede5"/><text x="960.0" y="731.5" text-anchor="middle" font-family="Helvetica Neue, Arial, sans-serif" font-size="12" fill="#1f2937">$89.9 mil</text><rect x="997.7142857142858" y="697.0" width="67.42857142857143" height="61.0" rx="6" fill="#f3efe6"/><text x="1031.4285714285716" y="731.5" text-anchor="middle" font-family="Helvetica Neue, Arial, sans-serif" font-size="12" fill="#1f2937">$30 mil</text><rect x="1069.142857142857" y="697.0" width="67.42857142857143" height="61.0" rx="6" fill="#f4f1e8"/><rect x="1140.5714285714284" y="697.0" width="67.42857142857143" height="61.0" rx="6" fill="#f2eee5"/><text x="1174.2857142857142" y="731.5" text-anchor="middle" font-family="Helvetica Neue, Arial, sans-serif" font-size="12" fill="#1f2937">$58.8 mil</text><rect x="48" y="802" width="44" height="16" rx="6" fill="#f4f1e8"/><text x="70" y="836" text-anchor="middle" font-family="Helvetica Neue, Arial, sans-serif" font-size="13" fill="#64748b">$0</text><rect x="138" y="802" width="44" height="16" rx="6" fill="#c99aa2"/><text x="160" y="836" text-anchor="middle" font-family="Helvetica Neue, Arial, sans-serif" font-size="13" fill="#64748b">$22.8 M</text><rect x="228" y="802" width="44" height="16" rx="6" fill="#b57282"/><text x="250" y="836" text-anchor="middle" font-family="Helvetica Neue, Arial, sans-serif" font-size="13" fill="#64748b">$45.6 M</text><rect x="318" y="802" width="44" height="16" rx="6" fill="#a55268"/><text x="340" y="836" text-anchor="middle" font-family="Helvetica Neue, Arial, sans-serif" font-size="13" fill="#64748b">$68.3 M</text><rect x="408" y="802" width="44" height="16" rx="6" fill="#973653"/><text x="430" y="836" text-anchor="middle" font-family="Helvetica Neue, Arial, sans-serif" font-size="13" fill="#64748b">$91.1 M</text><rect x="498" y="802" width="44" height="16" rx="6" fill="#8b1e3f"/><text x="520" y="836" text-anchor="middle" font-family="Helvetica Neue, Arial, sans-serif" font-size="13" fill="#64748b">$113.9 M</text></svg>