<svg xmlns="http://www.w3.org/2000/svg" width="1280" height="900" viewBox="0 0 1280 900" role="img" aria-labelledby="title desc"><title id="title">Evolucion semanal estimada de la inversion por marca</title><desc id="desc">Lineas con la evolucion semanal de la inversion estimada total por marca.</desc><rect width="100%" height="100%" fill="#f6f2e9"/><text x="48" y="52" font-family="Helvetica Neue, Arial, sans-serif" font-size="34" font-weight="700" fill="#1f2937">Evolucion semanal estimada de la inversion por marca</text><text x="48" y="82" font-family="Helvetica Neue, Arial, sans-serif" font-size="18" fill="#5f6b7a">Serie semanal en CLP valorizada con tarifas estandar a partir de observacion de pauta.</text><line x1="82" y1="710.0" x2="1232" y2="710.0" stroke="#e8e3d8" stroke-width="1"/><text x="70" y="714.0" text-anchor="end" font-family="Helvetica Neue, Arial, sans-serif" font-size="14" fill="#64748b">$0</text><line x1="82" y1="552.5" x2="1232" y2="552.5" stroke="#e8e3d8" stroke-width="1"/><text x="70" y="556.5" text-anchor="end" font-family="Helvetica Neue, Arial, sans-serif" font-size="14" fill="#64748b">$28.5 M</text><line x1="82" y1="395.0" x2="1232" y2="395.0" stroke="#e8e3d8" stroke-width="1"/><text x="70" y="399.0" text-anchor="end" font-family="Helvetica Neue, Arial, sans-serif" font-size="14" fill="#64748b">$56.9 M</text><line x1="82" y1="237.5" x2="1232" y2="237.5" stroke="#e8e3d8" stroke-width="1"/><text x="70" y="241.5" text-anchor="end" font-family="Helvetica Neue, Arial, sans-serif" font-size="14" fill="#64748b">$85.4 M</text><line x1="82" y1="80.0" x2="1232" y2="80.0" stroke="#e8e3d8" stroke-width="1"/><text x="70" y="84.0" text-anchor="end" font-family="Helvetica Neue, Arial, sans-serif" font-size="14" fill="#64748b">$113.9 M</text><line x1="82.0" y1="80" x2="82.0" y2="710" stroke="#efeadd" stroke-width="1"/><text x="82.0" y="874" text-anchor="middle" font-family="Helvetica Neue, Arial, sans-serif" font-size="15" fill="#64748b">2026-01-04</text><line x1="170.46153846153845" y1="80" x2="170.46153846153845" y2="710" stroke="#efeadd" stroke-width="1"/><text x="170.46153846153845" y="874" text-anchor="middle" font-family="Helvetica Neue, Arial, sans-serif" font-size="15" fill="#64748b">2026-01-11</text><line x1="258.9230769230769" y1="80" x2="258.9230769230769" y2="710" stroke="#efeadd" stroke-width="1"/><text x="258.9230769230769" y="874" text-anchor="middle" font-family="Helvetica Neue, Arial, sans-serif" font-size="15" fill="#64748b">2026-01-18</text><line x1="347.38461538461536" y1="80" x2="347.38461538461536" y2="710" stroke="#efeadd" stroke-width="1"/><text x="347.38461538461536" y="874" text-anchor="middle" font-family="Helvetica Neue, Arial, sans-serif" font-size="15" fill="#64748b">2026-01-25</text><line x1="435.84615384615387" y1="80" x2="435.84615384615387" y2="710" stroke="#efeadd" stroke-width="1"/><text x="435.84615384615387" y="874" text-anchor="middle" font-family="Helvetica Neue, Arial, sans-serif" font-size="15" fill="#64748b">2026-02-01</text><line x1="524.3076923076924" y1="80" x2="524.3076923076924" y2="710" stroke="#efeadd" stroke-width="1"/><text x="524.3076923076924" y="874" text-anchor="middle" font-family="Helvetica Neue, Arial, sans-serif" font-size="15" fill="#64748b">2026-02-08</text><line x1="612.7692307692307" y1="80" x2="612.7692307692307" y2="710" stroke="#efeadd" stroke-width="1"/><text x="612.7692307692307" y="874" text-anchor="middle" font-family="Helvetica Neue, Arial, sans-serif" font-size="15" fill="#64748b">2026-02-15</text><line x1="701.2307692307693" y1="80" x2="701.2307692307693" y2="710" stroke="#efeadd" stroke-width="1"/><text x="701.2307692307693" y="874" text-anchor="middle" font-family="Helvetica Neue, Arial, sans-serif" font-size="15" fill="#64748b">2026-02-22</text><line x1="789.6923076923077" y1="80" x2="789.6923076923077" y2="710" stroke="#efeadd" stroke-width="1"/><text x="789.6923076923077" y="874" text-anchor="middle" font-family="Helvetica Neue, Arial, sans-serif" font-size="15" fill="#64748b">2026-03-01</text><line x1="878.1538461538462" y1="80" x2="878.1538461538462" y2="710" stroke="#efeadd" stroke-width="1"/><text x="878.1538461538462" y="874" text-anchor="middle" font-family="Helvetica Neue, Arial, sans-serif" font-size="15" fill="#64748b">2026-03-08</text><line x1="966.6153846153846" y1="80" x2="966.6153846153846" y2="710" stroke="#efeadd" stroke-width="1"/><text x="966.6153846153846" y="874" text-anchor="middle" font-family="Helvetica Neue, Arial, sans-serif" font-size="15" fill="#64748b">2026-03-15</text><line x1="1055.076923076923" y1="80" x2="1055.076923076923" y2="710" stroke="#efeadd" stroke-width="1"/><text x="1055.076923076923" y="874" text-anchor="middle" font-family="Helvetica Neue, Arial, sans-serif" font-size="15" fill="#64748b">2026-03-22</text><line x1="1143.5384615384614" y1="80" x2="1143.5384615384614" y2="710" stroke="#efeadd" stroke-width="1"/><text x="1143.5384615384614" y="874" text-anchor="middle" font-family="Helvetica Neue, Arial, sans-serif" font-size="15" fill="#64748b">2026-03-29</text><line x1="1232.0" y1="80" x2="1232.0" y2="710" stroke="#efeadd" stroke-width="1"/><text x="1232.0" y="874" text-anchor="middle" font-family="Helvetica Neue, Arial, sans-serif" font-size="15" fill="#64748b">2026-04-05</text><polyline fill="none" stroke="#8b1e3f" stroke-width="3" points="82.0,606.5042240694754 170.46153846153845,346.6377038298767 258.9230769230769,392.0942666302173 347.38461538461536,317.75321675064197 435.84615384615387,314.87386202421436 524.3076923076924,180.066375225304 612.7692307692307,419.3922566391612 701.2307692307693,259.01479391306634 789.6923076923077,388.634561227447 878.1538461538462,213.37907179682702 966.6153846153846,300.7064868082352 1055.076923076923,154.81342609994942 1143.5384615384614,226.86188369912577 1232.0,208.81622720019527"/><circle cx="82.0" cy="606.5042240694754" r="4.5" fill="#8b1e3f"/><circle cx="170.46153846153845" cy="346.6377038298767" r="4.5" fill="#8b1e3f"/><circle cx="258.9230769230769" cy="392.0942666302173" r="4.5" fill="#8b1e3f"/><circle cx="347.38461538461536" cy="317.75321675064197" r="4.5" fill="#8b1e3f"/><circle cx="435.84615384615387" cy="314.87386202421436" r="4.5" fill="#8b1e3f"/><circle cx="524.3076923076924" cy="180.066375225304" r="4.5" fill="#8b1e3f"/><circle cx="612.7692307692307" cy="419.3922566391612" r="4.5" fill="#8b1e3f"/><circle cx="701.2307692307693" cy="259.01479391306634" r="4.5" fill="#8b1e3f"/><circle cx="789.6923076923077" cy="388.634561227447" r="4.5" fill="#8b1e3f"/><circle cx="878.1538461538462" cy="213.37907179682702" r="4.5" fill="#8b1e3f"/><circle cx="966.6153846153846" cy="300.7064868082352" r="4.5" fill="#8b1e3f"/><circle cx="1055.076923076923" cy="154.81342609994942" r="4.5" fill="#8b1e3f"/><circle cx="1143.5384615384614" cy="226.86188369912577" r="4.5" fill="#8b1e3f"/><circle cx="1232.0" cy="208.81622720019527" r="4.5" fill="#8b1e3f"/><rect x="70" y="778" width="14" height="14" rx="7" fill="#8b1e3f"/><text x="92" y="790" font-family="Helvetica Neue, Arial, sans-serif" font-size="15" fill="#334155">BETANO</text><polyline fill="none" stroke="#0b6e4f" stroke-width="3" points="82.0,710.0 170.46153846153845,452.3614971506319 258.9230769230769,408.0618883773461 347.38461538461536,454.79125417240095 435.84615384615387,531.906395343232 524.3076923076924,80.0 612.7692307692307,588.2324229435732 701.2307692307693,466.8981091507834 789.6923076923077,618.0083915050893 878.1538461538462,649.7828562927095 966.6153846153846,655.0454029715233 1055.076923076923,694.5974920840349 1143.5384615384614,670.1431374748263 1232.0,705.1692506897609"/><circle cx="82.0" cy="710.0" r="4.5" fill="#0b6e4f"/><circle cx="170.46153846153845" cy="452.3614971506319" r="4.5" fill="#0b6e4f"/><circle cx="258.9230769230769" cy="408.0618883773461" r="4.5" fill="#0b6e4f"/><circle cx="347.38461538461536" cy="454.79125417240095" r="4.5" fill="#0b6e4f"/><circle cx="435.84615384615387" cy="531.906395343232" r="4.5" fill="#0b6e4f"/><circle cx="524.3076923076924" cy="80.0" r="4.5" fill="#0b6e4f"/><circle cx="612.7692307692307" cy="588.2324229435732" r="4.5" fill="#0b6e4f"/><circle cx="701.2307692307693" cy="466.8981091507834" r="4.5" fill="#0b6e4f"/><circle cx="789.6923076923077" cy="618.0083915050893" r="4.5" fill="#0b6e4f"/><circle cx="878.1538461538462" cy="649.7828562927095" r="4.5" fill="#0b6e4f"/><circle cx="966.6153846153846" cy="655.0454029715233" r="4.5" fill="#0b6e4f"/><circle cx="1055.076923076923" cy="694.5974920840349" r="4.5" fill="#0b6e4f"/><circle cx="1143.5384615384614" cy="670.1431374748263" r="4.5" fill="#0b6e4f"/><circle cx="1232.0" cy="705.1692506897609" r="4.5" fill="#0b6e4f"/><rect x="430" y="778" width="14" height="14" rx="7" fill="#0b6e4f"/><text x="452" y="790" font-family="Helvetica Neue, Arial, sans-serif" font-size="15" fill="#334155">EPICBET</text><polyline fill="none" stroke="#2563eb" stroke-width="3" points="82.0,667.9081638870152 170.46153846153845,659.9835737910502 258.9230769230769,553.4584092723171 347.38461538461536,328.32609767881775 435.84615384615387,503.26512216029255 524.3076923076924,401.916898980522 612.7692307692307,643.7495952048663 701.2307692307693,328.2518441750124 789.6923076923077,583.2935077812555 878.1538461538462,641.7706425130009 966.6153846153846,659.3291754446957 1055.076923076923,643.3763029805164 1143.5384615384614,662.5179942267179 1232.0,641.4329049372452"/><circle cx="82.0" cy="667.9081638870152" r="4.5" fill="#2563eb"/><circle cx="170.46153846153845" cy="659.9835737910502" r="4.5" fill="#2563eb"/><circle cx="258.9230769230769" cy="553.4584092723171" r="4.5" fill="#2563eb"/><circle cx="347.38461538461536" cy="328.32609767881775" r="4.5" fill="#2563eb"/><circle cx="435.84615384615387" cy="503.26512216029255" r="4.5" fill="#2563eb"/><circle cx="524.3076923076924" cy="401.916898980522" r="4.5" fill="#2563eb"/><circle cx="612.7692307692307" cy="643.7495952048663" r="4.5" fill="#2563eb"/><circle cx="701.2307692307693" cy="328.2518441750124" r="4.5" fill="#2563eb"/><circle cx="789.6923076923077" cy="583.2935077812555" r="4.5" fill="#2563eb"/><circle cx="878.1538461538462" cy="641.7706425130009" r="4.5" fill="#2563eb"/><circle cx="966.6153846153846" cy="659.3291754446957" r="4.5" fill="#2563eb"/><circle cx="1055.076923076923" cy="643.3763029805164" r="4.5" fill="#2563eb"/><circle cx="1143.5384615384614" cy="662.5179942267179" r="4.5" fill="#2563eb"/><circle cx="1232.0" cy="641.4329049372452" r="4.5" fill="#2563eb"/><rect x="790" y="778" width="14" height="14" rx="7" fill="#2563eb"/><text x="812" y="790" font-family="Helvetica Neue, Arial, sans-serif" font-size="15" fill="#334155">JUGABET</text><polyline fill="none" stroke="#f97316" stroke-width="3" points="82.0,684.1757902412429 170.46153846153845,661.6004180421891 258.9230769230769,646.8576154552385 347.38461538461536,643.4441512973342 435.84615384615387,661.1524546169162 524.3076923076924,648.2684429802645 612.7692307692307,660.2997826787521 701.2307692307693,665.8821091103231 789.6923076923077,545.9511180683248 878.1538461538462,593.9228100699958 966.6153846153846,595.1201974656794 1055.076923076923,562.1251684857375 1143.5384615384614,490.1549323193747 1232.0,456.02914269978726"/><circle cx="82.0" cy="684.1757902412429" r="4.5" fill="#f97316"/><circle cx="170.46153846153845" cy="661.6004180421891" r="4.5" fill="#f97316"/><circle cx="258.9230769230769" cy="646.8576154552385" r="4.5" fill="#f97316"/><circle cx="347.38461538461536" cy="643.4441512973342" r="4.5" fill="#f97316"/><circle cx="435.84615384615387" cy="661.1524546169162" r="4.5" fill="#f97316"/><circle cx="524.3076923076924" cy="648.2684429802645" r="4.5" fill="#f97316"/><circle cx="612.7692307692307" cy="660.2997826787521" r="4.5" fill="#f97316"/><circle cx="701.2307692307693" cy="665.8821091103231" r="4.5" fill="#f97316"/><circle cx="789.6923076923077" cy="545.9511180683248" r="4.5" fill="#f97316"/><circle cx="878.1538461538462" cy="593.9228100699958" r="4.5" fill="#f97316"/><circle cx="966.6153846153846" cy="595.1201974656794" r="4.5" fill="#f97316"/><circle cx="1055.076923076923" cy="562.1251684857375" r="4.5" fill="#f97316"/><circle cx="1143.5384615384614" cy="490.1549323193747" r="4.5" fill="#f97316"/><circle cx="1232.0" cy="456.02914269978726" r="4.5" fill="#f97316"/><rect x="70" y="810" width="14" height="14" rx="7" fill="#f97316"/><text x="92" y="822" font-family="Helvetica Neue, Arial, sans-serif" font-size="15" fill="#334155">COOLBET</text><polyline fill="none" stroke="#7c3aed" stroke-width="3" points="82.0,709.6202225452606 170.46153846153845,706.9133699244272 258.9230769230769,669.7960592157333 347.38461538461536,669.818256185985 435.84615384615387,618.9030211767969 524.3076923076924,669.7842945504475 612.7692307692307,670.1834524101976 701.2307692307693,673.2639537168066 789.6923076923077,691.8623183152802 878.1538461538462,627.4752137849242 966.6153846153846,685.1994086660976 1055.076923076923,640.3200210261771 1143.5384615384614,671.109209174243 1232.0,641.6939537979379"/><circle cx="82.0" cy="709.6202225452606" r="4.5" fill="#7c3aed"/><circle cx="170.46153846153845" cy="706.9133699244272" r="4.5" fill="#7c3aed"/><circle cx="258.9230769230769" cy="669.7960592157333" r="4.5" fill="#7c3aed"/><circle cx="347.38461538461536" cy="669.818256185985" r="4.5" fill="#7c3aed"/><circle cx="435.84615384615387" cy="618.9030211767969" r="4.5" fill="#7c3aed"/><circle cx="524.3076923076924" cy="669.7842945504475" r="4.5" fill="#7c3aed"/><circle cx="612.7692307692307" cy="670.1834524101976" r="4.5" fill="#7c3aed"/><circle cx="701.2307692307693" cy="673.2639537168066" r="4.5" fill="#7c3aed"/><circle cx="789.6923076923077" cy="691.8623183152802" r="4.5" fill="#7c3aed"/><circle cx="878.1538461538462" cy="627.4752137849242" r="4.5" fill="#7c3aed"/><circle cx="966.6153846153846" cy="685.1994086660976" r="4.5" fill="#7c3aed"/><circle cx="1055.076923076923" cy="640.3200210261771" r="4.5" fill="#7c3aed"/><circle cx="1143.5384615384614" cy="671.109209174243" r="4.5" fill="#7c3aed"/><circle cx="1232.0" cy="641.6939537979379" r="4.5" fill="#7c3aed"/><rect x="430" y="810" width="14" height="14" rx="7" fill="#7c3aed"/><text x="452" y="822" font-family="Helvetica Neue, Arial, sans-serif" font-size="15" fill="#334155">LATAMWIN</text><polyline fill="none" stroke="#b91c1c" stroke-width="3" points="82.0,706.9409093354045 170.46153846153845,706.1735934796145 258.9230769230769,698.3270831501513 347.38461538461536,695.4311383084766 435.84615384615387,696.5271078372466 524.3076923076924,698.9790468937329 612.7692307692307,698.466204889088 701.2307692307693,700.1896383530199 789.6923076923077,697.6327024883127 878.1538461538462,687.4084661142749 966.6153846153846,682.3105698752006 1055.076923076923,686.5259198432249 1143.5384615384614,687.2553381628934 1232.0,684.3921132053464"/><circle cx="82.0" cy="706.9409093354045" r="4.5" fill="#b91c1c"/><circle cx="170.46153846153845" cy="706.1735934796145" r="4.5" fill="#b91c1c"/><circle cx="258.9230769230769" cy="698.3270831501513" r="4.5" fill="#b91c1c"/><circle cx="347.38461538461536" cy="695.4311383084766" r="4.5" fill="#b91c1c"/><circle cx="435.84615384615387" cy="696.5271078372466" r="4.5" fill="#b91c1c"/><circle cx="524.3076923076924" cy="698.9790468937329" r="4.5" fill="#b91c1c"/><circle cx="612.7692307692307" cy="698.466204889088" r="4.5" fill="#b91c1c"/><circle cx="701.2307692307693" cy="700.1896383530199" r="4.5" fill="#b91c1c"/><circle cx="789.6923076923077" cy="697.6327024883127" r="4.5" fill="#b91c1c"/><circle cx="878.1538461538462" cy="687.4084661142749" r="4.5" fill="#b91c1c"/><circle cx="966.6153846153846" cy="682.3105698752006" r="4.5" fill="#b91c1c"/><circle cx="1055.076923076923" cy="686.5259198432249" r="4.5" fill="#b91c1c"/><circle cx="1143.5384615384614" cy="687.2553381628934" r="4.5" fill="#b91c1c"/><circle cx="1232.0" cy="684.3921132053464" r="4.5" fill="#b91c1c"/><rect x="790" y="810" width="14" height="14" rx="7" fill="#b91c1c"/><text x="812" y="822" font-family="Helvetica Neue, Arial, sans-serif" font-size="15" fill="#334155">ROJABET</text><polyline fill="none" stroke="#0f766e" stroke-width="3" points="82.0,704.1369505705453 170.46153846153845,701.1794565014277 258.9230769230769,701.6675818005006 347.38461538461536,702.1127117889098 435.84615384615387,695.9691094607155 524.3076923076924,689.5804993125703 612.7692307692307,693.9959146940215 701.2307692307693,706.3050577699629 789.6923076923077,706.6088565560175 878.1538461538462,704.2779912490938 966.6153846153846,703.5083192297458 1055.076923076923,701.6981711029595 1143.5384615384614,700.3136945628912 1232.0,685.0942508860038"/><circle cx="82.0" cy="704.1369505705453" r="4.5" fill="#0f766e"/><circle cx="170.46153846153845" cy="701.1794565014277" r="4.5" fill="#0f766e"/><circle cx="258.9230769230769" cy="701.6675818005006" r="4.5" fill="#0f766e"/><circle cx="347.38461538461536" cy="702.1127117889098" r="4.5" fill="#0f766e"/><circle cx="435.84615384615387" cy="695.9691094607155" r="4.5" fill="#0f766e"/><circle cx="524.3076923076924" cy="689.5804993125703" r="4.5" fill="#0f766e"/><circle cx="612.7692307692307" cy="693.9959146940215" r="4.5" fill="#0f766e"/><circle cx="701.2307692307693" cy="706.3050577699629" r="4.5" fill="#0f766e"/><circle cx="789.6923076923077" cy="706.6088565560175" r="4.5" fill="#0f766e"/><circle cx="878.1538461538462" cy="704.2779912490938" r="4.5" fill="#0f766e"/><circle cx="966.6153846153846" cy="703.5083192297458" r="4.5" fill="#0f766e"/><circle cx="1055.076923076923" cy="701.6981711029595" r="4.5" fill="#0f766e"/><circle cx="1143.5384615384614" cy="700.3136945628912" r="4.5" fill="#0f766e"/><circle cx="1232.0" cy="685.0942508860038" r="4.5" fill="#0f766e"/><rect x="70" y="842" width="14" height="14" rx="7" fill="#0f766e"/><text x="92" y="854" font-family="Helvetica Neue, Arial, sans-serif" font-size="15" fill="#334155">TONYBET</text><polyline fill="none" stroke="#475569" stroke-width="3" points="82.0,708.5925194729606 170.46153846153845,706.6593523815224 258.9230769230769,706.0267845869708 347.38461538461536,706.009165136806 435.84615384615387,705.301350514765 524.3076923076924,704.7374824178202 612.7692307692307,709.1156429889887 701.2307692307693,709.1783353933132 789.6923076923077,709.217571595869 878.1538461538462,707.9938147394181 966.6153846153846,706.1762210273678 1055.076923076923,708.4379477532347 1143.5384615384614,709.1536917612273 1232.0,709.6746266129521"/><circle cx="82.0" cy="708.5925194729606" r="4.5" fill="#475569"/><circle cx="170.46153846153845" cy="706.6593523815224" r="4.5" fill="#475569"/><circle cx="258.9230769230769" cy="706.0267845869708" r="4.5" fill="#475569"/><circle cx="347.38461538461536" cy="706.009165136806" r="4.5" fill="#475569"/><circle cx="435.84615384615387" cy="705.301350514765" r="4.5" fill="#475569"/><circle cx="524.3076923076924" cy="704.7374824178202" r="4.5" fill="#475569"/><circle cx="612.7692307692307" cy="709.1156429889887" r="4.5" fill="#475569"/><circle cx="701.2307692307693" cy="709.1783353933132" r="4.5" fill="#475569"/><circle cx="789.6923076923077" cy="709.217571595869" r="4.5" fill="#475569"/><circle cx="878.1538461538462" cy="707.9938147394181" r="4.5" fill="#475569"/><circle cx="966.6153846153846" cy="706.1762210273678" r="4.5" fill="#475569"/><circle cx="1055.076923076923" cy="708.4379477532347" r="4.5" fill="#475569"/><circle cx="1143.5384615384614" cy="709.1536917612273" r="4.5" fill="#475569"/><circle cx="1232.0" cy="709.6746266129521" r="4.5" fill="#475569"/><rect x="430" y="842" width="14" height="14" rx="7" fill="#475569"/><text x="452" y="854" font-family="Helvetica Neue, Arial, sans-serif" font-size="15" fill="#334155">BETSSON</text><polyline fill="none" stroke="#d97706" stroke-width="3" points="82.0,709.707706056246 170.46153846153845,709.7433853888957 258.9230769230769,709.98349346843 347.38461538461536,709.5830994442664 435.84615384615387,709.6632977333759 524.3076923076924,709.2132292274767 612.7692307692307,708.4118548211247 701.2307692307693,706.6792277058961 789.6923076923077,706.3145683311772 878.1538461538462,705.5247938566959 966.6153846153846,705.1037943264672 1055.076923076923,706.6149606536907 1143.5384615384614,706.6683911457936 1232.0,707.6289894143148"/><circle cx="82.0" cy="709.707706056246" r="4.5" fill="#d97706"/><circle cx="170.46153846153845" cy="709.7433853888957" r="4.5" fill="#d97706"/><circle cx="258.9230769230769" cy="709.98349346843" r="4.5" fill="#d97706"/><circle cx="347.38461538461536" cy="709.5830994442664" r="4.5" fill="#d97706"/><circle cx="435.84615384615387" cy="709.6632977333759" r="4.5" fill="#d97706"/><circle cx="524.3076923076924" cy="709.2132292274767" r="4.5" fill="#d97706"/><circle cx="612.7692307692307" cy="708.4118548211247" r="4.5" fill="#d97706"/><circle cx="701.2307692307693" cy="706.6792277058961" r="4.5" fill="#d97706"/><circle cx="789.6923076923077" cy="706.3145683311772" r="4.5" fill="#d97706"/><circle cx="878.1538461538462" cy="705.5247938566959" r="4.5" fill="#d97706"/><circle cx="966.6153846153846" cy="705.1037943264672" r="4.5" fill="#d97706"/><circle cx="1055.076923076923" cy="706.6149606536907" r="4.5" fill="#d97706"/><circle cx="1143.5384615384614" cy="706.6683911457936" r="4.5" fill="#d97706"/><circle cx="1232.0" cy="707.6289894143148" r="4.5" fill="#d97706"/><rect x="790" y="842" width="14" height="14" rx="7" fill="#d97706"/><text x="812" y="854" font-family="Helvetica Neue, Arial, sans-serif" font-size="15" fill="#334155">APUESTAS ROYAL</text><polyline fill="none" stroke="#4f46e5" stroke-width="3" points="82.0,709.7688974946602 170.46153846153845,709.7798502200318 258.9230769230769,709.6544415145274 347.38461538461536,709.6670371487048 435.84615384615387,709.7376822273513 524.3076923076924,709.5580575312578 612.7692307692307,709.1742878081204 701.2307692307693,709.6555367870646 789.6923076923077,709.5706531654351 878.1538461538462,709.4459979299928 966.6153846153846,709.5026755179509 1055.076923076923,709.834066210621 1143.5384615384614,710.0 1232.0,709.6750001672674"/><circle cx="82.0" cy="709.7688974946602" r="4.5" fill="#4f46e5"/><circle cx="170.46153846153845" cy="709.7798502200318" r="4.5" fill="#4f46e5"/><circle cx="258.9230769230769" cy="709.6544415145274" r="4.5" fill="#4f46e5"/><circle cx="347.38461538461536" cy="709.6670371487048" r="4.5" fill="#4f46e5"/><circle cx="435.84615384615387" cy="709.7376822273513" r="4.5" fill="#4f46e5"/><circle cx="524.3076923076924" cy="709.5580575312578" r="4.5" fill="#4f46e5"/><circle cx="612.7692307692307" cy="709.1742878081204" r="4.5" fill="#4f46e5"/><circle cx="701.2307692307693" cy="709.6555367870646" r="4.5" fill="#4f46e5"/><circle cx="789.6923076923077" cy="709.5706531654351" r="4.5" fill="#4f46e5"/><circle cx="878.1538461538462" cy="709.4459979299928" r="4.5" fill="#4f46e5"/><circle cx="966.6153846153846" cy="709.5026755179509" r="4.5" fill="#4f46e5"/><circle cx="1055.076923076923" cy="709.834066210621" r="4.5" fill="#4f46e5"/><circle cx="1143.5384615384614" cy="710.0" r="4.5" fill="#4f46e5"/><circle cx="1232.0" cy="709.6750001672674" r="4.5" fill="#4f46e5"/><rect x="70" y="874" width="14" height="14" rx="7" fill="#4f46e5"/><text x="92" y="886" font-family="Helvetica Neue, Arial, sans-serif" font-size="15" fill="#334155">JUEGA EN LINEA</text></svg>