<svg xmlns="http://www.w3.org/2000/svg" width="1280" height="820" viewBox="0 0 1280 820" role="img" aria-labelledby="title desc"><title id="title">Distribucion estimada de inversion por marca y medio</title><desc id="desc">Barras horizontales stackeadas con la distribucion estimada de inversion por marca y desglose por medio.</desc><rect width="100%" height="100%" fill="#f6f2e9"/><text x="48" y="54" font-family="Helvetica Neue, Arial, sans-serif" font-size="34" font-weight="700" fill="#1f2937">Distribucion estimada de inversion por marca y medio</text><text x="48" y="84" font-family="Helvetica Neue, Arial, sans-serif" font-size="18" fill="#5f6b7a">Composicion por tipo de medio. Montos estimados en CLP segun observacion y tarifas estandar.</text><rect x="48" y="98" width="14" height="14" rx="7" fill="#b91c1c"/><text x="72" y="110" font-family="Helvetica Neue, Arial, sans-serif" font-size="16" fill="#334155">TV abierta</text><rect x="178" y="98" width="14" height="14" rx="7" fill="#f97316"/><text x="202" y="110" font-family="Helvetica Neue, Arial, sans-serif" font-size="16" fill="#334155">TV cable</text><rect x="308" y="98" width="14" height="14" rx="7" fill="#0f766e"/><text x="332" y="110" font-family="Helvetica Neue, Arial, sans-serif" font-size="16" fill="#334155">Radio</text><rect x="438" y="98" width="14" height="14" rx="7" fill="#7c3aed"/><text x="462" y="110" font-family="Helvetica Neue, Arial, sans-serif" font-size="16" fill="#334155">Via publica</text><rect x="568" y="98" width="14" height="14" rx="7" fill="#2563eb"/><text x="592" y="110" font-family="Helvetica Neue, Arial, sans-serif" font-size="16" fill="#334155">Digital</text><rect x="698" y="98" width="14" height="14" rx="7" fill="#475569"/><text x="722" y="110" font-family="Helvetica Neue, Arial, sans-serif" font-size="16" fill="#334155">Prensa</text><line x1="200.0" y1="110" x2="200.0" y2="740" stroke="#e8e3d8" stroke-width="1"/><text x="200.0" y="786" text-anchor="middle" font-family="Helvetica Neue, Arial, sans-serif" font-size="14" fill="#64748b">$0</text><line x1="382.0" y1="110" x2="382.0" y2="740" stroke="#e8e3d8" stroke-width="1"/><text x="382.0" y="786" text-anchor="middle" font-family="Helvetica Neue, Arial, sans-serif" font-size="14" fill="#64748b">$202.8 M</text><line x1="564.0" y1="110" x2="564.0" y2="740" stroke="#e8e3d8" stroke-width="1"/><text x="564.0" y="786" text-anchor="middle" font-family="Helvetica Neue, Arial, sans-serif" font-size="14" fill="#64748b">$405.7 M</text><line x1="746.0" y1="110" x2="746.0" y2="740" stroke="#e8e3d8" stroke-width="1"/><text x="746.0" y="786" text-anchor="middle" font-family="Helvetica Neue, Arial, sans-serif" font-size="14" fill="#64748b">$608.5 M</text><line x1="928.0" y1="110" x2="928.0" y2="740" stroke="#e8e3d8" stroke-width="1"/><text x="928.0" y="786" text-anchor="middle" font-family="Helvetica Neue, Arial, sans-serif" font-size="14" fill="#64748b">$811.4 M</text><line x1="1110.0" y1="110" x2="1110.0" y2="740" stroke="#e8e3d8" stroke-width="1"/><text x="1110.0" y="786" text-anchor="middle" font-family="Helvetica Neue, Arial, sans-serif" font-size="14" fill="#64748b">$1 MM</text><text x="186" y="132" text-anchor="end" font-family="Helvetica Neue, Arial, sans-serif" font-size="16" fill="#1f2937">BETANO</text><rect x="200" y="116" width="647.1675347811848" height="24" rx="4" fill="#b91c1c"/><rect x="847.1675347811848" y="116" width="26.597293148044525" height="24" rx="4" fill="#f97316"/><rect x="873.7648279292293" y="116" width="45.80397167803258" height="24" rx="4" fill="#0f766e"/><rect x="919.5687996072619" y="116" width="131.4270412798927" height="24" rx="4" fill="#7c3aed"/><rect x="1050.9958408871546" y="116" width="59.00415911284535" height="24" rx="4" fill="#2563eb"/><text x="1124" y="133" font-family="Helvetica Neue, Arial, sans-serif" font-size="15" fill="#334155">$1.014.240.189</text><text x="186" y="180" text-anchor="end" font-family="Helvetica Neue, Arial, sans-serif" font-size="16" fill="#1f2937">EPICBET</text><rect x="200" y="164" width="6.635472849859444" height="24" rx="4" fill="#f97316"/><rect x="206.63547284985944" y="164" width="359.11970353439835" height="24" rx="4" fill="#7c3aed"/><text x="1124" y="181" font-family="Helvetica Neue, Arial, sans-serif" font-size="15" fill="#334155">$407.652.307</text><text x="186" y="228" text-anchor="end" font-family="Helvetica Neue, Arial, sans-serif" font-size="16" fill="#1f2937">JUGABET</text><rect x="200" y="212" width="67.73604155899366" height="24" rx="4" fill="#b91c1c"/><rect x="267.73604155899363" y="212" width="7.38828273451969" height="24" rx="4" fill="#f97316"/><rect x="275.1243242935133" y="212" width="34.477563830996026" height="24" rx="4" fill="#0f766e"/><rect x="309.60188812450934" y="212" width="191.60086527922002" height="24" rx="4" fill="#7c3aed"/><rect x="501.2027534037294" y="212" width="26.666035881401648" height="24" rx="4" fill="#2563eb"/><text x="1124" y="229" font-family="Helvetica Neue, Arial, sans-serif" font-size="15" fill="#334155">$365.426.047</text><text x="186" y="276" text-anchor="end" font-family="Helvetica Neue, Arial, sans-serif" font-size="16" fill="#1f2937">COOLBET</text><rect x="200" y="260" width="1.1232572638183016" height="24" rx="4" fill="#b91c1c"/><rect x="201.1232572638183" y="260" width="0.014389668396628811" height="24" rx="4" fill="#f97316"/><rect x="201.13764693221492" y="260" width="0.1698102893180423" height="24" rx="4" fill="#0f766e"/><rect x="201.30745722153296" y="260" width="1.2547937986492887" height="24" rx="4" fill="#7c3aed"/><rect x="202.56225102018226" y="260" width="217.0719508507577" height="24" rx="4" fill="#2563eb"/><rect x="419.63420187093993" y="260" width="11.499496590545972" height="24" rx="4" fill="#475569"/><text x="1124" y="277" font-family="Helvetica Neue, Arial, sans-serif" font-size="15" fill="#334155">$257.609.985</text><text x="186" y="324" text-anchor="end" font-family="Helvetica Neue, Arial, sans-serif" font-size="16" fill="#1f2937">LATAMWIN</text><rect x="200" y="308" width="22.8785884966037" height="24" rx="4" fill="#0f766e"/><rect x="222.8785884966037" y="308" width="73.47588128723781" height="24" rx="4" fill="#2563eb"/><text x="1124" y="325" font-family="Helvetica Neue, Arial, sans-serif" font-size="15" fill="#334155">$107.391.841</text><text x="186" y="372" text-anchor="end" font-family="Helvetica Neue, Arial, sans-serif" font-size="16" fill="#1f2937">ROJABET</text><rect x="200" y="356" width="12.875856977946727" height="24" rx="4" fill="#b91c1c"/><rect x="212.87585697794674" y="356" width="13.528837304423227" height="24" rx="4" fill="#f97316"/><rect x="226.40469428236997" y="356" width="8.214720563310385" height="24" rx="4" fill="#0f766e"/><text x="1124" y="373" font-family="Helvetica Neue, Arial, sans-serif" font-size="15" fill="#334155">$38.585.057</text><text x="186" y="420" text-anchor="end" font-family="Helvetica Neue, Arial, sans-serif" font-size="16" fill="#1f2937">TONYBET</text><rect x="200" y="404" width="2.753459189634435" height="24" rx="4" fill="#b91c1c"/><rect x="202.75345918963444" y="404" width="20.530193124883084" height="24" rx="4" fill="#2563eb"/><text x="1124" y="421" font-family="Helvetica Neue, Arial, sans-serif" font-size="15" fill="#334155">$25.950.787</text><text x="186" y="468" text-anchor="end" font-family="Helvetica Neue, Arial, sans-serif" font-size="16" fill="#1f2937">BETSSON</text><rect x="200" y="452" width="3.549833754990423" height="24" rx="4" fill="#f97316"/><rect x="203.54983375499043" y="452" width="1.920349598897486" height="24" rx="4" fill="#2563eb"/><text x="1124" y="469" font-family="Helvetica Neue, Arial, sans-serif" font-size="15" fill="#334155">$6.096.791</text><text x="186" y="516" text-anchor="end" font-family="Helvetica Neue, Arial, sans-serif" font-size="16" fill="#1f2937">APUESTAS ROYAL</text><rect x="200" y="500" width="4.729544313204278" height="24" rx="4" fill="#f97316"/><text x="1124" y="517" font-family="Helvetica Neue, Arial, sans-serif" font-size="15" fill="#334155">$5.271.312</text><text x="186" y="564" text-anchor="end" font-family="Helvetica Neue, Arial, sans-serif" font-size="16" fill="#1f2937">JUEGA EN LINEA</text><rect x="200" y="548" width="0.6161798127618152" height="24" rx="4" fill="#f97316"/><rect x="200.61617981276183" y="548" width="0.19088405648225243" height="24" rx="4" fill="#2563eb"/><text x="1124" y="565" font-family="Helvetica Neue, Arial, sans-serif" font-size="15" fill="#334155">$899.513</text></svg>