<svg xmlns="http://www.w3.org/2000/svg" width="1280" height="860" viewBox="0 0 1280 860" role="img" aria-labelledby="title desc"><title id="title">Mapa de calor semanal de la inversion estimada por marca</title><desc id="desc">Mapa de calor con la evolucion semanal estimada de la inversion por marca.</desc><rect width="100%" height="100%" fill="#f6f2e9"/><text x="48" y="52" font-family="Helvetica Neue, Arial, sans-serif" font-size="34" font-weight="700" fill="#1f2937">Mapa de calor semanal de la inversion estimada por marca</text><text x="48" y="82" font-family="Helvetica Neue, Arial, sans-serif" font-size="18" fill="#5f6b7a">Cada celda representa un corte semanal de 2026. Cuanto mas intenso el color, mayor la inversion estimada observada.</text><text x="243.33333333333334" y="92" text-anchor="middle" font-family="Helvetica Neue, Arial, sans-serif" font-size="14" fill="#64748b">2026-01-04</text><line x1="210.0" y1="110" x2="210.0" y2="760" stroke="#efeadd" stroke-width="1"/><text x="310.0" y="92" text-anchor="middle" font-family="Helvetica Neue, Arial, sans-serif" font-size="14" fill="#64748b">2026-01-11</text><line x1="276.6666666666667" y1="110" x2="276.6666666666667" y2="760" stroke="#efeadd" stroke-width="1"/><text x="376.6666666666667" y="92" text-anchor="middle" font-family="Helvetica Neue, Arial, sans-serif" font-size="14" fill="#64748b">2026-01-18</text><line x1="343.33333333333337" y1="110" x2="343.33333333333337" y2="760" stroke="#efeadd" stroke-width="1"/><text x="443.3333333333333" y="92" text-anchor="middle" font-family="Helvetica Neue, Arial, sans-serif" font-size="14" fill="#64748b">2026-01-25</text><line x1="410.0" y1="110" x2="410.0" y2="760" stroke="#efeadd" stroke-width="1"/><text x="510.0" y="92" text-anchor="middle" font-family="Helvetica Neue, Arial, sans-serif" font-size="14" fill="#64748b">2026-02-01</text><line x1="476.6666666666667" y1="110" x2="476.6666666666667" y2="760" stroke="#efeadd" stroke-width="1"/><text x="576.6666666666667" y="92" text-anchor="middle" font-family="Helvetica Neue, Arial, sans-serif" font-size="14" fill="#64748b">2026-02-08</text><line x1="543.3333333333334" y1="110" x2="543.3333333333334" y2="760" stroke="#efeadd" stroke-width="1"/><text x="643.3333333333334" y="92" text-anchor="middle" font-family="Helvetica Neue, Arial, sans-serif" font-size="14" fill="#64748b">2026-02-15</text><line x1="610.0" y1="110" x2="610.0" y2="760" stroke="#efeadd" stroke-width="1"/><text x="710.0000000000001" y="92" text-anchor="middle" font-family="Helvetica Neue, Arial, sans-serif" font-size="14" fill="#64748b">2026-02-22</text><line x1="676.6666666666667" y1="110" x2="676.6666666666667" y2="760" stroke="#efeadd" stroke-width="1"/><text x="776.6666666666667" y="92" text-anchor="middle" font-family="Helvetica Neue, Arial, sans-serif" font-size="14" fill="#64748b">2026-03-01</text><line x1="743.3333333333334" y1="110" x2="743.3333333333334" y2="760" stroke="#efeadd" stroke-width="1"/><text x="843.3333333333334" y="92" text-anchor="middle" font-family="Helvetica Neue, Arial, sans-serif" font-size="14" fill="#64748b">2026-03-08</text><line x1="810.0" y1="110" x2="810.0" y2="760" stroke="#efeadd" stroke-width="1"/><text x="910.0000000000001" y="92" text-anchor="middle" font-family="Helvetica Neue, Arial, sans-serif" font-size="14" fill="#64748b">2026-03-15</text><line x1="876.6666666666667" y1="110" x2="876.6666666666667" y2="760" stroke="#efeadd" stroke-width="1"/><text x="976.6666666666667" y="92" text-anchor="middle" font-family="Helvetica Neue, Arial, sans-serif" font-size="14" fill="#64748b">2026-03-22</text><line x1="943.3333333333334" y1="110" x2="943.3333333333334" y2="760" stroke="#efeadd" stroke-width="1"/><text x="1043.3333333333333" y="92" text-anchor="middle" font-family="Helvetica Neue, Arial, sans-serif" font-size="14" fill="#64748b">2026-03-29</text><line x1="1010.0" y1="110" x2="1010.0" y2="760" stroke="#efeadd" stroke-width="1"/><text x="1110.0" y="92" text-anchor="middle" font-family="Helvetica Neue, Arial, sans-serif" font-size="14" fill="#64748b">2026-04-05</text><line x1="1076.6666666666667" y1="110" x2="1076.6666666666667" y2="760" stroke="#efeadd" stroke-width="1"/><text x="1176.6666666666667" y="92" text-anchor="middle" font-family="Helvetica Neue, Arial, sans-serif" font-size="14" fill="#64748b">2026-04-12</text><line x1="1143.3333333333335" y1="110" x2="1143.3333333333335" y2="760" stroke="#efeadd" stroke-width="1"/><text x="196" y="147.5" text-anchor="end" font-family="Helvetica Neue, Arial, sans-serif" font-size="16" fill="#1f2937">BETANO</text><rect x="212.0" y="112.0" width="62.66666666666667" height="61.0" rx="6" fill="#cda3a9"/><text x="243.33333333333334" y="146.5" text-anchor="middle" font-family="Helvetica Neue, Arial, sans-serif" font-size="12" fill="#1f2937">$18.7 M</text><rect x="278.6666666666667" y="112.0" width="62.66666666666667" height="61.0" rx="6" fill="#a6556b"/><text x="310.0" y="146.5" text-anchor="middle" font-family="Helvetica Neue, Arial, sans-serif" font-size="12" fill="#ffffff">$65.7 M</text><rect x="345.33333333333337" y="112.0" width="62.66666666666667" height="61.0" rx="6" fill="#ac6074"/><text x="376.6666666666667" y="146.5" text-anchor="middle" font-family="Helvetica Neue, Arial, sans-serif" font-size="12" fill="#ffffff">$57.5 M</text><rect x="412.0" y="112.0" width="62.66666666666667" height="61.0" rx="6" fill="#a34e66"/><text x="443.3333333333333" y="146.5" text-anchor="middle" font-family="Helvetica Neue, Arial, sans-serif" font-size="12" fill="#ffffff">$70.9 M</text><rect x="478.6666666666667" y="112.0" width="62.66666666666667" height="61.0" rx="6" fill="#a34e65"/><text x="510.0" y="146.5" text-anchor="middle" font-family="Helvetica Neue, Arial, sans-serif" font-size="12" fill="#ffffff">$71.4 M</text><rect x="545.3333333333334" y="112.0" width="62.66666666666667" height="61.0" rx="6" fill="#95314e"/><text x="576.6666666666667" y="146.5" text-anchor="middle" font-family="Helvetica Neue, Arial, sans-serif" font-size="12" fill="#ffffff">$95.8 M</text><rect x="612.0" y="112.0" width="62.66666666666667" height="61.0" rx="6" fill="#af677a"/><text x="643.3333333333334" y="146.5" text-anchor="middle" font-family="Helvetica Neue, Arial, sans-serif" font-size="12" fill="#ffffff">$52.5 M</text><rect x="678.6666666666667" y="112.0" width="62.66666666666667" height="61.0" rx="6" fill="#9d415b"/><text x="710.0000000000001" y="146.5" text-anchor="middle" font-family="Helvetica Neue, Arial, sans-serif" font-size="12" fill="#ffffff">$81.5 M</text><rect x="745.3333333333334" y="112.0" width="62.66666666666667" height="61.0" rx="6" fill="#ab5f73"/><text x="776.6666666666667" y="146.5" text-anchor="middle" font-family="Helvetica Neue, Arial, sans-serif" font-size="12" fill="#ffffff">$58.1 M</text><rect x="812.0" y="112.0" width="62.66666666666667" height="61.0" rx="6" fill="#983854"/><text x="843.3333333333334" y="146.5" text-anchor="middle" font-family="Helvetica Neue, Arial, sans-serif" font-size="12" fill="#ffffff">$89.8 M</text><rect x="878.6666666666667" y="112.0" width="62.66666666666667" height="61.0" rx="6" fill="#a14b63"/><text x="910.0000000000001" y="146.5" text-anchor="middle" font-family="Helvetica Neue, Arial, sans-serif" font-size="12" fill="#ffffff">$74 M</text><rect x="945.3333333333334" y="112.0" width="62.66666666666667" height="61.0" rx="6" fill="#922c4a"/><text x="976.6666666666667" y="146.5" text-anchor="middle" font-family="Helvetica Neue, Arial, sans-serif" font-size="12" fill="#ffffff">$100.4 M</text><rect x="1012.0" y="112.0" width="62.66666666666667" height="61.0" rx="6" fill="#993b56"/><text x="1043.3333333333333" y="146.5" text-anchor="middle" font-family="Helvetica Neue, Arial, sans-serif" font-size="12" fill="#ffffff">$87.3 M</text><rect x="1078.6666666666667" y="112.0" width="62.66666666666667" height="61.0" rx="6" fill="#973753"/><text x="1110.0" y="146.5" text-anchor="middle" font-family="Helvetica Neue, Arial, sans-serif" font-size="12" fill="#ffffff">$90.6 M</text><rect x="1145.3333333333335" y="112.0" width="62.66666666666667" height="61.0" rx="6" fill="#a24b63"/><text x="1176.6666666666667" y="146.5" text-anchor="middle" font-family="Helvetica Neue, Arial, sans-serif" font-size="12" fill="#ffffff">$73.3 M</text><text x="196" y="212.5" text-anchor="end" font-family="Helvetica Neue, Arial, sans-serif" font-size="16" fill="#1f2937">EPICBET</text><rect x="212.0" y="177.0" width="62.66666666666667" height="61.0" rx="6" fill="#f4f1e8"/><rect x="278.6666666666667" y="177.0" width="62.66666666666667" height="61.0" rx="6" fill="#b47081"/><text x="310.0" y="211.5" text-anchor="middle" font-family="Helvetica Neue, Arial, sans-serif" font-size="12" fill="#1f2937">$46.6 M</text><rect x="345.33333333333337" y="177.0" width="62.66666666666667" height="61.0" rx="6" fill="#ae6477"/><text x="376.6666666666667" y="211.5" text-anchor="middle" font-family="Helvetica Neue, Arial, sans-serif" font-size="12" fill="#ffffff">$54.6 M</text><rect x="412.0" y="177.0" width="62.66666666666667" height="61.0" rx="6" fill="#b47181"/><text x="443.3333333333333" y="211.5" text-anchor="middle" font-family="Helvetica Neue, Arial, sans-serif" font-size="12" fill="#1f2937">$46.1 M</text><rect x="478.6666666666667" y="177.0" width="62.66666666666667" height="61.0" rx="6" fill="#c08894"/><text x="510.0" y="211.5" text-anchor="middle" font-family="Helvetica Neue, Arial, sans-serif" font-size="12" fill="#1f2937">$32.2 M</text><rect x="545.3333333333334" y="177.0" width="62.66666666666667" height="61.0" rx="6" fill="#8b1e3f"/><text x="576.6666666666667" y="211.5" text-anchor="middle" font-family="Helvetica Neue, Arial, sans-serif" font-size="12" fill="#ffffff">$113.9 M</text><rect x="612.0" y="177.0" width="62.66666666666667" height="61.0" rx="6" fill="#c99ca4"/><text x="643.3333333333334" y="211.5" text-anchor="middle" font-family="Helvetica Neue, Arial, sans-serif" font-size="12" fill="#1f2937">$22 M</text><rect x="678.6666666666667" y="177.0" width="62.66666666666667" height="61.0" rx="6" fill="#b67484"/><text x="710.0000000000001" y="211.5" text-anchor="middle" font-family="Helvetica Neue, Arial, sans-serif" font-size="12" fill="#1f2937">$43.9 M</text><rect x="745.3333333333334" y="177.0" width="62.66666666666667" height="61.0" rx="6" fill="#d0a8ad"/><text x="776.6666666666667" y="211.5" text-anchor="middle" font-family="Helvetica Neue, Arial, sans-serif" font-size="12" fill="#1f2937">$16.6 M</text><rect x="812.0" y="177.0" width="62.66666666666667" height="61.0" rx="6" fill="#d7b7ba"/><text x="843.3333333333334" y="211.5" text-anchor="middle" font-family="Helvetica Neue, Arial, sans-serif" font-size="12" fill="#1f2937">$10.9 M</text><rect x="878.6666666666667" y="177.0" width="62.66666666666667" height="61.0" rx="6" fill="#d9babc"/><text x="910.0000000000001" y="211.5" text-anchor="middle" font-family="Helvetica Neue, Arial, sans-serif" font-size="12" fill="#1f2937">$9.9 M</text><rect x="945.3333333333334" y="177.0" width="62.66666666666667" height="61.0" rx="6" fill="#e6d6d2"/><text x="976.6666666666667" y="211.5" text-anchor="middle" font-family="Helvetica Neue, Arial, sans-serif" font-size="12" fill="#1f2937">$2.8 M</text><rect x="1012.0" y="177.0" width="62.66666666666667" height="61.0" rx="6" fill="#ddc3c3"/><text x="1043.3333333333333" y="211.5" text-anchor="middle" font-family="Helvetica Neue, Arial, sans-serif" font-size="12" fill="#1f2937">$7.2 M</text><rect x="1078.6666666666667" y="177.0" width="62.66666666666667" height="61.0" rx="6" fill="#ede3dc"/><text x="1110.0" y="211.5" text-anchor="middle" font-family="Helvetica Neue, Arial, sans-serif" font-size="12" fill="#1f2937">$873.3 mil</text><rect x="1145.3333333333335" y="177.0" width="62.66666666666667" height="61.0" rx="6" fill="#ede3dc"/><text x="1176.6666666666667" y="211.5" text-anchor="middle" font-family="Helvetica Neue, Arial, sans-serif" font-size="12" fill="#1f2937">$860.9 mil</text><text x="196" y="277.5" text-anchor="end" font-family="Helvetica Neue, Arial, sans-serif" font-size="16" fill="#1f2937">JUGABET</text><rect x="212.0" y="242.0" width="62.66666666666667" height="61.0" rx="6" fill="#dcc1c2"/><text x="243.33333333333334" y="276.5" text-anchor="middle" font-family="Helvetica Neue, Arial, sans-serif" font-size="12" fill="#1f2937">$7.6 M</text><rect x="278.6666666666667" y="242.0" width="62.66666666666667" height="61.0" rx="6" fill="#dabdbe"/><text x="310.0" y="276.5" text-anchor="middle" font-family="Helvetica Neue, Arial, sans-serif" font-size="12" fill="#1f2937">$9 M</text><rect x="345.33333333333337" y="242.0" width="62.66666666666667" height="61.0" rx="6" fill="#c38f99"/><text x="376.6666666666667" y="276.5" text-anchor="middle" font-family="Helvetica Neue, Arial, sans-serif" font-size="12" fill="#1f2937">$28.3 M</text><rect x="412.0" y="242.0" width="62.66666666666667" height="61.0" rx="6" fill="#a45168"/><text x="443.3333333333333" y="276.5" text-anchor="middle" font-family="Helvetica Neue, Arial, sans-serif" font-size="12" fill="#ffffff">$69 M</text><rect x="478.6666666666667" y="242.0" width="62.66666666666667" height="61.0" rx="6" fill="#bb7f8c"/><text x="510.0" y="276.5" text-anchor="middle" font-family="Helvetica Neue, Arial, sans-serif" font-size="12" fill="#1f2937">$37.4 M</text><rect x="545.3333333333334" y="242.0" width="62.66666666666667" height="61.0" rx="6" fill="#ad6376"/><text x="576.6666666666667" y="276.5" text-anchor="middle" font-family="Helvetica Neue, Arial, sans-serif" font-size="12" fill="#ffffff">$55.7 M</text><rect x="612.0" y="242.0" width="62.66666666666667" height="61.0" rx="6" fill="#d6b4b7"/><text x="643.3333333333334" y="276.5" text-anchor="middle" font-family="Helvetica Neue, Arial, sans-serif" font-size="12" fill="#1f2937">$12 M</text><rect x="678.6666666666667" y="242.0" width="62.66666666666667" height="61.0" rx="6" fill="#a45168"/><text x="710.0000000000001" y="276.5" text-anchor="middle" font-family="Helvetica Neue, Arial, sans-serif" font-size="12" fill="#ffffff">$69 M</text><rect x="745.3333333333334" y="242.0" width="62.66666666666667" height="61.0" rx="6" fill="#c99aa2"/><text x="776.6666666666667" y="276.5" text-anchor="middle" font-family="Helvetica Neue, Arial, sans-serif" font-size="12" fill="#1f2937">$22.9 M</text><rect x="812.0" y="242.0" width="62.66666666666667" height="61.0" rx="6" fill="#d5b3b6"/><text x="843.3333333333334" y="276.5" text-anchor="middle" font-family="Helvetica Neue, Arial, sans-serif" font-size="12" fill="#1f2937">$12.3 M</text><rect x="878.6666666666667" y="242.0" width="62.66666666666667" height="61.0" rx="6" fill="#dabcbe"/><text x="910.0000000000001" y="276.5" text-anchor="middle" font-family="Helvetica Neue, Arial, sans-serif" font-size="12" fill="#1f2937">$9.2 M</text><rect x="945.3333333333334" y="242.0" width="62.66666666666667" height="61.0" rx="6" fill="#d5b4b7"/><text x="976.6666666666667" y="276.5" text-anchor="middle" font-family="Helvetica Neue, Arial, sans-serif" font-size="12" fill="#1f2937">$12 M</text><rect x="1012.0" y="242.0" width="62.66666666666667" height="61.0" rx="6" fill="#dbbebf"/><text x="1043.3333333333333" y="276.5" text-anchor="middle" font-family="Helvetica Neue, Arial, sans-serif" font-size="12" fill="#1f2937">$8.6 M</text><rect x="1078.6666666666667" y="242.0" width="62.66666666666667" height="61.0" rx="6" fill="#d5b3b6"/><text x="1110.0" y="276.5" text-anchor="middle" font-family="Helvetica Neue, Arial, sans-serif" font-size="12" fill="#1f2937">$12.4 M</text><rect x="1145.3333333333335" y="242.0" width="62.66666666666667" height="61.0" rx="6" fill="#dabdbe"/><text x="1176.6666666666667" y="276.5" text-anchor="middle" font-family="Helvetica Neue, Arial, sans-serif" font-size="12" fill="#1f2937">$8.9 M</text><text x="196" y="342.5" text-anchor="end" font-family="Helvetica Neue, Arial, sans-serif" font-size="16" fill="#1f2937">COOLBET</text><rect x="212.0" y="307.0" width="62.66666666666667" height="61.0" rx="6" fill="#e2cdcb"/><text x="243.33333333333334" y="341.5" text-anchor="middle" font-family="Helvetica Neue, Arial, sans-serif" font-size="12" fill="#1f2937">$4.7 M</text><rect x="278.6666666666667" y="307.0" width="62.66666666666667" height="61.0" rx="6" fill="#dabebf"/><text x="310.0" y="341.5" text-anchor="middle" font-family="Helvetica Neue, Arial, sans-serif" font-size="12" fill="#1f2937">$8.7 M</text><rect x="345.33333333333337" y="307.0" width="62.66666666666667" height="61.0" rx="6" fill="#d6b5b8"/><text x="376.6666666666667" y="341.5" text-anchor="middle" font-family="Helvetica Neue, Arial, sans-serif" font-size="12" fill="#1f2937">$11.4 M</text><rect x="412.0" y="307.0" width="62.66666666666667" height="61.0" rx="6" fill="#d5b4b7"/><text x="443.3333333333333" y="341.5" text-anchor="middle" font-family="Helvetica Neue, Arial, sans-serif" font-size="12" fill="#1f2937">$12 M</text><rect x="478.6666666666667" y="307.0" width="62.66666666666667" height="61.0" rx="6" fill="#dabdbf"/><text x="510.0" y="341.5" text-anchor="middle" font-family="Helvetica Neue, Arial, sans-serif" font-size="12" fill="#1f2937">$8.8 M</text><rect x="545.3333333333334" y="307.0" width="62.66666666666667" height="61.0" rx="6" fill="#d7b6b9"/><text x="576.6666666666667" y="341.5" text-anchor="middle" font-family="Helvetica Neue, Arial, sans-serif" font-size="12" fill="#1f2937">$11.2 M</text><rect x="612.0" y="307.0" width="62.66666666666667" height="61.0" rx="6" fill="#dabdbe"/><text x="643.3333333333334" y="341.5" text-anchor="middle" font-family="Helvetica Neue, Arial, sans-serif" font-size="12" fill="#1f2937">$9 M</text><rect x="678.6666666666667" y="307.0" width="62.66666666666667" height="61.0" rx="6" fill="#dcc0c1"/><text x="710.0000000000001" y="341.5" text-anchor="middle" font-family="Helvetica Neue, Arial, sans-serif" font-size="12" fill="#1f2937">$8 M</text><rect x="745.3333333333334" y="307.0" width="62.66666666666667" height="61.0" rx="6" fill="#c28c97"/><text x="776.6666666666667" y="341.5" text-anchor="middle" font-family="Helvetica Neue, Arial, sans-serif" font-size="12" fill="#1f2937">$29.7 M</text><rect x="812.0" y="307.0" width="62.66666666666667" height="61.0" rx="6" fill="#cb9ea5"/><text x="843.3333333333334" y="341.5" text-anchor="middle" font-family="Helvetica Neue, Arial, sans-serif" font-size="12" fill="#1f2937">$21 M</text><rect x="878.6666666666667" y="307.0" width="62.66666666666667" height="61.0" rx="6" fill="#cb9ea6"/><text x="910.0000000000001" y="341.5" text-anchor="middle" font-family="Helvetica Neue, Arial, sans-serif" font-size="12" fill="#1f2937">$20.8 M</text><rect x="945.3333333333334" y="307.0" width="62.66666666666667" height="61.0" rx="6" fill="#c5929c"/><text x="976.6666666666667" y="341.5" text-anchor="middle" font-family="Helvetica Neue, Arial, sans-serif" font-size="12" fill="#1f2937">$26.7 M</text><rect x="1012.0" y="307.0" width="62.66666666666667" height="61.0" rx="6" fill="#b97b89"/><text x="1043.3333333333333" y="341.5" text-anchor="middle" font-family="Helvetica Neue, Arial, sans-serif" font-size="12" fill="#1f2937">$39.7 M</text><rect x="1078.6666666666667" y="307.0" width="62.66666666666667" height="61.0" rx="6" fill="#b47181"/><text x="1110.0" y="341.5" text-anchor="middle" font-family="Helvetica Neue, Arial, sans-serif" font-size="12" fill="#1f2937">$45.9 M</text><rect x="1145.3333333333335" y="307.0" width="62.66666666666667" height="61.0" rx="6" fill="#c08995"/><text x="1176.6666666666667" y="341.5" text-anchor="middle" font-family="Helvetica Neue, Arial, sans-serif" font-size="12" fill="#1f2937">$31.6 M</text><text x="196" y="407.5" text-anchor="end" font-family="Helvetica Neue, Arial, sans-serif" font-size="16" fill="#1f2937">LATAMWIN</text><rect x="212.0" y="372.0" width="62.66666666666667" height="61.0" rx="6" fill="#f2ede5"/><text x="243.33333333333334" y="406.5" text-anchor="middle" font-family="Helvetica Neue, Arial, sans-serif" font-size="12" fill="#1f2937">$68.7 mil</text><rect x="278.6666666666667" y="372.0" width="62.66666666666667" height="61.0" rx="6" fill="#eee6df"/><text x="310.0" y="406.5" text-anchor="middle" font-family="Helvetica Neue, Arial, sans-serif" font-size="12" fill="#1f2937">$558 mil</text><rect x="345.33333333333337" y="372.0" width="62.66666666666667" height="61.0" rx="6" fill="#ddc3c3"/><text x="376.6666666666667" y="406.5" text-anchor="middle" font-family="Helvetica Neue, Arial, sans-serif" font-size="12" fill="#1f2937">$7.3 M</text><rect x="412.0" y="372.0" width="62.66666666666667" height="61.0" rx="6" fill="#ddc3c3"/><text x="443.3333333333333" y="406.5" text-anchor="middle" font-family="Helvetica Neue, Arial, sans-serif" font-size="12" fill="#1f2937">$7.3 M</text><rect x="478.6666666666667" y="372.0" width="62.66666666666667" height="61.0" rx="6" fill="#d0a8ae"/><text x="510.0" y="406.5" text-anchor="middle" font-family="Helvetica Neue, Arial, sans-serif" font-size="12" fill="#1f2937">$16.5 M</text><rect x="545.3333333333334" y="372.0" width="62.66666666666667" height="61.0" rx="6" fill="#ddc3c3"/><text x="576.6666666666667" y="406.5" text-anchor="middle" font-family="Helvetica Neue, Arial, sans-serif" font-size="12" fill="#1f2937">$7.3 M</text><rect x="612.0" y="372.0" width="62.66666666666667" height="61.0" rx="6" fill="#ddc3c3"/><text x="643.3333333333334" y="406.5" text-anchor="middle" font-family="Helvetica Neue, Arial, sans-serif" font-size="12" fill="#1f2937">$7.2 M</text><rect x="678.6666666666667" y="372.0" width="62.66666666666667" height="61.0" rx="6" fill="#dec5c5"/><text x="710.0000000000001" y="406.5" text-anchor="middle" font-family="Helvetica Neue, Arial, sans-serif" font-size="12" fill="#1f2937">$6.6 M</text><rect x="745.3333333333334" y="372.0" width="62.66666666666667" height="61.0" rx="6" fill="#e5d3d0"/><text x="776.6666666666667" y="406.5" text-anchor="middle" font-family="Helvetica Neue, Arial, sans-serif" font-size="12" fill="#1f2937">$3.3 M</text><rect x="812.0" y="372.0" width="62.66666666666667" height="61.0" rx="6" fill="#d2acb1"/><text x="843.3333333333334" y="406.5" text-anchor="middle" font-family="Helvetica Neue, Arial, sans-serif" font-size="12" fill="#1f2937">$14.9 M</text><rect x="878.6666666666667" y="372.0" width="62.66666666666667" height="61.0" rx="6" fill="#e2cdcb"/><text x="910.0000000000001" y="406.5" text-anchor="middle" font-family="Helvetica Neue, Arial, sans-serif" font-size="12" fill="#1f2937">$4.5 M</text><rect x="945.3333333333334" y="372.0" width="62.66666666666667" height="61.0" rx="6" fill="#d5b2b6"/><text x="976.6666666666667" y="406.5" text-anchor="middle" font-family="Helvetica Neue, Arial, sans-serif" font-size="12" fill="#1f2937">$12.6 M</text><rect x="1012.0" y="372.0" width="62.66666666666667" height="61.0" rx="6" fill="#ddc3c3"/><text x="1043.3333333333333" y="406.5" text-anchor="middle" font-family="Helvetica Neue, Arial, sans-serif" font-size="12" fill="#1f2937">$7 M</text><rect x="1078.6666666666667" y="372.0" width="62.66666666666667" height="61.0" rx="6" fill="#d5b3b6"/><text x="1110.0" y="406.5" text-anchor="middle" font-family="Helvetica Neue, Arial, sans-serif" font-size="12" fill="#1f2937">$12.3 M</text><rect x="1145.3333333333335" y="372.0" width="62.66666666666667" height="61.0" rx="6" fill="#e2cecc"/><text x="1176.6666666666667" y="406.5" text-anchor="middle" font-family="Helvetica Neue, Arial, sans-serif" font-size="12" fill="#1f2937">$4.4 M</text><text x="196" y="472.5" text-anchor="end" font-family="Helvetica Neue, Arial, sans-serif" font-size="16" fill="#1f2937">ROJABET</text><rect x="212.0" y="437.0" width="62.66666666666667" height="61.0" rx="6" fill="#eee6df"/><text x="243.33333333333334" y="471.5" text-anchor="middle" font-family="Helvetica Neue, Arial, sans-serif" font-size="12" fill="#1f2937">$553 mil</text><rect x="278.6666666666667" y="437.0" width="62.66666666666667" height="61.0" rx="6" fill="#eee4de"/><text x="310.0" y="471.5" text-anchor="middle" font-family="Helvetica Neue, Arial, sans-serif" font-size="12" fill="#1f2937">$691.7 mil</text><rect x="345.33333333333337" y="437.0" width="62.66666666666667" height="61.0" rx="6" fill="#e8d9d5"/><text x="376.6666666666667" y="471.5" text-anchor="middle" font-family="Helvetica Neue, Arial, sans-serif" font-size="12" fill="#1f2937">$2.1 M</text><rect x="412.0" y="437.0" width="62.66666666666667" height="61.0" rx="6" fill="#e7d6d3"/><text x="443.3333333333333" y="471.5" text-anchor="middle" font-family="Helvetica Neue, Arial, sans-serif" font-size="12" fill="#1f2937">$2.6 M</text><rect x="478.6666666666667" y="437.0" width="62.66666666666667" height="61.0" rx="6" fill="#e7d8d4"/><text x="510.0" y="471.5" text-anchor="middle" font-family="Helvetica Neue, Arial, sans-serif" font-size="12" fill="#1f2937">$2.4 M</text><rect x="545.3333333333334" y="437.0" width="62.66666666666667" height="61.0" rx="6" fill="#e9dad6"/><text x="576.6666666666667" y="471.5" text-anchor="middle" font-family="Helvetica Neue, Arial, sans-serif" font-size="12" fill="#1f2937">$2 M</text><rect x="612.0" y="437.0" width="62.66666666666667" height="61.0" rx="6" fill="#e8dad5"/><text x="643.3333333333334" y="471.5" text-anchor="middle" font-family="Helvetica Neue, Arial, sans-serif" font-size="12" fill="#1f2937">$2.1 M</text><rect x="678.6666666666667" y="437.0" width="62.66666666666667" height="61.0" rx="6" fill="#e9dcd7"/><text x="710.0000000000001" y="471.5" text-anchor="middle" font-family="Helvetica Neue, Arial, sans-serif" font-size="12" fill="#1f2937">$1.8 M</text><rect x="745.3333333333334" y="437.0" width="62.66666666666667" height="61.0" rx="6" fill="#e8d9d5"/><text x="776.6666666666667" y="471.5" text-anchor="middle" font-family="Helvetica Neue, Arial, sans-serif" font-size="12" fill="#1f2937">$2.2 M</text><rect x="812.0" y="437.0" width="62.66666666666667" height="61.0" rx="6" fill="#e3cfcd"/><text x="843.3333333333334" y="471.5" text-anchor="middle" font-family="Helvetica Neue, Arial, sans-serif" font-size="12" fill="#1f2937">$4.1 M</text><rect x="878.6666666666667" y="437.0" width="62.66666666666667" height="61.0" rx="6" fill="#e1cbca"/><text x="910.0000000000001" y="471.5" text-anchor="middle" font-family="Helvetica Neue, Arial, sans-serif" font-size="12" fill="#1f2937">$5 M</text><rect x="945.3333333333334" y="437.0" width="62.66666666666667" height="61.0" rx="6" fill="#e3cecc"/><text x="976.6666666666667" y="471.5" text-anchor="middle" font-family="Helvetica Neue, Arial, sans-serif" font-size="12" fill="#1f2937">$4.2 M</text><rect x="1012.0" y="437.0" width="62.66666666666667" height="61.0" rx="6" fill="#e3cfcd"/><text x="1043.3333333333333" y="471.5" text-anchor="middle" font-family="Helvetica Neue, Arial, sans-serif" font-size="12" fill="#1f2937">$4.1 M</text><rect x="1078.6666666666667" y="437.0" width="62.66666666666667" height="61.0" rx="6" fill="#e2cdcb"/><text x="1110.0" y="471.5" text-anchor="middle" font-family="Helvetica Neue, Arial, sans-serif" font-size="12" fill="#1f2937">$4.6 M</text><rect x="1145.3333333333335" y="437.0" width="62.66666666666667" height="61.0" rx="6" fill="#e3cfcc"/><text x="1176.6666666666667" y="471.5" text-anchor="middle" font-family="Helvetica Neue, Arial, sans-serif" font-size="12" fill="#1f2937">$4.2 M</text><text x="196" y="537.5" text-anchor="end" font-family="Helvetica Neue, Arial, sans-serif" font-size="16" fill="#1f2937">TONYBET</text><rect x="212.0" y="502.0" width="62.66666666666667" height="61.0" rx="6" fill="#ece1db"/><text x="243.33333333333334" y="536.5" text-anchor="middle" font-family="Helvetica Neue, Arial, sans-serif" font-size="12" fill="#1f2937">$1.1 M</text><rect x="278.6666666666667" y="502.0" width="62.66666666666667" height="61.0" rx="6" fill="#eaddd8"/><text x="310.0" y="536.5" text-anchor="middle" font-family="Helvetica Neue, Arial, sans-serif" font-size="12" fill="#1f2937">$1.6 M</text><rect x="345.33333333333337" y="502.0" width="62.66666666666667" height="61.0" rx="6" fill="#eaddd8"/><text x="376.6666666666667" y="536.5" text-anchor="middle" font-family="Helvetica Neue, Arial, sans-serif" font-size="12" fill="#1f2937">$1.5 M</text><rect x="412.0" y="502.0" width="62.66666666666667" height="61.0" rx="6" fill="#ebded9"/><text x="443.3333333333333" y="536.5" text-anchor="middle" font-family="Helvetica Neue, Arial, sans-serif" font-size="12" fill="#1f2937">$1.4 M</text><rect x="478.6666666666667" y="502.0" width="62.66666666666667" height="61.0" rx="6" fill="#e7d7d3"/><text x="510.0" y="536.5" text-anchor="middle" font-family="Helvetica Neue, Arial, sans-serif" font-size="12" fill="#1f2937">$2.5 M</text><rect x="545.3333333333334" y="502.0" width="62.66666666666667" height="61.0" rx="6" fill="#e4d1ce"/><text x="576.6666666666667" y="536.5" text-anchor="middle" font-family="Helvetica Neue, Arial, sans-serif" font-size="12" fill="#1f2937">$3.7 M</text><rect x="612.0" y="502.0" width="62.66666666666667" height="61.0" rx="6" fill="#e6d5d2"/><text x="643.3333333333334" y="536.5" text-anchor="middle" font-family="Helvetica Neue, Arial, sans-serif" font-size="12" fill="#1f2937">$2.9 M</text><rect x="678.6666666666667" y="502.0" width="62.66666666666667" height="61.0" rx="6" fill="#eee5de"/><text x="710.0000000000001" y="536.5" text-anchor="middle" font-family="Helvetica Neue, Arial, sans-serif" font-size="12" fill="#1f2937">$668 mil</text><rect x="745.3333333333334" y="502.0" width="62.66666666666667" height="61.0" rx="6" fill="#eee5de"/><text x="776.6666666666667" y="536.5" text-anchor="middle" font-family="Helvetica Neue, Arial, sans-serif" font-size="12" fill="#1f2937">$613 mil</text><rect x="812.0" y="502.0" width="62.66666666666667" height="61.0" rx="6" fill="#ece1db"/><text x="843.3333333333334" y="536.5" text-anchor="middle" font-family="Helvetica Neue, Arial, sans-serif" font-size="12" fill="#1f2937">$1 M</text><rect x="878.6666666666667" y="502.0" width="62.66666666666667" height="61.0" rx="6" fill="#ece0da"/><text x="910.0000000000001" y="536.5" text-anchor="middle" font-family="Helvetica Neue, Arial, sans-serif" font-size="12" fill="#1f2937">$1.2 M</text><rect x="945.3333333333334" y="502.0" width="62.66666666666667" height="61.0" rx="6" fill="#eaddd8"/><text x="976.6666666666667" y="536.5" text-anchor="middle" font-family="Helvetica Neue, Arial, sans-serif" font-size="12" fill="#1f2937">$1.5 M</text><rect x="1012.0" y="502.0" width="62.66666666666667" height="61.0" rx="6" fill="#e9dcd7"/><text x="1043.3333333333333" y="536.5" text-anchor="middle" font-family="Helvetica Neue, Arial, sans-serif" font-size="12" fill="#1f2937">$1.8 M</text><rect x="1078.6666666666667" y="502.0" width="62.66666666666667" height="61.0" rx="6" fill="#e2cdcb"/><text x="1110.0" y="536.5" text-anchor="middle" font-family="Helvetica Neue, Arial, sans-serif" font-size="12" fill="#1f2937">$4.5 M</text><rect x="1145.3333333333335" y="502.0" width="62.66666666666667" height="61.0" rx="6" fill="#e6d6d2"/><text x="1176.6666666666667" y="536.5" text-anchor="middle" font-family="Helvetica Neue, Arial, sans-serif" font-size="12" fill="#1f2937">$2.8 M</text><text x="196" y="602.5" text-anchor="end" font-family="Helvetica Neue, Arial, sans-serif" font-size="16" fill="#1f2937">BETSSON</text><rect x="212.0" y="567.0" width="62.66666666666667" height="61.0" rx="6" fill="#f0eae2"/><text x="243.33333333333334" y="601.5" text-anchor="middle" font-family="Helvetica Neue, Arial, sans-serif" font-size="12" fill="#1f2937">$254.4 mil</text><rect x="278.6666666666667" y="567.0" width="62.66666666666667" height="61.0" rx="6" fill="#eee5df"/><text x="310.0" y="601.5" text-anchor="middle" font-family="Helvetica Neue, Arial, sans-serif" font-size="12" fill="#1f2937">$603.9 mil</text><rect x="345.33333333333337" y="567.0" width="62.66666666666667" height="61.0" rx="6" fill="#eee4de"/><text x="376.6666666666667" y="601.5" text-anchor="middle" font-family="Helvetica Neue, Arial, sans-serif" font-size="12" fill="#1f2937">$718.3 mil</text><rect x="412.0" y="567.0" width="62.66666666666667" height="61.0" rx="6" fill="#eee4de"/><text x="443.3333333333333" y="601.5" text-anchor="middle" font-family="Helvetica Neue, Arial, sans-serif" font-size="12" fill="#1f2937">$721.5 mil</text><rect x="478.6666666666667" y="567.0" width="62.66666666666667" height="61.0" rx="6" fill="#ede3dd"/><text x="510.0" y="601.5" text-anchor="middle" font-family="Helvetica Neue, Arial, sans-serif" font-size="12" fill="#1f2937">$849.4 mil</text><rect x="545.3333333333334" y="567.0" width="62.66666666666667" height="61.0" rx="6" fill="#ece2dc"/><text x="576.6666666666667" y="601.5" text-anchor="middle" font-family="Helvetica Neue, Arial, sans-serif" font-size="12" fill="#1f2937">$951.3 mil</text><rect x="612.0" y="567.0" width="62.66666666666667" height="61.0" rx="6" fill="#f1ebe3"/><text x="643.3333333333334" y="601.5" text-anchor="middle" font-family="Helvetica Neue, Arial, sans-serif" font-size="12" fill="#1f2937">$159.9 mil</text><rect x="678.6666666666667" y="567.0" width="62.66666666666667" height="61.0" rx="6" fill="#f1ece4"/><text x="710.0000000000001" y="601.5" text-anchor="middle" font-family="Helvetica Neue, Arial, sans-serif" font-size="12" fill="#1f2937">$148.5 mil</text><rect x="745.3333333333334" y="567.0" width="62.66666666666667" height="61.0" rx="6" fill="#f1ece4"/><text x="776.6666666666667" y="601.5" text-anchor="middle" font-family="Helvetica Neue, Arial, sans-serif" font-size="12" fill="#1f2937">$141.4 mil</text><rect x="812.0" y="567.0" width="62.66666666666667" height="61.0" rx="6" fill="#f0e8e1"/><text x="843.3333333333334" y="601.5" text-anchor="middle" font-family="Helvetica Neue, Arial, sans-serif" font-size="12" fill="#1f2937">$362.7 mil</text><rect x="878.6666666666667" y="567.0" width="62.66666666666667" height="61.0" rx="6" fill="#eee4de"/><text x="910.0000000000001" y="601.5" text-anchor="middle" font-family="Helvetica Neue, Arial, sans-serif" font-size="12" fill="#1f2937">$691.3 mil</text><rect x="945.3333333333334" y="567.0" width="62.66666666666667" height="61.0" rx="6" fill="#f0e9e2"/><text x="976.6666666666667" y="601.5" text-anchor="middle" font-family="Helvetica Neue, Arial, sans-serif" font-size="12" fill="#1f2937">$282.4 mil</text><rect x="1012.0" y="567.0" width="62.66666666666667" height="61.0" rx="6" fill="#f1ebe4"/><text x="1043.3333333333333" y="601.5" text-anchor="middle" font-family="Helvetica Neue, Arial, sans-serif" font-size="12" fill="#1f2937">$153 mil</text><rect x="1078.6666666666667" y="567.0" width="62.66666666666667" height="61.0" rx="6" fill="#f2eee5"/><text x="1110.0" y="601.5" text-anchor="middle" font-family="Helvetica Neue, Arial, sans-serif" font-size="12" fill="#1f2937">$58.8 mil</text><rect x="1145.3333333333335" y="567.0" width="62.66666666666667" height="61.0" rx="6" fill="#efe7e0"/><text x="1176.6666666666667" y="601.5" text-anchor="middle" font-family="Helvetica Neue, Arial, sans-serif" font-size="12" fill="#1f2937">$465.5 mil</text><text x="196" y="667.5" text-anchor="end" font-family="Helvetica Neue, Arial, sans-serif" font-size="16" fill="#1f2937">APUESTAS ROYAL</text><rect x="212.0" y="632.0" width="62.66666666666667" height="61.0" rx="6" fill="#f2eee6"/><text x="243.33333333333334" y="666.5" text-anchor="middle" font-family="Helvetica Neue, Arial, sans-serif" font-size="12" fill="#1f2937">$52.8 mil</text><rect x="278.6666666666667" y="632.0" width="62.66666666666667" height="61.0" rx="6" fill="#f3eee6"/><text x="310.0" y="666.5" text-anchor="middle" font-family="Helvetica Neue, Arial, sans-serif" font-size="12" fill="#1f2937">$46.4 mil</text><rect x="345.33333333333337" y="632.0" width="62.66666666666667" height="61.0" rx="6" fill="#f4f0e7"/><text x="376.6666666666667" y="666.5" text-anchor="middle" font-family="Helvetica Neue, Arial, sans-serif" font-size="12" fill="#1f2937">$3 mil</text><rect x="412.0" y="632.0" width="62.66666666666667" height="61.0" rx="6" fill="#f2ede5"/><text x="443.3333333333333" y="666.5" text-anchor="middle" font-family="Helvetica Neue, Arial, sans-serif" font-size="12" fill="#1f2937">$75.4 mil</text><rect x="478.6666666666667" y="632.0" width="62.66666666666667" height="61.0" rx="6" fill="#f2eee5"/><text x="510.0" y="666.5" text-anchor="middle" font-family="Helvetica Neue, Arial, sans-serif" font-size="12" fill="#1f2937">$60.9 mil</text><rect x="545.3333333333334" y="632.0" width="62.66666666666667" height="61.0" rx="6" fill="#f1ece4"/><text x="576.6666666666667" y="666.5" text-anchor="middle" font-family="Helvetica Neue, Arial, sans-serif" font-size="12" fill="#1f2937">$142.2 mil</text><rect x="612.0" y="632.0" width="62.66666666666667" height="61.0" rx="6" fill="#f0e9e2"/><text x="643.3333333333334" y="666.5" text-anchor="middle" font-family="Helvetica Neue, Arial, sans-serif" font-size="12" fill="#1f2937">$287.1 mil</text><rect x="678.6666666666667" y="632.0" width="62.66666666666667" height="61.0" rx="6" fill="#eee5df"/><text x="710.0000000000001" y="666.5" text-anchor="middle" font-family="Helvetica Neue, Arial, sans-serif" font-size="12" fill="#1f2937">$600.3 mil</text><rect x="745.3333333333334" y="632.0" width="62.66666666666667" height="61.0" rx="6" fill="#eee5de"/><text x="776.6666666666667" y="666.5" text-anchor="middle" font-family="Helvetica Neue, Arial, sans-serif" font-size="12" fill="#1f2937">$666.2 mil</text><rect x="812.0" y="632.0" width="62.66666666666667" height="61.0" rx="6" fill="#ede3dd"/><text x="843.3333333333334" y="666.5" text-anchor="middle" font-family="Helvetica Neue, Arial, sans-serif" font-size="12" fill="#1f2937">$809 mil</text><rect x="878.6666666666667" y="632.0" width="62.66666666666667" height="61.0" rx="6" fill="#ede2dc"/><text x="910.0000000000001" y="666.5" text-anchor="middle" font-family="Helvetica Neue, Arial, sans-serif" font-size="12" fill="#1f2937">$885.1 mil</text><rect x="945.3333333333334" y="632.0" width="62.66666666666667" height="61.0" rx="6" fill="#eee5de"/><text x="976.6666666666667" y="666.5" text-anchor="middle" font-family="Helvetica Neue, Arial, sans-serif" font-size="12" fill="#1f2937">$611.9 mil</text><rect x="1012.0" y="632.0" width="62.66666666666667" height="61.0" rx="6" fill="#eee5df"/><text x="1043.3333333333333" y="666.5" text-anchor="middle" font-family="Helvetica Neue, Arial, sans-serif" font-size="12" fill="#1f2937">$602.3 mil</text><rect x="1078.6666666666667" y="632.0" width="62.66666666666667" height="61.0" rx="6" fill="#efe7e0"/><text x="1110.0" y="666.5" text-anchor="middle" font-family="Helvetica Neue, Arial, sans-serif" font-size="12" fill="#1f2937">$428.6 mil</text><rect x="1145.3333333333335" y="632.0" width="62.66666666666667" height="61.0" rx="6" fill="#ede3dd"/><text x="1176.6666666666667" y="666.5" text-anchor="middle" font-family="Helvetica Neue, Arial, sans-serif" font-size="12" fill="#1f2937">$828.7 mil</text><text x="196" y="732.5" text-anchor="end" font-family="Helvetica Neue, Arial, sans-serif" font-size="16" fill="#1f2937">JUEGA EN LINEA</text><rect x="212.0" y="697.0" width="62.66666666666667" height="61.0" rx="6" fill="#f3eee6"/><text x="243.33333333333334" y="731.5" text-anchor="middle" font-family="Helvetica Neue, Arial, sans-serif" font-size="12" fill="#1f2937">$41.8 mil</text><rect x="278.6666666666667" y="697.0" width="62.66666666666667" height="61.0" rx="6" fill="#f3eee6"/><text x="310.0" y="731.5" text-anchor="middle" font-family="Helvetica Neue, Arial, sans-serif" font-size="12" fill="#1f2937">$39.8 mil</text><rect x="345.33333333333337" y="697.0" width="62.66666666666667" height="61.0" rx="6" fill="#f2eee5"/><text x="376.6666666666667" y="731.5" text-anchor="middle" font-family="Helvetica Neue, Arial, sans-serif" font-size="12" fill="#1f2937">$62.5 mil</text><rect x="412.0" y="697.0" width="62.66666666666667" height="61.0" rx="6" fill="#f2eee5"/><text x="443.3333333333333" y="731.5" text-anchor="middle" font-family="Helvetica Neue, Arial, sans-serif" font-size="12" fill="#1f2937">$60.2 mil</text><rect x="478.6666666666667" y="697.0" width="62.66666666666667" height="61.0" rx="6" fill="#f3eee6"/><text x="510.0" y="731.5" text-anchor="middle" font-family="Helvetica Neue, Arial, sans-serif" font-size="12" fill="#1f2937">$47.4 mil</text><rect x="545.3333333333334" y="697.0" width="62.66666666666667" height="61.0" rx="6" fill="#f2ede5"/><text x="576.6666666666667" y="731.5" text-anchor="middle" font-family="Helvetica Neue, Arial, sans-serif" font-size="12" fill="#1f2937">$79.9 mil</text><rect x="612.0" y="697.0" width="62.66666666666667" height="61.0" rx="6" fill="#f1ece4"/><text x="643.3333333333334" y="731.5" text-anchor="middle" font-family="Helvetica Neue, Arial, sans-serif" font-size="12" fill="#1f2937">$149.3 mil</text><rect x="678.6666666666667" y="697.0" width="62.66666666666667" height="61.0" rx="6" fill="#f2eee5"/><text x="710.0000000000001" y="731.5" text-anchor="middle" font-family="Helvetica Neue, Arial, sans-serif" font-size="12" fill="#1f2937">$62.3 mil</text><rect x="745.3333333333334" y="697.0" width="62.66666666666667" height="61.0" rx="6" fill="#f2ede5"/><text x="776.6666666666667" y="731.5" text-anchor="middle" font-family="Helvetica Neue, Arial, sans-serif" font-size="12" fill="#1f2937">$77.6 mil</text><rect x="812.0" y="697.0" width="62.66666666666667" height="61.0" rx="6" fill="#f2ede4"/><text x="843.3333333333334" y="731.5" text-anchor="middle" font-family="Helvetica Neue, Arial, sans-serif" font-size="12" fill="#1f2937">$100.2 mil</text><rect x="878.6666666666667" y="697.0" width="62.66666666666667" height="61.0" rx="6" fill="#f2ede5"/><text x="910.0000000000001" y="731.5" text-anchor="middle" font-family="Helvetica Neue, Arial, sans-serif" font-size="12" fill="#1f2937">$89.9 mil</text><rect x="945.3333333333334" y="697.0" width="62.66666666666667" height="61.0" rx="6" fill="#f3efe6"/><text x="976.6666666666667" y="731.5" text-anchor="middle" font-family="Helvetica Neue, Arial, sans-serif" font-size="12" fill="#1f2937">$30 mil</text><rect x="1012.0" y="697.0" width="62.66666666666667" height="61.0" rx="6" fill="#f4f1e8"/><rect x="1078.6666666666667" y="697.0" width="62.66666666666667" height="61.0" rx="6" fill="#f2eee5"/><text x="1110.0" y="731.5" text-anchor="middle" font-family="Helvetica Neue, Arial, sans-serif" font-size="12" fill="#1f2937">$58.8 mil</text><rect x="1145.3333333333335" y="697.0" width="62.66666666666667" height="61.0" rx="6" fill="#f3f0e7"/><text x="1176.6666666666667" y="731.5" text-anchor="middle" font-family="Helvetica Neue, Arial, sans-serif" font-size="12" fill="#1f2937">$7.3 mil</text><rect x="48" y="802" width="44" height="16" rx="6" fill="#f4f1e8"/><text x="70" y="836" text-anchor="middle" font-family="Helvetica Neue, Arial, sans-serif" font-size="13" fill="#64748b">$0</text><rect x="138" y="802" width="44" height="16" rx="6" fill="#c99aa2"/><text x="160" y="836" text-anchor="middle" font-family="Helvetica Neue, Arial, sans-serif" font-size="13" fill="#64748b">$22.8 M</text><rect x="228" y="802" width="44" height="16" rx="6" fill="#b57282"/><text x="250" y="836" text-anchor="middle" font-family="Helvetica Neue, Arial, sans-serif" font-size="13" fill="#64748b">$45.6 M</text><rect x="318" y="802" width="44" height="16" rx="6" fill="#a55268"/><text x="340" y="836" text-anchor="middle" font-family="Helvetica Neue, Arial, sans-serif" font-size="13" fill="#64748b">$68.3 M</text><rect x="408" y="802" width="44" height="16" rx="6" fill="#973653"/><text x="430" y="836" text-anchor="middle" font-family="Helvetica Neue, Arial, sans-serif" font-size="13" fill="#64748b">$91.1 M</text><rect x="498" y="802" width="44" height="16" rx="6" fill="#8b1e3f"/><text x="520" y="836" text-anchor="middle" font-family="Helvetica Neue, Arial, sans-serif" font-size="13" fill="#64748b">$113.9 M</text></svg>