<svg xmlns="http://www.w3.org/2000/svg" width="1280" height="820" viewBox="0 0 1280 820" role="img" aria-labelledby="title desc"><title id="title">Distribucion estimada de inversion por marca y medio</title><desc id="desc">Barras horizontales stackeadas con la distribucion estimada de inversion por marca y desglose por medio.</desc><rect width="100%" height="100%" fill="#f6f2e9"/><text x="48" y="54" font-family="Helvetica Neue, Arial, sans-serif" font-size="34" font-weight="700" fill="#1f2937">Distribucion estimada de inversion por marca y medio</text><text x="48" y="84" font-family="Helvetica Neue, Arial, sans-serif" font-size="18" fill="#5f6b7a">Composicion por tipo de medio. Montos estimados en CLP segun observacion y tarifas estandar.</text><rect x="48" y="98" width="14" height="14" rx="7" fill="#b91c1c"/><text x="72" y="110" font-family="Helvetica Neue, Arial, sans-serif" font-size="16" fill="#334155">TV abierta</text><rect x="178" y="98" width="14" height="14" rx="7" fill="#f97316"/><text x="202" y="110" font-family="Helvetica Neue, Arial, sans-serif" font-size="16" fill="#334155">TV cable</text><rect x="308" y="98" width="14" height="14" rx="7" fill="#0f766e"/><text x="332" y="110" font-family="Helvetica Neue, Arial, sans-serif" font-size="16" fill="#334155">Radio</text><rect x="438" y="98" width="14" height="14" rx="7" fill="#7c3aed"/><text x="462" y="110" font-family="Helvetica Neue, Arial, sans-serif" font-size="16" fill="#334155">Via publica</text><rect x="568" y="98" width="14" height="14" rx="7" fill="#2563eb"/><text x="592" y="110" font-family="Helvetica Neue, Arial, sans-serif" font-size="16" fill="#334155">Digital</text><rect x="698" y="98" width="14" height="14" rx="7" fill="#475569"/><text x="722" y="110" font-family="Helvetica Neue, Arial, sans-serif" font-size="16" fill="#334155">Prensa</text><line x1="200.0" y1="110" x2="200.0" y2="740" stroke="#e8e3d8" stroke-width="1"/><text x="200.0" y="786" text-anchor="middle" font-family="Helvetica Neue, Arial, sans-serif" font-size="14" fill="#64748b">$0</text><line x1="382.0" y1="110" x2="382.0" y2="740" stroke="#e8e3d8" stroke-width="1"/><text x="382.0" y="786" text-anchor="middle" font-family="Helvetica Neue, Arial, sans-serif" font-size="14" fill="#64748b">$184.7 M</text><line x1="564.0" y1="110" x2="564.0" y2="740" stroke="#e8e3d8" stroke-width="1"/><text x="564.0" y="786" text-anchor="middle" font-family="Helvetica Neue, Arial, sans-serif" font-size="14" fill="#64748b">$369.5 M</text><line x1="746.0" y1="110" x2="746.0" y2="740" stroke="#e8e3d8" stroke-width="1"/><text x="746.0" y="786" text-anchor="middle" font-family="Helvetica Neue, Arial, sans-serif" font-size="14" fill="#64748b">$554.2 M</text><line x1="928.0" y1="110" x2="928.0" y2="740" stroke="#e8e3d8" stroke-width="1"/><text x="928.0" y="786" text-anchor="middle" font-family="Helvetica Neue, Arial, sans-serif" font-size="14" fill="#64748b">$738.9 M</text><line x1="1110.0" y1="110" x2="1110.0" y2="740" stroke="#e8e3d8" stroke-width="1"/><text x="1110.0" y="786" text-anchor="middle" font-family="Helvetica Neue, Arial, sans-serif" font-size="14" fill="#64748b">$923.6 M</text><text x="186" y="132" text-anchor="end" font-family="Helvetica Neue, Arial, sans-serif" font-size="16" fill="#1f2937">BETANO</text><rect x="200" y="116" width="656.4062804037815" height="24" rx="4" fill="#b91c1c"/><rect x="856.4062804037815" y="116" width="27.677242587585923" height="24" rx="4" fill="#f97316"/><rect x="884.0835229913674" y="116" width="47.57091871108156" height="24" rx="4" fill="#0f766e"/><rect x="931.654441702449" y="116" width="123.8904183811292" height="24" rx="4" fill="#7c3aed"/><rect x="1055.5448600835782" y="116" width="54.455139916421814" height="24" rx="4" fill="#2563eb"/><text x="1124" y="133" font-family="Helvetica Neue, Arial, sans-serif" font-size="15" fill="#334155">$923.637.729</text><text x="186" y="180" text-anchor="end" font-family="Helvetica Neue, Arial, sans-serif" font-size="16" fill="#1f2937">EPICBET</text><rect x="200" y="164" width="6.425973058092835" height="24" rx="4" fill="#f97316"/><rect x="206.42597305809284" y="164" width="394.3468578818173" height="24" rx="4" fill="#7c3aed"/><text x="1124" y="181" font-family="Helvetica Neue, Arial, sans-serif" font-size="15" fill="#334155">$406.779.019</text><text x="186" y="228" text-anchor="end" font-family="Helvetica Neue, Arial, sans-serif" font-size="16" fill="#1f2937">JUGABET</text><rect x="200" y="212" width="69.55334967868288" height="24" rx="4" fill="#b91c1c"/><rect x="269.5533496786829" y="212" width="7.4770707664735205" height="24" rx="4" fill="#f97316"/><rect x="277.0304204451564" y="212" width="34.7701230281583" height="24" rx="4" fill="#0f766e"/><rect x="311.8005434733147" y="212" width="207.0340993553984" height="24" rx="4" fill="#7c3aed"/><rect x="518.8346428287131" y="212" width="28.98347438510156" height="24" rx="4" fill="#2563eb"/><text x="1124" y="229" font-family="Helvetica Neue, Arial, sans-serif" font-size="15" fill="#334155">$353.030.699</text><text x="186" y="276" text-anchor="end" font-family="Helvetica Neue, Arial, sans-serif" font-size="16" fill="#1f2937">COOLBET</text><rect x="200" y="260" width="1.2334410176334045" height="24" rx="4" fill="#b91c1c"/><rect x="201.2334410176334" y="260" width="0.01580119515115473" height="24" rx="4" fill="#f97316"/><rect x="201.24924221278454" y="260" width="0.18646750197642145" height="24" rx="4" fill="#0f766e"/><rect x="201.43570971476095" y="260" width="195.07483643900952" height="24" rx="4" fill="#2563eb"/><rect x="396.51054615377046" y="260" width="12.061598670076734" height="24" rx="4" fill="#475569"/><text x="1124" y="277" font-family="Helvetica Neue, Arial, sans-serif" font-size="15" fill="#334155">$211.697.914</text><text x="186" y="324" text-anchor="end" font-family="Helvetica Neue, Arial, sans-serif" font-size="16" fill="#1f2937">LATAMWIN</text><rect x="200" y="308" width="23.47070000133777" height="24" rx="4" fill="#0f766e"/><rect x="223.47070000133778" y="308" width="70.16964210299446" height="24" rx="4" fill="#2563eb"/><text x="1124" y="325" font-family="Helvetica Neue, Arial, sans-serif" font-size="15" fill="#334155">$95.043.684</text><text x="186" y="372" text-anchor="end" font-family="Helvetica Neue, Arial, sans-serif" font-size="16" fill="#1f2937">ROJABET</text><rect x="200" y="356" width="11.485872794571193" height="24" rx="4" fill="#b91c1c"/><rect x="211.4858727945712" y="356" width="13.646405932201136" height="24" rx="4" fill="#f97316"/><rect x="225.13227872677234" y="356" width="8.322098742005645" height="24" rx="4" fill="#0f766e"/><text x="1124" y="373" font-family="Helvetica Neue, Arial, sans-serif" font-size="15" fill="#334155">$33.955.742</text><text x="186" y="420" text-anchor="end" font-family="Helvetica Neue, Arial, sans-serif" font-size="16" fill="#1f2937">TONYBET</text><rect x="200" y="404" width="21.1317113203924" height="24" rx="4" fill="#2563eb"/><text x="1124" y="421" font-family="Helvetica Neue, Arial, sans-serif" font-size="15" fill="#334155">$21.448.402</text><text x="186" y="468" text-anchor="end" font-family="Helvetica Neue, Arial, sans-serif" font-size="16" fill="#1f2937">BETSSON</text><rect x="200" y="452" width="3.8400963384535256" height="24" rx="4" fill="#f97316"/><rect x="203.84009633845352" y="452" width="2.1087225872230517" height="24" rx="4" fill="#2563eb"/><text x="1124" y="469" font-family="Helvetica Neue, Arial, sans-serif" font-size="15" fill="#334155">$6.037.971</text><text x="186" y="516" text-anchor="end" font-family="Helvetica Neue, Arial, sans-serif" font-size="16" fill="#1f2937">APUESTAS ROYAL</text><rect x="200" y="500" width="4.7711845706543965" height="24" rx="4" fill="#f97316"/><text x="1124" y="517" font-family="Helvetica Neue, Arial, sans-serif" font-size="15" fill="#334155">$4.842.688</text><text x="186" y="564" text-anchor="end" font-family="Helvetica Neue, Arial, sans-serif" font-size="16" fill="#1f2937">JUEGA EN LINEA</text><rect x="200" y="548" width="0.6766227824911135" height="24" rx="4" fill="#f97316"/><rect x="200.6766227824911" y="548" width="0.15172349358092785" height="24" rx="4" fill="#2563eb"/><text x="1124" y="565" font-family="Helvetica Neue, Arial, sans-serif" font-size="15" fill="#334155">$840.760</text></svg>