<svg xmlns="http://www.w3.org/2000/svg" width="1280" height="900" viewBox="0 0 1280 900" role="img" aria-labelledby="title desc"><title id="title">Inversion mensual por marca, lineas</title><desc id="desc">Lineas con la evolucion mensual de la inversion total por marca.</desc><rect width="100%" height="100%" fill="#f6f2e9"/><text x="48" y="52" font-family="Helvetica Neue, Arial, sans-serif" font-size="34" font-weight="700" fill="#1f2937">Evolucion mensual por marca</text><text x="48" y="82" font-family="Helvetica Neue, Arial, sans-serif" font-size="18" fill="#5f6b7a">Serie mensual de inversion neta total, en CLP.</text><line x1="82" y1="710.0" x2="1232" y2="710.0" stroke="#e8e3d8" stroke-width="1"/><text x="70" y="714.0" text-anchor="end" font-family="Helvetica Neue, Arial, sans-serif" font-size="14" fill="#64748b">$0</text><line x1="82" y1="552.5" x2="1232" y2="552.5" stroke="#e8e3d8" stroke-width="1"/><text x="70" y="556.5" text-anchor="end" font-family="Helvetica Neue, Arial, sans-serif" font-size="14" fill="#64748b">$71.1 M</text><line x1="82" y1="395.0" x2="1232" y2="395.0" stroke="#e8e3d8" stroke-width="1"/><text x="70" y="399.0" text-anchor="end" font-family="Helvetica Neue, Arial, sans-serif" font-size="14" fill="#64748b">$142.3 M</text><line x1="82" y1="237.5" x2="1232" y2="237.5" stroke="#e8e3d8" stroke-width="1"/><text x="70" y="241.5" text-anchor="end" font-family="Helvetica Neue, Arial, sans-serif" font-size="14" fill="#64748b">$213.4 M</text><line x1="82" y1="80.0" x2="1232" y2="80.0" stroke="#e8e3d8" stroke-width="1"/><text x="70" y="84.0" text-anchor="end" font-family="Helvetica Neue, Arial, sans-serif" font-size="14" fill="#64748b">$284.6 M</text><line x1="82.0" y1="80" x2="82.0" y2="710" stroke="#efeadd" stroke-width="1"/><text x="82.0" y="874" text-anchor="middle" font-family="Helvetica Neue, Arial, sans-serif" font-size="15" fill="#64748b">2026-01</text><line x1="1232.0" y1="80" x2="1232.0" y2="710" stroke="#efeadd" stroke-width="1"/><text x="1232.0" y="874" text-anchor="middle" font-family="Helvetica Neue, Arial, sans-serif" font-size="15" fill="#64748b">2026-02</text><polyline fill="none" stroke="#8b1e3f" stroke-width="3" points="82.0,98.80426133232572 1232.0,80.0"/><circle cx="82.0" cy="98.80426133232572" r="4.5" fill="#8b1e3f"/><circle cx="1232.0" cy="80.0" r="4.5" fill="#8b1e3f"/><rect x="70" y="778" width="14" height="14" rx="7" fill="#8b1e3f"/><text x="92" y="790" font-family="Helvetica Neue, Arial, sans-serif" font-size="15" fill="#334155">BETANO</text><polyline fill="none" stroke="#0b6e4f" stroke-width="3" points="82.0,312.6757428406453 1232.0,275.4728132297979"/><circle cx="82.0" cy="312.6757428406453" r="4.5" fill="#0b6e4f"/><circle cx="1232.0" cy="275.4728132297979" r="4.5" fill="#0b6e4f"/><rect x="430" y="778" width="14" height="14" rx="7" fill="#0b6e4f"/><text x="452" y="790" font-family="Helvetica Neue, Arial, sans-serif" font-size="15" fill="#334155">EPICBET</text><polyline fill="none" stroke="#2563eb" stroke-width="3" points="82.0,381.3419874081513 1232.0,354.1612366336028"/><circle cx="82.0" cy="381.3419874081513" r="4.5" fill="#2563eb"/><circle cx="1232.0" cy="354.1612366336028" r="4.5" fill="#2563eb"/><rect x="790" y="778" width="14" height="14" rx="7" fill="#2563eb"/><text x="812" y="790" font-family="Helvetica Neue, Arial, sans-serif" font-size="15" fill="#334155">JUGABET</text><polyline fill="none" stroke="#f97316" stroke-width="3" points="82.0,611.5692409659622 1232.0,584.8519233935735"/><circle cx="82.0" cy="611.5692409659622" r="4.5" fill="#f97316"/><circle cx="1232.0" cy="584.8519233935735" r="4.5" fill="#f97316"/><rect x="70" y="810" width="14" height="14" rx="7" fill="#f97316"/><text x="92" y="822" font-family="Helvetica Neue, Arial, sans-serif" font-size="15" fill="#334155">COOLBET</text><polyline fill="none" stroke="#7c3aed" stroke-width="3" points="82.0,642.4600884607928 1232.0,653.6679674604809"/><circle cx="82.0" cy="642.4600884607928" r="4.5" fill="#7c3aed"/><circle cx="1232.0" cy="653.6679674604809" r="4.5" fill="#7c3aed"/><rect x="430" y="810" width="14" height="14" rx="7" fill="#7c3aed"/><text x="452" y="822" font-family="Helvetica Neue, Arial, sans-serif" font-size="15" fill="#334155">LATAMWIN</text><polyline fill="none" stroke="#b91c1c" stroke-width="3" points="82.0,691.8081559550873 1232.0,692.2105658034807"/><circle cx="82.0" cy="691.8081559550873" r="4.5" fill="#b91c1c"/><circle cx="1232.0" cy="692.2105658034807" r="4.5" fill="#b91c1c"/><rect x="790" y="810" width="14" height="14" rx="7" fill="#b91c1c"/><text x="812" y="822" font-family="Helvetica Neue, Arial, sans-serif" font-size="15" fill="#334155">ROJABET</text><polyline fill="none" stroke="#0f766e" stroke-width="3" points="82.0,694.0553543140518 1232.0,691.1597058006971"/><circle cx="82.0" cy="694.0553543140518" r="4.5" fill="#0f766e"/><circle cx="1232.0" cy="691.1597058006971" r="4.5" fill="#0f766e"/><rect x="70" y="842" width="14" height="14" rx="7" fill="#0f766e"/><text x="92" y="854" font-family="Helvetica Neue, Arial, sans-serif" font-size="15" fill="#334155">TONYBET</text><polyline fill="none" stroke="#475569" stroke-width="3" points="82.0,703.069413811971 1232.0,706.9575261813508"/><circle cx="82.0" cy="703.069413811971" r="4.5" fill="#475569"/><circle cx="1232.0" cy="706.9575261813508" r="4.5" fill="#475569"/><rect x="430" y="842" width="14" height="14" rx="7" fill="#475569"/><text x="452" y="854" font-family="Helvetica Neue, Arial, sans-serif" font-size="15" fill="#334155">BETSSON</text><polyline fill="none" stroke="#d97706" stroke-width="3" points="82.0,709.5305900972501 1232.0,706.5196983691784"/><circle cx="82.0" cy="709.5305900972501" r="4.5" fill="#d97706"/><circle cx="1232.0" cy="706.5196983691784" r="4.5" fill="#d97706"/><rect x="790" y="842" width="14" height="14" rx="7" fill="#d97706"/><text x="812" y="854" font-family="Helvetica Neue, Arial, sans-serif" font-size="15" fill="#334155">APUESTAS ROYAL</text><polyline fill="none" stroke="#4f46e5" stroke-width="3" points="82.0,709.466808666445 1232.0,709.1966463707456"/><circle cx="82.0" cy="709.466808666445" r="4.5" fill="#4f46e5"/><circle cx="1232.0" cy="709.1966463707456" r="4.5" fill="#4f46e5"/><rect x="70" y="874" width="14" height="14" rx="7" fill="#4f46e5"/><text x="92" y="886" font-family="Helvetica Neue, Arial, sans-serif" font-size="15" fill="#334155">JUEGA EN LINEA</text></svg>